<?xml version="1.0" encoding="UTF-8"?>
<!DOCTYPE svg PUBLIC "-//W3C//DTD SVG 1.1//EN" "http://www.w3.org/Graphics/SVG/1.1/DTD/svg11.dtd">
<svg width="211mm" height="135mm" viewBox="0 0 21100 13500" version="1.1" xmlns="http://www.w3.org/2000/svg" xmlns:xlink="http://www.w3.org/1999/xlink" stroke-width="28.222" stroke-linejoin="round" xml:space="preserve">
 <path fill="rgb(255,255,255)" stroke="none" d="M 10547,13440 L -13,13440 -13,-13 21106,-13 21106,13440 10547,13440 Z"/>
 <path fill="none" stroke="rgb(179,179,179)" stroke-linejoin="round" d="M 11322,11543 L 2148,11543 2148,1639 20497,1639 20497,11543 11322,11543 Z"/>
 <path fill="none" stroke="rgb(179,179,179)" stroke-linejoin="round" d="M 20497,11542 L 2148,11542"/>
 <path fill="none" stroke="rgb(179,179,179)" stroke-linejoin="round" d="M 20497,10551 L 2148,10551"/>
 <path fill="none" stroke="rgb(179,179,179)" stroke-linejoin="round" d="M 20497,9561 L 2148,9561"/>
 <path fill="none" stroke="rgb(179,179,179)" stroke-linejoin="round" d="M 20497,8570 L 2148,8570"/>
 <path fill="none" stroke="rgb(179,179,179)" stroke-linejoin="round" d="M 20497,7580 L 2148,7580"/>
 <path fill="none" stroke="rgb(179,179,179)" stroke-linejoin="round" d="M 20497,6590 L 2148,6590"/>
 <path fill="none" stroke="rgb(179,179,179)" stroke-linejoin="round" d="M 20497,5600 L 2148,5600"/>
 <path fill="none" stroke="rgb(179,179,179)" stroke-linejoin="round" d="M 20497,4609 L 2148,4609"/>
 <path fill="none" stroke="rgb(179,179,179)" stroke-linejoin="round" d="M 20497,3619 L 2148,3619"/>
 <path fill="none" stroke="rgb(179,179,179)" stroke-linejoin="round" d="M 20497,2628 L 2148,2628"/>
 <path fill="none" stroke="rgb(179,179,179)" stroke-linejoin="round" d="M 20497,1638 L 2148,1638"/>
 <path fill="none" stroke="rgb(179,179,179)" stroke-linejoin="round" d="M 2148,11692 L 2148,11542"/>
 <path fill="none" stroke="rgb(179,179,179)" stroke-linejoin="round" d="M 2148,11692 L 2148,11542"/>
 <path fill="none" stroke="rgb(179,179,179)" stroke-linejoin="round" d="M 3983,11692 L 3983,11542"/>
 <path fill="none" stroke="rgb(179,179,179)" stroke-linejoin="round" d="M 3983,11692 L 3983,11542"/>
 <path fill="none" stroke="rgb(179,179,179)" stroke-linejoin="round" d="M 5818,11692 L 5818,11542"/>
 <path fill="none" stroke="rgb(179,179,179)" stroke-linejoin="round" d="M 5818,11692 L 5818,11542"/>
 <path fill="none" stroke="rgb(179,179,179)" stroke-linejoin="round" d="M 7653,11692 L 7653,11542"/>
 <path fill="none" stroke="rgb(179,179,179)" stroke-linejoin="round" d="M 7653,11692 L 7653,11542"/>
 <path fill="none" stroke="rgb(179,179,179)" stroke-linejoin="round" d="M 9488,11692 L 9488,11542"/>
 <path fill="none" stroke="rgb(179,179,179)" stroke-linejoin="round" d="M 9488,11692 L 9488,11542"/>
 <path fill="none" stroke="rgb(179,179,179)" stroke-linejoin="round" d="M 11322,11692 L 11322,11542"/>
 <path fill="none" stroke="rgb(179,179,179)" stroke-linejoin="round" d="M 11322,11692 L 11322,11542"/>
 <path fill="none" stroke="rgb(179,179,179)" stroke-linejoin="round" d="M 13157,11692 L 13157,11542"/>
 <path fill="none" stroke="rgb(179,179,179)" stroke-linejoin="round" d="M 13157,11692 L 13157,11542"/>
 <path fill="none" stroke="rgb(179,179,179)" stroke-linejoin="round" d="M 14992,11692 L 14992,11542"/>
 <path fill="none" stroke="rgb(179,179,179)" stroke-linejoin="round" d="M 14992,11692 L 14992,11542"/>
 <path fill="none" stroke="rgb(179,179,179)" stroke-linejoin="round" d="M 16827,11692 L 16827,11542"/>
 <path fill="none" stroke="rgb(179,179,179)" stroke-linejoin="round" d="M 16827,11692 L 16827,11542"/>
 <path fill="none" stroke="rgb(179,179,179)" stroke-linejoin="round" d="M 18662,11692 L 18662,11542"/>
 <path fill="none" stroke="rgb(179,179,179)" stroke-linejoin="round" d="M 18662,11692 L 18662,11542"/>
 <path fill="none" stroke="rgb(179,179,179)" stroke-linejoin="round" d="M 20497,11692 L 20497,11542"/>
 <path fill="none" stroke="rgb(179,179,179)" stroke-linejoin="round" d="M 20497,11692 L 20497,11542"/>
 <path fill="none" stroke="rgb(179,179,179)" stroke-linejoin="round" d="M 2148,11542 L 20497,11542"/>
 <path fill="none" stroke="rgb(179,179,179)" stroke-linejoin="round" d="M 1998,11542 L 2148,11542"/>
 <path fill="none" stroke="rgb(179,179,179)" stroke-linejoin="round" d="M 1998,11542 L 2148,11542"/>
 <path fill="none" stroke="rgb(179,179,179)" stroke-linejoin="round" d="M 1998,10551 L 2148,10551"/>
 <path fill="none" stroke="rgb(179,179,179)" stroke-linejoin="round" d="M 1998,10551 L 2148,10551"/>
 <path fill="none" stroke="rgb(179,179,179)" stroke-linejoin="round" d="M 1998,9561 L 2148,9561"/>
 <path fill="none" stroke="rgb(179,179,179)" stroke-linejoin="round" d="M 1998,9561 L 2148,9561"/>
 <path fill="none" stroke="rgb(179,179,179)" stroke-linejoin="round" d="M 1998,8570 L 2148,8570"/>
 <path fill="none" stroke="rgb(179,179,179)" stroke-linejoin="round" d="M 1998,8570 L 2148,8570"/>
 <path fill="none" stroke="rgb(179,179,179)" stroke-linejoin="round" d="M 1998,7580 L 2148,7580"/>
 <path fill="none" stroke="rgb(179,179,179)" stroke-linejoin="round" d="M 1998,7580 L 2148,7580"/>
 <path fill="none" stroke="rgb(179,179,179)" stroke-linejoin="round" d="M 1998,6590 L 2148,6590"/>
 <path fill="none" stroke="rgb(179,179,179)" stroke-linejoin="round" d="M 1998,6590 L 2148,6590"/>
 <path fill="none" stroke="rgb(179,179,179)" stroke-linejoin="round" d="M 1998,5599 L 2148,5599"/>
 <path fill="none" stroke="rgb(179,179,179)" stroke-linejoin="round" d="M 1998,5599 L 2148,5599"/>
 <path fill="none" stroke="rgb(179,179,179)" stroke-linejoin="round" d="M 1998,4609 L 2148,4609"/>
 <path fill="none" stroke="rgb(179,179,179)" stroke-linejoin="round" d="M 1998,4609 L 2148,4609"/>
 <path fill="none" stroke="rgb(179,179,179)" stroke-linejoin="round" d="M 1998,3619 L 2148,3619"/>
 <path fill="none" stroke="rgb(179,179,179)" stroke-linejoin="round" d="M 1998,3619 L 2148,3619"/>
 <path fill="none" stroke="rgb(179,179,179)" stroke-linejoin="round" d="M 1998,2628 L 2148,2628"/>
 <path fill="none" stroke="rgb(179,179,179)" stroke-linejoin="round" d="M 1998,2628 L 2148,2628"/>
 <path fill="none" stroke="rgb(179,179,179)" stroke-linejoin="round" d="M 1998,1638 L 2148,1638"/>
 <path fill="none" stroke="rgb(179,179,179)" stroke-linejoin="round" d="M 1998,1638 L 2148,1638"/>
 <path fill="none" stroke="rgb(179,179,179)" stroke-linejoin="round" d="M 2148,11542 L 2148,1638"/>
 <path fill="rgb(0,69,134)" stroke="none" d="M 3858,7455 L 3858,7705 4108,7705 4108,7455 3858,7455 Z"/>
 <path fill="none" stroke="rgb(0,69,134)" stroke-linejoin="round" d="M 3858,7455 L 3858,7705 4108,7705 4108,7455 3858,7455 Z"/>
 <path fill="rgb(0,69,134)" stroke="none" d="M 7528,6069 L 7528,6319 7778,6319 7778,6069 7528,6069 Z"/>
 <path fill="none" stroke="rgb(0,69,134)" stroke-linejoin="round" d="M 7528,6069 L 7528,6319 7778,6319 7778,6069 7528,6069 Z"/>
 <path fill="rgb(0,69,134)" stroke="none" d="M 11197,5276 L 11197,5526 11447,5526 11447,5276 11197,5276 Z"/>
 <path fill="none" stroke="rgb(0,69,134)" stroke-linejoin="round" d="M 11197,5276 L 11197,5526 11447,5526 11447,5276 11197,5276 Z"/>
 <path fill="rgb(0,69,134)" stroke="none" d="M 14867,3890 L 14867,4140 15117,4140 15117,3890 14867,3890 Z"/>
 <path fill="none" stroke="rgb(0,69,134)" stroke-linejoin="round" d="M 14867,3890 L 14867,4140 15117,4140 15117,3890 14867,3890 Z"/>
 <path fill="rgb(0,69,134)" stroke="none" d="M 18537,2899 L 18537,3149 18787,3149 18787,2899 18537,2899 Z"/>
 <path fill="none" stroke="rgb(0,69,134)" stroke-linejoin="round" d="M 18537,2899 L 18537,3149 18787,3149 18787,2899 18537,2899 Z"/>
 <path fill="none" stroke="rgb(0,69,134)" stroke-linejoin="round" d="M 2148,8065 L 20497,2420"/>
 <text class="SVGTextShape"><tspan class="TextParagraph" font-family="Liberation Sans, sans-serif" font-size="353px" font-weight="400"><tspan class="TextPosition" x="2055" y="12110"><tspan fill="rgb(0,0,0)" stroke="none" style="white-space: pre">3</tspan></tspan></tspan></text>
 <text class="SVGTextShape"><tspan class="TextParagraph" font-family="Liberation Sans, sans-serif" font-size="353px" font-weight="400"><tspan class="TextPosition" x="3890" y="12110"><tspan fill="rgb(0,0,0)" stroke="none" style="white-space: pre">4</tspan></tspan></tspan></text>
 <text class="SVGTextShape"><tspan class="TextParagraph" font-family="Liberation Sans, sans-serif" font-size="353px" font-weight="400"><tspan class="TextPosition" x="5725" y="12110"><tspan fill="rgb(0,0,0)" stroke="none" style="white-space: pre">5</tspan></tspan></tspan></text>
 <text class="SVGTextShape"><tspan class="TextParagraph" font-family="Liberation Sans, sans-serif" font-size="353px" font-weight="400"><tspan class="TextPosition" x="7560" y="12110"><tspan fill="rgb(0,0,0)" stroke="none" style="white-space: pre">6</tspan></tspan></tspan></text>
 <text class="SVGTextShape"><tspan class="TextParagraph" font-family="Liberation Sans, sans-serif" font-size="353px" font-weight="400"><tspan class="TextPosition" x="9395" y="12110"><tspan fill="rgb(0,0,0)" stroke="none" style="white-space: pre">7</tspan></tspan></tspan></text>
 <text class="SVGTextShape"><tspan class="TextParagraph" font-family="Liberation Sans, sans-serif" font-size="353px" font-weight="400"><tspan class="TextPosition" x="11230" y="12110"><tspan fill="rgb(0,0,0)" stroke="none" style="white-space: pre">8</tspan></tspan></tspan></text>
 <text class="SVGTextShape"><tspan class="TextParagraph" font-family="Liberation Sans, sans-serif" font-size="353px" font-weight="400"><tspan class="TextPosition" x="13065" y="12110"><tspan fill="rgb(0,0,0)" stroke="none" style="white-space: pre">9</tspan></tspan></tspan></text>
 <text class="SVGTextShape"><tspan class="TextParagraph" font-family="Liberation Sans, sans-serif" font-size="353px" font-weight="400"><tspan class="TextPosition" x="14808" y="12110"><tspan fill="rgb(0,0,0)" stroke="none" style="white-space: pre">10</tspan></tspan></tspan></text>
 <text class="SVGTextShape"><tspan class="TextParagraph" font-family="Liberation Sans, sans-serif" font-size="353px" font-weight="400"><tspan class="TextPosition" x="16643" y="12110"><tspan fill="rgb(0,0,0)" stroke="none" style="white-space: pre">11</tspan></tspan></tspan></text>
 <text class="SVGTextShape"><tspan class="TextParagraph" font-family="Liberation Sans, sans-serif" font-size="353px" font-weight="400"><tspan class="TextPosition" x="18478" y="12110"><tspan fill="rgb(0,0,0)" stroke="none" style="white-space: pre">12</tspan></tspan></tspan></text>
 <text class="SVGTextShape"><tspan class="TextParagraph" font-family="Liberation Sans, sans-serif" font-size="353px" font-weight="400"><tspan class="TextPosition" x="20313" y="12110"><tspan fill="rgb(0,0,0)" stroke="none" style="white-space: pre">13</tspan></tspan></tspan></text>
 <text class="SVGTextShape"><tspan class="TextParagraph" font-family="Liberation Sans, sans-serif" font-size="353px" font-weight="400"><tspan class="TextPosition" x="1713" y="11663"><tspan fill="rgb(0,0,0)" stroke="none" style="white-space: pre">0</tspan></tspan></tspan></text>
 <text class="SVGTextShape"><tspan class="TextParagraph" font-family="Liberation Sans, sans-serif" font-size="353px" font-weight="400"><tspan class="TextPosition" x="1422" y="10672"><tspan fill="rgb(0,0,0)" stroke="none" style="white-space: pre">0.5</tspan></tspan></tspan></text>
 <text class="SVGTextShape"><tspan class="TextParagraph" font-family="Liberation Sans, sans-serif" font-size="353px" font-weight="400"><tspan class="TextPosition" x="1713" y="9682"><tspan fill="rgb(0,0,0)" stroke="none" style="white-space: pre">1</tspan></tspan></tspan></text>
 <text class="SVGTextShape"><tspan class="TextParagraph" font-family="Liberation Sans, sans-serif" font-size="353px" font-weight="400"><tspan class="TextPosition" x="1422" y="8691"><tspan fill="rgb(0,0,0)" stroke="none" style="white-space: pre">1.5</tspan></tspan></tspan></text>
 <text class="SVGTextShape"><tspan class="TextParagraph" font-family="Liberation Sans, sans-serif" font-size="353px" font-weight="400"><tspan class="TextPosition" x="1713" y="7701"><tspan fill="rgb(0,0,0)" stroke="none" style="white-space: pre">2</tspan></tspan></tspan></text>
 <text class="SVGTextShape"><tspan class="TextParagraph" font-family="Liberation Sans, sans-serif" font-size="353px" font-weight="400"><tspan class="TextPosition" x="1422" y="6710"><tspan fill="rgb(0,0,0)" stroke="none" style="white-space: pre">2.5</tspan></tspan></tspan></text>
 <text class="SVGTextShape"><tspan class="TextParagraph" font-family="Liberation Sans, sans-serif" font-size="353px" font-weight="400"><tspan class="TextPosition" x="1713" y="5719"><tspan fill="rgb(0,0,0)" stroke="none" style="white-space: pre">3</tspan></tspan></tspan></text>
 <text class="SVGTextShape"><tspan class="TextParagraph" font-family="Liberation Sans, sans-serif" font-size="353px" font-weight="400"><tspan class="TextPosition" x="1422" y="4729"><tspan fill="rgb(0,0,0)" stroke="none" style="white-space: pre">3.5</tspan></tspan></tspan></text>
 <text class="SVGTextShape"><tspan class="TextParagraph" font-family="Liberation Sans, sans-serif" font-size="353px" font-weight="400"><tspan class="TextPosition" x="1713" y="3739"><tspan fill="rgb(0,0,0)" stroke="none" style="white-space: pre">4</tspan></tspan></tspan></text>
 <text class="SVGTextShape"><tspan class="TextParagraph" font-family="Liberation Sans, sans-serif" font-size="353px" font-weight="400"><tspan class="TextPosition" x="1422" y="2748"><tspan fill="rgb(0,0,0)" stroke="none" style="white-space: pre">4.5</tspan></tspan></tspan></text>
 <text class="SVGTextShape"><tspan class="TextParagraph" font-family="Liberation Sans, sans-serif" font-size="353px" font-weight="400"><tspan class="TextPosition" x="1713" y="1758"><tspan fill="rgb(0,0,0)" stroke="none" style="white-space: pre">5</tspan></tspan></tspan></text>
 <text class="SVGTextShape"><tspan class="TextParagraph" font-family="Liberation Sans, sans-serif" font-size="353px" font-weight="400"><tspan class="TextPosition" x="2398" y="2863"><tspan fill="rgb(0,0,0)" stroke="none" style="white-space: pre">f(x) = 0.3 x + 0.9</tspan></tspan></tspan></text>
 <text class="SVGTextShape"><tspan class="TextParagraph" font-family="Liberation Sans, sans-serif" font-size="459px" font-weight="400"><tspan class="TextPosition" x="10084" y="927"><tspan fill="rgb(0,0,0)" stroke="none" style="white-space: pre">M(n)</tspan></tspan></tspan></text>
 <text class="SVGTextShape"><tspan class="TextParagraph" font-family="Liberation Sans, sans-serif" font-size="318px" font-weight="400"><tspan class="TextPosition" x="10959" y="12846"><tspan fill="rgb(0,0,0)" stroke="none" style="white-space: pre">n</tspan></tspan></tspan></text>
 <text class="SVGTextShape" transform="rotate(-90 824 7846)"><tspan class="TextParagraph" font-family="Liberation Sans, sans-serif" font-size="318px" font-weight="400"><tspan class="TextPosition" x="824" y="7846"><tspan fill="rgb(0,0,0)" stroke="none" style="white-space: pre">M, Н м * 10^-5</tspan></tspan></tspan></text>
</svg>