<?xml version="1.0" encoding="UTF-8"?>
<!DOCTYPE svg PUBLIC "-//W3C//DTD SVG 1.1//EN" "http://www.w3.org/Graphics/SVG/1.1/DTD/svg11.dtd">
<svg width="163mm" height="99mm" viewBox="0 0 16300 9900" version="1.1" xmlns="http://www.w3.org/2000/svg" xmlns:xlink="http://www.w3.org/1999/xlink" stroke-width="28.222" stroke-linejoin="round" xml:space="preserve">
 <path fill="rgb(255,255,255)" stroke="none" d="M 8123,9883 L -13,9883 -13,-13 16258,-13 16258,9883 8123,9883 Z"/>
 <path fill="none" stroke="rgb(179,179,179)" stroke-linejoin="round" d="M 8898,8058 L 2050,8058 2050,1495 15746,1495 15746,8058 8898,8058 Z"/>
 <path fill="none" stroke="rgb(179,179,179)" stroke-linejoin="round" d="M 15746,8057 L 2050,8057"/>
 <path fill="none" stroke="rgb(179,179,179)" stroke-linejoin="round" d="M 15746,7236 L 2050,7236"/>
 <path fill="none" stroke="rgb(179,179,179)" stroke-linejoin="round" d="M 15746,6416 L 2050,6416"/>
 <path fill="none" stroke="rgb(179,179,179)" stroke-linejoin="round" d="M 15746,5595 L 2050,5595"/>
 <path fill="none" stroke="rgb(179,179,179)" stroke-linejoin="round" d="M 15746,4776 L 2050,4776"/>
 <path fill="none" stroke="rgb(179,179,179)" stroke-linejoin="round" d="M 15746,3955 L 2050,3955"/>
 <path fill="none" stroke="rgb(179,179,179)" stroke-linejoin="round" d="M 15746,3135 L 2050,3135"/>
 <path fill="none" stroke="rgb(179,179,179)" stroke-linejoin="round" d="M 15746,2314 L 2050,2314"/>
 <path fill="none" stroke="rgb(179,179,179)" stroke-linejoin="round" d="M 15746,1494 L 2050,1494"/>
 <path fill="none" stroke="rgb(179,179,179)" stroke-linejoin="round" d="M 2050,8207 L 2050,8057"/>
 <path fill="none" stroke="rgb(179,179,179)" stroke-linejoin="round" d="M 2050,8207 L 2050,8057"/>
 <path fill="none" stroke="rgb(179,179,179)" stroke-linejoin="round" d="M 4332,8207 L 4332,8057"/>
 <path fill="none" stroke="rgb(179,179,179)" stroke-linejoin="round" d="M 4332,8207 L 4332,8057"/>
 <path fill="none" stroke="rgb(179,179,179)" stroke-linejoin="round" d="M 6615,8207 L 6615,8057"/>
 <path fill="none" stroke="rgb(179,179,179)" stroke-linejoin="round" d="M 6615,8207 L 6615,8057"/>
 <path fill="none" stroke="rgb(179,179,179)" stroke-linejoin="round" d="M 8897,8207 L 8897,8057"/>
 <path fill="none" stroke="rgb(179,179,179)" stroke-linejoin="round" d="M 8897,8207 L 8897,8057"/>
 <path fill="none" stroke="rgb(179,179,179)" stroke-linejoin="round" d="M 11180,8207 L 11180,8057"/>
 <path fill="none" stroke="rgb(179,179,179)" stroke-linejoin="round" d="M 11180,8207 L 11180,8057"/>
 <path fill="none" stroke="rgb(179,179,179)" stroke-linejoin="round" d="M 13463,8207 L 13463,8057"/>
 <path fill="none" stroke="rgb(179,179,179)" stroke-linejoin="round" d="M 13463,8207 L 13463,8057"/>
 <path fill="none" stroke="rgb(179,179,179)" stroke-linejoin="round" d="M 15746,8207 L 15746,8057"/>
 <path fill="none" stroke="rgb(179,179,179)" stroke-linejoin="round" d="M 15746,8207 L 15746,8057"/>
 <path fill="none" stroke="rgb(179,179,179)" stroke-linejoin="round" d="M 2050,8057 L 15746,8057"/>
 <path fill="none" stroke="rgb(179,179,179)" stroke-linejoin="round" d="M 1900,8057 L 2050,8057"/>
 <path fill="none" stroke="rgb(179,179,179)" stroke-linejoin="round" d="M 1900,8057 L 2050,8057"/>
 <path fill="none" stroke="rgb(179,179,179)" stroke-linejoin="round" d="M 1900,7236 L 2050,7236"/>
 <path fill="none" stroke="rgb(179,179,179)" stroke-linejoin="round" d="M 1900,7236 L 2050,7236"/>
 <path fill="none" stroke="rgb(179,179,179)" stroke-linejoin="round" d="M 1900,6416 L 2050,6416"/>
 <path fill="none" stroke="rgb(179,179,179)" stroke-linejoin="round" d="M 1900,6416 L 2050,6416"/>
 <path fill="none" stroke="rgb(179,179,179)" stroke-linejoin="round" d="M 1900,5595 L 2050,5595"/>
 <path fill="none" stroke="rgb(179,179,179)" stroke-linejoin="round" d="M 1900,5595 L 2050,5595"/>
 <path fill="none" stroke="rgb(179,179,179)" stroke-linejoin="round" d="M 1900,4776 L 2050,4776"/>
 <path fill="none" stroke="rgb(179,179,179)" stroke-linejoin="round" d="M 1900,4776 L 2050,4776"/>
 <path fill="none" stroke="rgb(179,179,179)" stroke-linejoin="round" d="M 1900,3955 L 2050,3955"/>
 <path fill="none" stroke="rgb(179,179,179)" stroke-linejoin="round" d="M 1900,3955 L 2050,3955"/>
 <path fill="none" stroke="rgb(179,179,179)" stroke-linejoin="round" d="M 1900,3135 L 2050,3135"/>
 <path fill="none" stroke="rgb(179,179,179)" stroke-linejoin="round" d="M 1900,3135 L 2050,3135"/>
 <path fill="none" stroke="rgb(179,179,179)" stroke-linejoin="round" d="M 1900,2314 L 2050,2314"/>
 <path fill="none" stroke="rgb(179,179,179)" stroke-linejoin="round" d="M 1900,2314 L 2050,2314"/>
 <path fill="none" stroke="rgb(179,179,179)" stroke-linejoin="round" d="M 1900,1494 L 2050,1494"/>
 <path fill="none" stroke="rgb(179,179,179)" stroke-linejoin="round" d="M 1900,1494 L 2050,1494"/>
 <path fill="none" stroke="rgb(179,179,179)" stroke-linejoin="round" d="M 2050,8057 L 2050,1494"/>
 <path fill="rgb(0,69,134)" stroke="none" d="M 3066,6619 L 3066,6869 3316,6869 3316,6619 3066,6619 Z"/>
 <path fill="none" stroke="rgb(0,69,134)" stroke-linejoin="round" d="M 3066,6619 L 3066,6869 3316,6869 3316,6619 3066,6619 Z"/>
 <path fill="rgb(0,69,134)" stroke="none" d="M 4207,6061 L 4207,6311 4457,6311 4457,6061 4207,6061 Z"/>
 <path fill="none" stroke="rgb(0,69,134)" stroke-linejoin="round" d="M 4207,6061 L 4207,6311 4457,6311 4457,6061 4207,6061 Z"/>
 <path fill="rgb(0,69,134)" stroke="none" d="M 5349,5798 L 5349,6048 5599,6048 5599,5798 5349,5798 Z"/>
 <path fill="none" stroke="rgb(0,69,134)" stroke-linejoin="round" d="M 5349,5798 L 5349,6048 5599,6048 5599,5798 5349,5798 Z"/>
 <path fill="rgb(0,69,134)" stroke="none" d="M 6490,5142 L 6490,5392 6740,5392 6740,5142 6490,5142 Z"/>
 <path fill="none" stroke="rgb(0,69,134)" stroke-linejoin="round" d="M 6490,5142 L 6490,5392 6740,5392 6740,5142 6490,5142 Z"/>
 <path fill="rgb(0,69,134)" stroke="none" d="M 7632,4486 L 7632,4736 7882,4736 7882,4486 7632,4486 Z"/>
 <path fill="none" stroke="rgb(0,69,134)" stroke-linejoin="round" d="M 7632,4486 L 7632,4736 7882,4736 7882,4486 7632,4486 Z"/>
 <path fill="rgb(0,69,134)" stroke="none" d="M 8772,3994 L 8772,4244 9022,4244 9022,3994 8772,3994 Z"/>
 <path fill="none" stroke="rgb(0,69,134)" stroke-linejoin="round" d="M 8772,3994 L 8772,4244 9022,4244 9022,3994 8772,3994 Z"/>
 <path fill="rgb(0,69,134)" stroke="none" d="M 9913,3371 L 9913,3621 10163,3621 10163,3371 9913,3371 Z"/>
 <path fill="none" stroke="rgb(0,69,134)" stroke-linejoin="round" d="M 9913,3371 L 9913,3621 10163,3621 10163,3371 9913,3371 Z"/>
 <path fill="rgb(0,69,134)" stroke="none" d="M 11055,3042 L 11055,3292 11305,3292 11305,3042 11055,3042 Z"/>
 <path fill="none" stroke="rgb(0,69,134)" stroke-linejoin="round" d="M 11055,3042 L 11055,3292 11305,3292 11305,3042 11055,3042 Z"/>
 <path fill="rgb(0,69,134)" stroke="none" d="M 12196,2681 L 12196,2931 12446,2931 12446,2681 12196,2681 Z"/>
 <path fill="none" stroke="rgb(0,69,134)" stroke-linejoin="round" d="M 12196,2681 L 12196,2931 12446,2931 12446,2681 12196,2681 Z"/>
 <path fill="rgb(0,69,134)" stroke="none" d="M 13338,1959 L 13338,2209 13588,2209 13588,1959 13338,1959 Z"/>
 <path fill="none" stroke="rgb(0,69,134)" stroke-linejoin="round" d="M 13338,1959 L 13338,2209 13588,2209 13588,1959 13338,1959 Z"/>
 <path fill="none" stroke="rgb(0,69,134)" stroke-linejoin="round" d="M 2050,7280 L 14841,1494"/>
 <text class="SVGTextShape"><tspan class="TextParagraph" font-family="Liberation Sans, sans-serif" font-size="353px" font-weight="400"><tspan class="TextPosition" x="1957" y="8625"><tspan fill="rgb(0,0,0)" stroke="none" style="white-space: pre">2</tspan></tspan></tspan></text>
 <text class="SVGTextShape"><tspan class="TextParagraph" font-family="Liberation Sans, sans-serif" font-size="353px" font-weight="400"><tspan class="TextPosition" x="4239" y="8625"><tspan fill="rgb(0,0,0)" stroke="none" style="white-space: pre">4</tspan></tspan></tspan></text>
 <text class="SVGTextShape"><tspan class="TextParagraph" font-family="Liberation Sans, sans-serif" font-size="353px" font-weight="400"><tspan class="TextPosition" x="6522" y="8625"><tspan fill="rgb(0,0,0)" stroke="none" style="white-space: pre">6</tspan></tspan></tspan></text>
 <text class="SVGTextShape"><tspan class="TextParagraph" font-family="Liberation Sans, sans-serif" font-size="353px" font-weight="400"><tspan class="TextPosition" x="8805" y="8625"><tspan fill="rgb(0,0,0)" stroke="none" style="white-space: pre">8</tspan></tspan></tspan></text>
 <text class="SVGTextShape"><tspan class="TextParagraph" font-family="Liberation Sans, sans-serif" font-size="353px" font-weight="400"><tspan class="TextPosition" x="10996" y="8625"><tspan fill="rgb(0,0,0)" stroke="none" style="white-space: pre">10</tspan></tspan></tspan></text>
 <text class="SVGTextShape"><tspan class="TextParagraph" font-family="Liberation Sans, sans-serif" font-size="353px" font-weight="400"><tspan class="TextPosition" x="13279" y="8625"><tspan fill="rgb(0,0,0)" stroke="none" style="white-space: pre">12</tspan></tspan></tspan></text>
 <text class="SVGTextShape"><tspan class="TextParagraph" font-family="Liberation Sans, sans-serif" font-size="353px" font-weight="400"><tspan class="TextPosition" x="15562" y="8625"><tspan fill="rgb(0,0,0)" stroke="none" style="white-space: pre">14</tspan></tspan></tspan></text>
 <text class="SVGTextShape"><tspan class="TextParagraph" font-family="Liberation Sans, sans-serif" font-size="353px" font-weight="400"><tspan class="TextPosition" x="1615" y="8178"><tspan fill="rgb(0,0,0)" stroke="none" style="white-space: pre">0</tspan></tspan></tspan></text>
 <text class="SVGTextShape"><tspan class="TextParagraph" font-family="Liberation Sans, sans-serif" font-size="353px" font-weight="400"><tspan class="TextPosition" x="1324" y="7357"><tspan fill="rgb(0,0,0)" stroke="none" style="white-space: pre">0.5</tspan></tspan></tspan></text>
 <text class="SVGTextShape"><tspan class="TextParagraph" font-family="Liberation Sans, sans-serif" font-size="353px" font-weight="400"><tspan class="TextPosition" x="1615" y="6537"><tspan fill="rgb(0,0,0)" stroke="none" style="white-space: pre">1</tspan></tspan></tspan></text>
 <text class="SVGTextShape"><tspan class="TextParagraph" font-family="Liberation Sans, sans-serif" font-size="353px" font-weight="400"><tspan class="TextPosition" x="1324" y="5716"><tspan fill="rgb(0,0,0)" stroke="none" style="white-space: pre">1.5</tspan></tspan></tspan></text>
 <text class="SVGTextShape"><tspan class="TextParagraph" font-family="Liberation Sans, sans-serif" font-size="353px" font-weight="400"><tspan class="TextPosition" x="1615" y="4896"><tspan fill="rgb(0,0,0)" stroke="none" style="white-space: pre">2</tspan></tspan></tspan></text>
 <text class="SVGTextShape"><tspan class="TextParagraph" font-family="Liberation Sans, sans-serif" font-size="353px" font-weight="400"><tspan class="TextPosition" x="1324" y="4075"><tspan fill="rgb(0,0,0)" stroke="none" style="white-space: pre">2.5</tspan></tspan></tspan></text>
 <text class="SVGTextShape"><tspan class="TextParagraph" font-family="Liberation Sans, sans-serif" font-size="353px" font-weight="400"><tspan class="TextPosition" x="1615" y="3255"><tspan fill="rgb(0,0,0)" stroke="none" style="white-space: pre">3</tspan></tspan></tspan></text>
 <text class="SVGTextShape"><tspan class="TextParagraph" font-family="Liberation Sans, sans-serif" font-size="353px" font-weight="400"><tspan class="TextPosition" x="1324" y="2434"><tspan fill="rgb(0,0,0)" stroke="none" style="white-space: pre">3.5</tspan></tspan></tspan></text>
 <text class="SVGTextShape"><tspan class="TextParagraph" font-family="Liberation Sans, sans-serif" font-size="353px" font-weight="400"><tspan class="TextPosition" x="1615" y="1614"><tspan fill="rgb(0,0,0)" stroke="none" style="white-space: pre">4</tspan></tspan></tspan></text>
 <text class="SVGTextShape"><tspan class="TextParagraph" font-family="Liberation Sans, sans-serif" font-size="353px" font-weight="400"><tspan class="TextPosition" x="2300" y="1937"><tspan fill="rgb(0,0,0)" stroke="none" style="white-space: pre">f(x) = 0.31 x − 0.16</tspan></tspan></tspan></text>
 <text class="SVGTextShape"><tspan class="TextParagraph" font-family="Liberation Sans, sans-serif" font-size="459px" font-weight="400"><tspan class="TextPosition" x="7713" y="855"><tspan fill="rgb(0,0,0)" stroke="none" style="white-space: pre">T(n)</tspan></tspan></tspan></text>
 <text class="SVGTextShape"><tspan class="TextParagraph" font-family="Liberation Sans, sans-serif" font-size="318px" font-weight="400"><tspan class="TextPosition" x="8535" y="9289"><tspan fill="rgb(0,0,0)" stroke="none" style="white-space: pre">n</tspan></tspan></tspan></text>
 <text class="SVGTextShape" transform="rotate(-90 824 5252)"><tspan class="TextParagraph" font-family="Liberation Sans, sans-serif" font-size="318px" font-weight="400"><tspan class="TextPosition" x="824" y="5252"><tspan fill="rgb(0,0,0)" stroke="none" style="white-space: pre">T, c</tspan></tspan></tspan></text>
</svg>