<?xml version="1.0" encoding="UTF-8" standalone="no"?>
<svg
   width="160mm"
   height="90mm"
   viewBox="0 0 16000 9000"
   version="1.1"
   stroke-width="28.222"
   stroke-linejoin="round"
   xml:space="preserve"
   id="svg444"
   sodipodi:docname="Yn(m)-wb.svg"
   inkscape:version="1.1.2 (0a00cf5339, 2022-02-04)"
   xmlns:inkscape="http://www.inkscape.org/namespaces/inkscape"
   xmlns:sodipodi="http://sodipodi.sourceforge.net/DTD/sodipodi-0.dtd"
   xmlns="http://www.w3.org/2000/svg"
   xmlns:svg="http://www.w3.org/2000/svg"><defs
   id="defs448" /><sodipodi:namedview
   id="namedview446"
   pagecolor="#ffffff"
   bordercolor="#666666"
   borderopacity="1.0"
   inkscape:pageshadow="2"
   inkscape:pageopacity="0.0"
   inkscape:pagecheckerboard="0"
   inkscape:document-units="mm"
   showgrid="false"
   inkscape:zoom="2.3481771"
   inkscape:cx="302.57514"
   inkscape:cy="169.91904"
   inkscape:window-width="2560"
   inkscape:window-height="1375"
   inkscape:window-x="0"
   inkscape:window-y="0"
   inkscape:window-maximized="1"
   inkscape:current-layer="svg444" />
 <path
   fill="rgb(255,255,255)"
   stroke="none"
   d="M 7985,8976 L -13,8976 -13,-13 15982,-13 15982,8976 7985,8976 Z"
   id="path2" />
 <path
   fill="none"
   stroke="rgb(179,179,179)"
   stroke-linejoin="round"
   d="M 8120,8415 L 745,8415 745,279 15495,279 15495,8415 8120,8415 Z"
   id="path4" />
 <path
   fill="none"
   stroke="rgb(179,179,179)"
   stroke-linejoin="round"
   d="M 15495,8414 L 745,8414"
   id="path6" />
 <path
   fill="none"
   stroke="rgb(179,179,179)"
   stroke-linejoin="round"
   d="M 15495,7251 L 745,7251"
   id="path8" />
 <path
   fill="none"
   stroke="rgb(179,179,179)"
   stroke-linejoin="round"
   d="M 15495,6089 L 745,6089"
   id="path10" />
 <path
   fill="none"
   stroke="rgb(179,179,179)"
   stroke-linejoin="round"
   d="M 15495,4927 L 745,4927"
   id="path12" />
 <path
   fill="none"
   stroke="rgb(179,179,179)"
   stroke-linejoin="round"
   d="M 15495,3764 L 745,3764"
   id="path14" />
 <path
   fill="none"
   stroke="rgb(179,179,179)"
   stroke-linejoin="round"
   d="M 15495,2602 L 745,2602"
   id="path16" />
 <path
   fill="none"
   stroke="rgb(179,179,179)"
   stroke-linejoin="round"
   d="M 15495,1440 L 745,1440"
   id="path18" />
 <path
   fill="none"
   stroke="rgb(179,179,179)"
   stroke-linejoin="round"
   d="M 15495,277 L 745,277"
   id="path20" />
 <path
   fill="none"
   stroke="rgb(179,179,179)"
   stroke-linejoin="round"
   d="M 745,3914 L 745,3764"
   id="path22" />
 <path
   fill="none"
   stroke="rgb(179,179,179)"
   stroke-linejoin="round"
   d="M 745,3914 L 745,3764"
   id="path24" />
 <path
   fill="none"
   stroke="rgb(179,179,179)"
   stroke-linejoin="round"
   d="M 3203,3914 L 3203,3764"
   id="path26" />
 <path
   fill="none"
   stroke="rgb(179,179,179)"
   stroke-linejoin="round"
   d="M 3203,3914 L 3203,3764"
   id="path28" />
 <path
   fill="none"
   stroke="rgb(179,179,179)"
   stroke-linejoin="round"
   d="M 5662,3914 L 5662,3764"
   id="path30" />
 <path
   fill="none"
   stroke="rgb(179,179,179)"
   stroke-linejoin="round"
   d="M 5662,3914 L 5662,3764"
   id="path32" />
 <path
   fill="none"
   stroke="rgb(179,179,179)"
   stroke-linejoin="round"
   d="M 8119,3914 L 8119,3764"
   id="path34" />
 <path
   fill="none"
   stroke="rgb(179,179,179)"
   stroke-linejoin="round"
   d="M 8119,3914 L 8119,3764"
   id="path36" />
 <path
   fill="none"
   stroke="rgb(179,179,179)"
   stroke-linejoin="round"
   d="M 10578,3914 L 10578,3764"
   id="path38" />
 <path
   fill="none"
   stroke="rgb(179,179,179)"
   stroke-linejoin="round"
   d="M 10578,3914 L 10578,3764"
   id="path40" />
 <path
   fill="none"
   stroke="rgb(179,179,179)"
   stroke-linejoin="round"
   d="M 13036,3914 L 13036,3764"
   id="path42" />
 <path
   fill="none"
   stroke="rgb(179,179,179)"
   stroke-linejoin="round"
   d="M 13036,3914 L 13036,3764"
   id="path44" />
 <path
   fill="none"
   stroke="rgb(179,179,179)"
   stroke-linejoin="round"
   d="M 15495,3914 L 15495,3764"
   id="path46" />
 <path
   fill="none"
   stroke="rgb(179,179,179)"
   stroke-linejoin="round"
   d="M 15495,3914 L 15495,3764"
   id="path48" />
 <path
   fill="none"
   stroke="rgb(179,179,179)"
   stroke-linejoin="round"
   d="M 745,3764 L 15495,3764"
   id="path50" />
 <path
   fill="none"
   stroke="rgb(179,179,179)"
   stroke-linejoin="round"
   d="M 10428,8414 L 10578,8414"
   id="path52" />
 <path
   fill="none"
   stroke="rgb(179,179,179)"
   stroke-linejoin="round"
   d="M 10428,8414 L 10578,8414"
   id="path54" />
 <path
   fill="none"
   stroke="rgb(179,179,179)"
   stroke-linejoin="round"
   d="M 10428,7251 L 10578,7251"
   id="path56" />
 <path
   fill="none"
   stroke="rgb(179,179,179)"
   stroke-linejoin="round"
   d="M 10428,7251 L 10578,7251"
   id="path58" />
 <path
   fill="none"
   stroke="rgb(179,179,179)"
   stroke-linejoin="round"
   d="M 10428,6089 L 10578,6089"
   id="path60" />
 <path
   fill="none"
   stroke="rgb(179,179,179)"
   stroke-linejoin="round"
   d="M 10428,6089 L 10578,6089"
   id="path62" />
 <path
   fill="none"
   stroke="rgb(179,179,179)"
   stroke-linejoin="round"
   d="M 10428,4927 L 10578,4927"
   id="path64" />
 <path
   fill="none"
   stroke="rgb(179,179,179)"
   stroke-linejoin="round"
   d="M 10428,4927 L 10578,4927"
   id="path66" />
 <path
   fill="none"
   stroke="rgb(179,179,179)"
   stroke-linejoin="round"
   d="M 10428,3764 L 10578,3764"
   id="path68" />
 <path
   fill="none"
   stroke="rgb(179,179,179)"
   stroke-linejoin="round"
   d="M 10428,3764 L 10578,3764"
   id="path70" />
 <path
   fill="none"
   stroke="rgb(179,179,179)"
   stroke-linejoin="round"
   d="M 10428,2602 L 10578,2602"
   id="path72" />
 <path
   fill="none"
   stroke="rgb(179,179,179)"
   stroke-linejoin="round"
   d="M 10428,2602 L 10578,2602"
   id="path74" />
 <path
   fill="none"
   stroke="rgb(179,179,179)"
   stroke-linejoin="round"
   d="M 10428,1440 L 10578,1440"
   id="path76" />
 <path
   fill="none"
   stroke="rgb(179,179,179)"
   stroke-linejoin="round"
   d="M 10428,1440 L 10578,1440"
   id="path78" />
 <path
   fill="none"
   stroke="rgb(179,179,179)"
   stroke-linejoin="round"
   d="M 10428,278 L 10578,278"
   id="path80" />
 <path
   fill="none"
   stroke="rgb(179,179,179)"
   stroke-linejoin="round"
   d="M 10428,278 L 10578,278"
   id="path82" />
 <path
   fill="none"
   stroke="rgb(179,179,179)"
   stroke-linejoin="round"
   d="M 10578,8414 L 10578,277"
   id="path84" />
 <path
   fill="none"
   stroke="rgb(0,0,0)"
   stroke-width="80"
   stroke-linejoin="round"
   d="M 6891,4578 L 8119,4346 9348,3997 10578,3764 11807,3183 13036,2950 14265,2369"
   id="path86" />
 <path
   fill="rgb(0,0,0)"
   stroke="none"
   d="M 6766,4703 L 7016,4703 6891,4453 6766,4703 Z"
   id="path88" />
 <path
   fill="none"
   stroke="rgb(0,0,0)"
   stroke-linejoin="round"
   d="M 6766,4703 L 7016,4703 6891,4453 6766,4703 Z"
   id="path90" />
 <path
   fill="rgb(0,0,0)"
   stroke="none"
   d="M 7994,4471 L 8244,4471 8119,4221 7994,4471 Z"
   id="path92" />
 <path
   fill="none"
   stroke="rgb(0,0,0)"
   stroke-linejoin="round"
   d="M 7994,4471 L 8244,4471 8119,4221 7994,4471 Z"
   id="path94" />
 <path
   fill="rgb(0,0,0)"
   stroke="none"
   d="M 9223,4122 L 9473,4122 9348,3872 9223,4122 Z"
   id="path96" />
 <path
   fill="none"
   stroke="rgb(0,0,0)"
   stroke-linejoin="round"
   d="M 9223,4122 L 9473,4122 9348,3872 9223,4122 Z"
   id="path98" />
 <path
   fill="rgb(0,0,0)"
   stroke="none"
   d="M 10453,3889 L 10703,3889 10578,3639 10453,3889 Z"
   id="path100" />
 <path
   fill="none"
   stroke="rgb(0,0,0)"
   stroke-linejoin="round"
   d="M 10453,3889 L 10703,3889 10578,3639 10453,3889 Z"
   id="path102" />
 <path
   fill="rgb(0,0,0)"
   stroke="none"
   d="M 11682,3308 L 11932,3308 11807,3058 11682,3308 Z"
   id="path104" />
 <path
   fill="none"
   stroke="rgb(0,0,0)"
   stroke-linejoin="round"
   d="M 11682,3308 L 11932,3308 11807,3058 11682,3308 Z"
   id="path106" />
 <path
   fill="rgb(0,0,0)"
   stroke="none"
   d="M 12911,3075 L 13161,3075 13036,2825 12911,3075 Z"
   id="path108" />
 <path
   fill="none"
   stroke="rgb(0,0,0)"
   stroke-linejoin="round"
   d="M 12911,3075 L 13161,3075 13036,2825 12911,3075 Z"
   id="path110" />
 <path
   fill="rgb(0,0,0)"
   stroke="none"
   d="M 14140,2494 L 14390,2494 14265,2244 14140,2494 Z"
   id="path112" />
 <path
   fill="none"
   stroke="rgb(0,0,0)"
   stroke-linejoin="round"
   d="M 14140,2494 L 14390,2494 14265,2244 14140,2494 Z"
   id="path114" />
 <path
   fill="none"
   stroke="rgb(0,0,0)"
   stroke-width="80"
   stroke-linejoin="round"
   d="M 8119,5217 L 9348,4229 10578,3764 11807,2950 13036,2369 14265,1789"
   id="path116" />
 <path
   fill="rgb(0,0,0)"
   stroke="none"
   d="M 7994,5092 L 8119,5342 8244,5092 7994,5092 Z"
   id="path118" />
 <path
   fill="none"
   stroke="rgb(0,0,0)"
   stroke-linejoin="round"
   d="M 7994,5092 L 8119,5342 8244,5092 7994,5092 Z"
   id="path120" />
 <path
   fill="rgb(0,0,0)"
   stroke="none"
   d="M 9223,4104 L 9348,4354 9473,4104 9223,4104 Z"
   id="path122" />
 <path
   fill="none"
   stroke="rgb(0,0,0)"
   stroke-linejoin="round"
   d="M 9223,4104 L 9348,4354 9473,4104 9223,4104 Z"
   id="path124" />
 <path
   fill="rgb(0,0,0)"
   stroke="none"
   d="M 10453,3639 L 10578,3889 10703,3639 10453,3639 Z"
   id="path126" />
 <path
   fill="none"
   stroke="rgb(0,0,0)"
   stroke-linejoin="round"
   d="M 10453,3639 L 10578,3889 10703,3639 10453,3639 Z"
   id="path128" />
 <path
   fill="rgb(0,0,0)"
   stroke="none"
   d="M 11682,2825 L 11807,3075 11932,2825 11682,2825 Z"
   id="path130" />
 <path
   fill="none"
   stroke="rgb(0,0,0)"
   stroke-linejoin="round"
   d="M 11682,2825 L 11807,3075 11932,2825 11682,2825 Z"
   id="path132" />
 <path
   fill="rgb(0,0,0)"
   stroke="none"
   d="M 12911,2244 L 13036,2494 13161,2244 12911,2244 Z"
   id="path134" />
 <path
   fill="none"
   stroke="rgb(0,0,0)"
   stroke-linejoin="round"
   d="M 12911,2244 L 13036,2494 13161,2244 12911,2244 Z"
   id="path136" />
 <path
   fill="rgb(0,0,0)"
   stroke="none"
   d="M 14140,1664 L 14265,1914 14390,1664 14140,1664 Z"
   id="path138" />
 <path
   fill="none"
   stroke="rgb(0,0,0)"
   stroke-linejoin="round"
   d="M 14140,1664 L 14265,1914 14390,1664 14140,1664 Z"
   id="path140" />
 <path
   fill="none"
   stroke="rgb(0,0,0)"
   stroke-width="80"
   stroke-linejoin="round"
   d="M 6891,5043 L 8119,4462 9348,4113 10578,3764 11807,2718 13036,2138 14265,1556"
   id="path142" />
 <path
   fill="rgb(0,0,0)"
   stroke="none"
   d="M 6766,5043 L 6891,5168 7016,5043 6891,4918 6766,5043 Z"
   id="path144" />
 <path
   fill="none"
   stroke="rgb(0,0,0)"
   stroke-linejoin="round"
   d="M 6766,5043 L 6891,5168 7016,5043 6891,4918 6766,5043 Z"
   id="path146" />
 <path
   fill="rgb(0,0,0)"
   stroke="none"
   d="M 7994,4462 L 8119,4587 8244,4462 8119,4337 7994,4462 Z"
   id="path148" />
 <path
   fill="none"
   stroke="rgb(0,0,0)"
   stroke-linejoin="round"
   d="M 7994,4462 L 8119,4587 8244,4462 8119,4337 7994,4462 Z"
   id="path150" />
 <path
   fill="rgb(0,0,0)"
   stroke="none"
   d="M 9223,4113 L 9348,4238 9473,4113 9348,3988 9223,4113 Z"
   id="path152" />
 <path
   fill="none"
   stroke="rgb(0,0,0)"
   stroke-linejoin="round"
   d="M 9223,4113 L 9348,4238 9473,4113 9348,3988 9223,4113 Z"
   id="path154" />
 <path
   fill="rgb(0,0,0)"
   stroke="none"
   d="M 10453,3764 L 10578,3889 10703,3764 10578,3639 10453,3764 Z"
   id="path156" />
 <path
   fill="none"
   stroke="rgb(0,0,0)"
   stroke-linejoin="round"
   d="M 10453,3764 L 10578,3889 10703,3764 10578,3639 10453,3764 Z"
   id="path158" />
 <path
   fill="rgb(0,0,0)"
   stroke="none"
   d="M 11682,2718 L 11807,2843 11932,2718 11807,2593 11682,2718 Z"
   id="path160" />
 <path
   fill="none"
   stroke="rgb(0,0,0)"
   stroke-linejoin="round"
   d="M 11682,2718 L 11807,2843 11932,2718 11807,2593 11682,2718 Z"
   id="path162" />
 <path
   fill="rgb(0,0,0)"
   stroke="none"
   d="M 12911,2138 L 13036,2262 13161,2138 13036,2013 12911,2138 Z"
   id="path164" />
 <path
   fill="none"
   stroke="rgb(0,0,0)"
   stroke-linejoin="round"
   d="M 12911,2138 L 13036,2262 13161,2138 13036,2013 12911,2138 Z"
   id="path166" />
 <path
   fill="rgb(0,0,0)"
   stroke="none"
   d="M 14140,1556 L 14265,1681 14390,1556 14265,1431 14140,1556 Z"
   id="path168" />
 <path
   fill="none"
   stroke="rgb(0,0,0)"
   stroke-linejoin="round"
   d="M 14140,1556 L 14265,1681 14390,1556 14265,1431 14140,1556 Z"
   id="path170" />
 <path
   fill="none"
   stroke="rgb(0,0,0)"
   stroke-width="80"
   stroke-linejoin="round"
   d="M 5662,5043 L 6891,4811 8119,4346 9348,4113 10578,3764 11807,3183 13036,2950 14265,2602"
   id="path172" />
 <path
   fill="rgb(0,0,0)"
   stroke="none"
   d="M 5537,4918 L 5537,5168 5787,5043 5537,4918 Z"
   id="path174" />
 <path
   fill="none"
   stroke="rgb(0,0,0)"
   stroke-linejoin="round"
   d="M 5537,4918 L 5537,5168 5787,5043 5537,4918 Z"
   id="path176" />
 <path
   fill="rgb(0,0,0)"
   stroke="none"
   d="M 6766,4686 L 6766,4936 7016,4811 6766,4686 Z"
   id="path178" />
 <path
   fill="none"
   stroke="rgb(0,0,0)"
   stroke-linejoin="round"
   d="M 6766,4686 L 6766,4936 7016,4811 6766,4686 Z"
   id="path180" />
 <path
   fill="rgb(0,0,0)"
   stroke="none"
   d="M 7994,4221 L 7994,4471 8244,4346 7994,4221 Z"
   id="path182" />
 <path
   fill="none"
   stroke="rgb(0,0,0)"
   stroke-linejoin="round"
   d="M 7994,4221 L 7994,4471 8244,4346 7994,4221 Z"
   id="path184" />
 <path
   fill="rgb(0,0,0)"
   stroke="none"
   d="M 9223,3988 L 9223,4238 9473,4113 9223,3988 Z"
   id="path186" />
 <path
   fill="none"
   stroke="rgb(0,0,0)"
   stroke-linejoin="round"
   d="M 9223,3988 L 9223,4238 9473,4113 9223,3988 Z"
   id="path188" />
 <path
   fill="rgb(0,0,0)"
   stroke="none"
   d="M 10453,3639 L 10453,3889 10703,3764 10453,3639 Z"
   id="path190" />
 <path
   fill="none"
   stroke="rgb(0,0,0)"
   stroke-linejoin="round"
   d="M 10453,3639 L 10453,3889 10703,3764 10453,3639 Z"
   id="path192" />
 <path
   fill="rgb(0,0,0)"
   stroke="none"
   d="M 11682,3058 L 11682,3308 11932,3183 11682,3058 Z"
   id="path194" />
 <path
   fill="none"
   stroke="rgb(0,0,0)"
   stroke-linejoin="round"
   d="M 11682,3058 L 11682,3308 11932,3183 11682,3058 Z"
   id="path196" />
 <path
   fill="rgb(0,0,0)"
   stroke="none"
   d="M 12911,2825 L 12911,3075 13161,2950 12911,2825 Z"
   id="path198" />
 <path
   fill="none"
   stroke="rgb(0,0,0)"
   stroke-linejoin="round"
   d="M 12911,2825 L 12911,3075 13161,2950 12911,2825 Z"
   id="path200" />
 <path
   fill="rgb(0,0,0)"
   stroke="none"
   d="M 14140,2477 L 14140,2727 14390,2602 14140,2477 Z"
   id="path202" />
 <path
   fill="none"
   stroke="rgb(0,0,0)"
   stroke-linejoin="round"
   d="M 14140,2477 L 14140,2727 14390,2602 14140,2477 Z"
   id="path204" />
 <path
   fill="none"
   stroke="rgb(0,0,0)"
   stroke-width="80"
   stroke-linejoin="round"
   d="M 1974,7367 L 3203,6786 4432,6182 5662,6089 6891,5741 8119,5043 9348,4346 10578,3764 11807,2950 13036,2138"
   id="path206" />
 <path
   fill="rgb(0,0,0)"
   stroke="none"
   d="M 1849,7242 L 1849,7492 2099,7492 2099,7242 1849,7242 Z"
   id="path208" />
 <path
   fill="none"
   stroke="rgb(0,0,0)"
   stroke-linejoin="round"
   d="M 1849,7242 L 1849,7492 2099,7492 2099,7242 1849,7242 Z"
   id="path210" />
 <path
   fill="rgb(0,0,0)"
   stroke="none"
   d="M 3078,6662 L 3078,6911 3328,6911 3328,6662 3078,6662 Z"
   id="path212" />
 <path
   fill="none"
   stroke="rgb(0,0,0)"
   stroke-linejoin="round"
   d="M 3078,6662 L 3078,6911 3328,6911 3328,6662 3078,6662 Z"
   id="path214" />
 <path
   fill="rgb(0,0,0)"
   stroke="none"
   d="M 4307,6057 L 4307,6307 4557,6307 4557,6057 4307,6057 Z"
   id="path216" />
 <path
   fill="none"
   stroke="rgb(0,0,0)"
   stroke-linejoin="round"
   d="M 4307,6057 L 4307,6307 4557,6307 4557,6057 4307,6057 Z"
   id="path218" />
 <path
   fill="rgb(0,0,0)"
   stroke="none"
   d="M 5537,5964 L 5537,6214 5787,6214 5787,5964 5537,5964 Z"
   id="path220" />
 <path
   fill="none"
   stroke="rgb(0,0,0)"
   stroke-linejoin="round"
   d="M 5537,5964 L 5537,6214 5787,6214 5787,5964 5537,5964 Z"
   id="path222" />
 <path
   fill="rgb(0,0,0)"
   stroke="none"
   d="M 6766,5616 L 6766,5866 7016,5866 7016,5616 6766,5616 Z"
   id="path224" />
 <path
   fill="none"
   stroke="rgb(0,0,0)"
   stroke-linejoin="round"
   d="M 6766,5616 L 6766,5866 7016,5866 7016,5616 6766,5616 Z"
   id="path226" />
 <path
   fill="rgb(0,0,0)"
   stroke="none"
   d="M 7994,4918 L 7994,5168 8244,5168 8244,4918 7994,4918 Z"
   id="path228" />
 <path
   fill="none"
   stroke="rgb(0,0,0)"
   stroke-linejoin="round"
   d="M 7994,4918 L 7994,5168 8244,5168 8244,4918 7994,4918 Z"
   id="path230" />
 <path
   fill="rgb(0,0,0)"
   stroke="none"
   d="M 9223,4221 L 9223,4471 9473,4471 9473,4221 9223,4221 Z"
   id="path232" />
 <path
   fill="none"
   stroke="rgb(0,0,0)"
   stroke-linejoin="round"
   d="M 9223,4221 L 9223,4471 9473,4471 9473,4221 9223,4221 Z"
   id="path234" />
 <path
   fill="rgb(0,0,0)"
   stroke="none"
   d="M 10453,3639 L 10453,3889 10703,3889 10703,3639 10453,3639 Z"
   id="path236" />
 <path
   fill="none"
   stroke="rgb(0,0,0)"
   stroke-linejoin="round"
   d="M 10453,3639 L 10453,3889 10703,3889 10703,3639 10453,3639 Z"
   id="path238" />
 <path
   fill="rgb(0,0,0)"
   stroke="none"
   d="M 11682,2825 L 11682,3075 11932,3075 11932,2825 11682,2825 Z"
   id="path240" />
 <path
   fill="none"
   stroke="rgb(0,0,0)"
   stroke-linejoin="round"
   d="M 11682,2825 L 11682,3075 11932,3075 11932,2825 11682,2825 Z"
   id="path242" />
 <path
   fill="rgb(0,0,0)"
   stroke="none"
   d="M 12911,2013 L 12911,2262 13161,2262 13161,2013 12911,2013 Z"
   id="path244" />
 <path
   fill="none"
   stroke="rgb(0,0,0)"
   stroke-linejoin="round"
   d="M 12911,2013 L 12911,2262 13161,2262 13161,2013 12911,2013 Z"
   id="path246" />
 <path
   fill="none"
   stroke="rgb(87,157,28)"
   stroke-linejoin="round"
   d="M 1974,6156 L 15495,2138"
   id="path248" />
 <path
   fill="none"
   stroke="rgb(0,0,0)"
   stroke-linejoin="round"
   d="M 745,6521 L 15495,2138"
   id="path250" />
 <path
   fill="none"
   stroke="rgb(0,0,0)"
   stroke-linejoin="round"
   d="M 2004,8414 L 15495,1033"
   id="path252" />
 <path
   fill="none"
   stroke="rgb(0,0,0)"
   stroke-linejoin="round"
   d="M 745,8115 L 15495,1041"
   id="path254" />
 <path
   fill="none"
   stroke="rgb(0,0,0)"
   stroke-linejoin="round"
   d="M 745,6550 L 15495,2233"
   id="path256" />
 <path
   fill="none"
   stroke="rgb(0,0,0)"
   stroke-linejoin="round"
   d="M 745,8105 L 15495,1419"
   id="path258" />
 <text
   class="SVGTextShape"
   id="text266"><tspan
     class="TextParagraph"
     font-family="Liberation Sans, sans-serif"
     font-size="353px"
     font-weight="400"
     id="tspan264"><tspan
       class="TextPosition"
       x="599"
       y="4332"
       id="tspan262"><tspan
         fill="rgb(0,0,0)"
         stroke="none"
         style="white-space: pre"
         id="tspan260">-8</tspan></tspan></tspan></text>
 <text
   class="SVGTextShape"
   id="text274"><tspan
     class="TextParagraph"
     font-family="Liberation Sans, sans-serif"
     font-size="353px"
     font-weight="400"
     id="tspan272"><tspan
       class="TextPosition"
       x="3057"
       y="4332"
       id="tspan270"><tspan
         fill="rgb(0,0,0)"
         stroke="none"
         style="white-space: pre"
         id="tspan268">-6</tspan></tspan></tspan></text>
 <text
   class="SVGTextShape"
   id="text282"><tspan
     class="TextParagraph"
     font-family="Liberation Sans, sans-serif"
     font-size="353px"
     font-weight="400"
     id="tspan280"><tspan
       class="TextPosition"
       x="5516"
       y="4332"
       id="tspan278"><tspan
         fill="rgb(0,0,0)"
         stroke="none"
         style="white-space: pre"
         id="tspan276">-4</tspan></tspan></tspan></text>
 <text
   class="SVGTextShape"
   id="text290"><tspan
     class="TextParagraph"
     font-family="Liberation Sans, sans-serif"
     font-size="353px"
     font-weight="400"
     id="tspan288"><tspan
       class="TextPosition"
       x="7974"
       y="4332"
       id="tspan286"><tspan
         fill="rgb(0,0,0)"
         stroke="none"
         style="white-space: pre"
         id="tspan284">-2</tspan></tspan></tspan></text>
 <text
   class="SVGTextShape"
   id="text298"><tspan
     class="TextParagraph"
     font-family="Liberation Sans, sans-serif"
     font-size="353px"
     font-weight="400"
     id="tspan296"><tspan
       class="TextPosition"
       x="10486"
       y="4332"
       id="tspan294"><tspan
         fill="rgb(0,0,0)"
         stroke="none"
         style="white-space: pre"
         id="tspan292">0</tspan></tspan></tspan></text>
 <text
   class="SVGTextShape"
   id="text306"><tspan
     class="TextParagraph"
     font-family="Liberation Sans, sans-serif"
     font-size="353px"
     font-weight="400"
     id="tspan304"><tspan
       class="TextPosition"
       x="12944"
       y="4332"
       id="tspan302"><tspan
         fill="rgb(0,0,0)"
         stroke="none"
         style="white-space: pre"
         id="tspan300">2</tspan></tspan></tspan></text>
 <text
   class="SVGTextShape"
   id="text314"><tspan
     class="TextParagraph"
     font-family="Liberation Sans, sans-serif"
     font-size="353px"
     font-weight="400"
     id="tspan312"><tspan
       class="TextPosition"
       x="15403"
       y="4332"
       id="tspan310"><tspan
         fill="rgb(0,0,0)"
         stroke="none"
         style="white-space: pre"
         id="tspan308">4</tspan></tspan></tspan></text>
 <text
   class="SVGTextShape"
   id="text322"><tspan
     class="TextParagraph"
     font-family="Liberation Sans, sans-serif"
     font-size="353px"
     font-weight="400"
     id="tspan320"><tspan
       class="TextPosition"
       x="9667"
       y="8535"
       id="tspan318"><tspan
         fill="rgb(0,0,0)"
         stroke="none"
         style="white-space: pre"
         id="tspan316">-400</tspan></tspan></tspan></text>
 <text
   class="SVGTextShape"
   id="text330"><tspan
     class="TextParagraph"
     font-family="Liberation Sans, sans-serif"
     font-size="353px"
     font-weight="400"
     id="tspan328"><tspan
       class="TextPosition"
       x="9667"
       y="7372"
       id="tspan326"><tspan
         fill="rgb(0,0,0)"
         stroke="none"
         style="white-space: pre"
         id="tspan324">-300</tspan></tspan></tspan></text>
 <text
   class="SVGTextShape"
   id="text338"><tspan
     class="TextParagraph"
     font-family="Liberation Sans, sans-serif"
     font-size="353px"
     font-weight="400"
     id="tspan336"><tspan
       class="TextPosition"
       x="9667"
       y="6209"
       id="tspan334"><tspan
         fill="rgb(0,0,0)"
         stroke="none"
         style="white-space: pre"
         id="tspan332">-200</tspan></tspan></tspan></text>
 <text
   class="SVGTextShape"
   id="text346"><tspan
     class="TextParagraph"
     font-family="Liberation Sans, sans-serif"
     font-size="353px"
     font-weight="400"
     id="tspan344"><tspan
       class="TextPosition"
       x="9667"
       y="5047"
       id="tspan342"><tspan
         fill="rgb(0,0,0)"
         stroke="none"
         style="white-space: pre"
         id="tspan340">-100</tspan></tspan></tspan></text>
 <text
   class="SVGTextShape"
   id="text354"><tspan
     class="TextParagraph"
     font-family="Liberation Sans, sans-serif"
     font-size="353px"
     font-weight="400"
     id="tspan352"><tspan
       class="TextPosition"
       x="10143"
       y="3885"
       id="tspan350"><tspan
         fill="rgb(0,0,0)"
         stroke="none"
         style="white-space: pre"
         id="tspan348">0</tspan></tspan></tspan></text>
 <text
   class="SVGTextShape"
   id="text362"><tspan
     class="TextParagraph"
     font-family="Liberation Sans, sans-serif"
     font-size="353px"
     font-weight="400"
     id="tspan360"><tspan
       class="TextPosition"
       x="9772"
       y="2723"
       id="tspan358"><tspan
         fill="rgb(0,0,0)"
         stroke="none"
         style="white-space: pre"
         id="tspan356">100</tspan></tspan></tspan></text>
 <text
   class="SVGTextShape"
   id="text370"><tspan
     class="TextParagraph"
     font-family="Liberation Sans, sans-serif"
     font-size="353px"
     font-weight="400"
     id="tspan368"><tspan
       class="TextPosition"
       x="9772"
       y="1560"
       id="tspan366"><tspan
         fill="rgb(0,0,0)"
         stroke="none"
         style="white-space: pre"
         id="tspan364">200</tspan></tspan></tspan></text>
 <text
   class="SVGTextShape"
   id="text378"><tspan
     class="TextParagraph"
     font-family="Liberation Sans, sans-serif"
     font-size="353px"
     font-weight="400"
     id="tspan376"><tspan
       class="TextPosition"
       x="9772"
       y="398"
       id="tspan374"><tspan
         fill="rgb(0,0,0)"
         stroke="none"
         style="white-space: pre"
         id="tspan372">300</tspan></tspan></tspan></text>
 <text
   class="SVGTextShape"
   id="text386"><tspan
     class="TextParagraph"
     font-family="Liberation Sans, sans-serif"
     font-size="353px"
     font-weight="400"
     id="tspan384"><tspan
       class="TextPosition"
       x="11888"
       y="7038"
       id="tspan382"><tspan
         fill="rgb(0,0,0)"
         stroke="none"
         style="white-space: pre"
         id="tspan380">Y4 = 31.43 m + 14.29</tspan></tspan></tspan></text>
 <text
   class="SVGTextShape"
   id="text394"><tspan
     class="TextParagraph"
     font-family="Liberation Sans, sans-serif"
     font-size="353px"
     font-weight="400"
     id="tspan392"><tspan
       class="TextPosition"
       x="11889"
       y="6422"
       id="tspan390"><tspan
         fill="rgb(0,0,0)"
         stroke="none"
         style="white-space: pre"
         id="tspan388">Y3 = 57.86 m + 3.57</tspan></tspan></tspan></text>
 <text
   class="SVGTextShape"
   id="text402"><tspan
     class="TextParagraph"
     font-family="Liberation Sans, sans-serif"
     font-size="353px"
     font-weight="400"
     id="tspan400"><tspan
       class="TextPosition"
       x="11889"
       y="5719"
       id="tspan398"><tspan
         fill="rgb(0,0,0)"
         stroke="none"
         style="white-space: pre"
         id="tspan396">Y2 = 50.71 m + 31.43</tspan></tspan></tspan></text>
 <text
   class="SVGTextShape"
   id="text410"><tspan
     class="TextParagraph"
     font-family="Liberation Sans, sans-serif"
     font-size="353px"
     font-weight="400"
     id="tspan408"><tspan
       class="TextPosition"
       x="11889"
       y="7687"
       id="tspan406"><tspan
         fill="rgb(0,0,0)"
         stroke="none"
         style="white-space: pre"
         id="tspan404">Y5 = 30.95 m + 7.98</tspan></tspan></tspan></text>
 <text
   class="SVGTextShape"
   id="text418"><tspan
     class="TextParagraph"
     font-family="Liberation Sans, sans-serif"
     font-size="353px"
     font-weight="400"
     id="tspan416"><tspan
       class="TextPosition"
       x="11888"
       y="5073"
       id="tspan414"><tspan
         fill="rgb(0,0,0)"
         stroke="none"
         style="white-space: pre"
         id="tspan412">Y1 = 47.94 m + 10.05</tspan></tspan></tspan></text>
 <text
   class="SVGTextShape"
   id="text426"><tspan
     class="TextParagraph"
     font-family="Liberation Sans, sans-serif"
     font-size="459px"
     font-weight="400"
     id="tspan424"><tspan
       class="TextPosition"
       x="5066"
       y="993"
       id="tspan422"><tspan
         fill="rgb(0,0,0)"
         stroke="none"
         style="white-space: pre"
         id="tspan420">Положения максимумов Yn(m)</tspan></tspan></tspan></text>
 <text
   class="SVGTextShape"
   id="text434"><tspan
     class="TextParagraph"
     font-family="Liberation Sans, sans-serif"
     font-size="318px"
     font-weight="400"
     id="tspan432"><tspan
       class="TextPosition"
       x="7961"
       y="8803"
       id="tspan430"><tspan
         fill="rgb(0,0,0)"
         stroke="none"
         style="white-space: pre"
         id="tspan428">m</tspan></tspan></tspan></text>
 <text
   class="SVGTextShape"
   transform="rotate(-90 373 4545)"
   id="text442"><tspan
     class="TextParagraph"
     font-family="Liberation Sans, sans-serif"
     font-size="318px"
     font-weight="400"
     id="tspan440"><tspan
       class="TextPosition"
       x="373"
       y="4545"
       id="tspan438"><tspan
         fill="rgb(0,0,0)"
         stroke="none"
         style="white-space: pre"
         id="tspan436">Yn</tspan></tspan></tspan></text>
<text
   xml:space="preserve"
   style="font-size:489.705px;line-height:1.25;font-family:sans-serif;stroke-width:1036.53"
   x="1124.6464"
   y="801.33923"
   id="text2213"><tspan
     sodipodi:role="line"
     id="tspan2211"
     style="font-size:489.705px;stroke-width:1036.53"
     x="1124.6464"
     y="801.33923">square ■ - 1</tspan><tspan
     sodipodi:role="line"
     style="font-size:489.705px;stroke-width:1036.53"
     x="1124.6464"
     y="1413.4705"
     id="tspan4491">diamond ◆ - 2</tspan><tspan
     sodipodi:role="line"
     style="font-size:489.705px;stroke-width:1036.53"
     x="1124.6464"
     y="2025.6017"
     id="tspan4483">r-down ▼ - 3</tspan><tspan
     sodipodi:role="line"
     style="font-size:489.705px;stroke-width:1036.53"
     x="1124.6464"
     y="2637.7329"
     id="tspan4489">r-up▲ - 4</tspan><tspan
     sodipodi:role="line"
     style="font-size:489.705px;stroke-width:1036.53"
     x="1124.6464"
     y="3249.864"
     id="tspan4485">r-right ▶ - 5</tspan><tspan
     sodipodi:role="line"
     style="font-size:489.705px;stroke-width:1036.53"
     x="1124.6464"
     y="3861.9954"
     id="tspan4487" /><tspan
     sodipodi:role="line"
     style="font-size:489.705px;stroke-width:1036.53"
     x="1124.6464"
     y="4474.1265"
     id="tspan4481" /></text></svg>
