<?xml version="1.0" encoding="UTF-8" standalone="no"?>
<!-- Created with Inkscape (http://www.inkscape.org/) -->

<svg
   sodipodi:docname="vector-diagram.svg"
   inkscape:version="1.1.2 (0a00cf5339, 2022-02-04)"
   id="svg8"
   version="1.1"
   viewBox="0 0 240 120"
   height="120mm"
   width="240mm"
   xmlns:inkscape="http://www.inkscape.org/namespaces/inkscape"
   xmlns:sodipodi="http://sodipodi.sourceforge.net/DTD/sodipodi-0.dtd"
   xmlns:xlink="http://www.w3.org/1999/xlink"
   xmlns="http://www.w3.org/2000/svg"
   xmlns:svg="http://www.w3.org/2000/svg"
   xmlns:rdf="http://www.w3.org/1999/02/22-rdf-syntax-ns#"
   xmlns:cc="http://creativecommons.org/ns#"
   xmlns:dc="http://purl.org/dc/elements/1.1/">
  <defs
     id="defs2">
    <inkscape:path-effect
       effect="spiro"
       id="path-effect1802"
       is_visible="true"
       lpeversion="1" />
    <inkscape:path-effect
       effect="spiro"
       id="path-effect1589"
       is_visible="true"
       lpeversion="1" />
    <inkscape:path-effect
       effect="bspline"
       id="path-effect1331"
       is_visible="true"
       lpeversion="1"
       weight="33.333333"
       steps="2"
       helper_size="0"
       apply_no_weight="true"
       apply_with_weight="true"
       only_selected="false" />
    <marker
       style="overflow:visible;"
       id="Arrow2Lend"
       refX="0.0"
       refY="0.0"
       orient="auto"
       inkscape:stockid="Arrow2Lend"
       inkscape:isstock="true">
      <path
         transform="scale(1.1) rotate(180) translate(1,0)"
         d="M 8.7185878,4.0337352 L -2.2072895,0.016013256 L 8.7185884,-4.0017078 C 6.9730900,-1.6296469 6.9831476,1.6157441 8.7185878,4.0337352 z "
         style="stroke:context-stroke;fill-rule:evenodd;fill:context-stroke;stroke-width:0.62500000;stroke-linejoin:round;"
         id="path1041" />
    </marker>
    <marker
       style="overflow:visible;"
       id="Arrow1Lend"
       refX="0.0"
       refY="0.0"
       orient="auto"
       inkscape:stockid="Arrow1Lend"
       inkscape:isstock="true">
      <path
         transform="scale(0.8) rotate(180) translate(12.5,0)"
         style="fill-rule:evenodd;fill:context-stroke;stroke:context-stroke;stroke-width:1.0pt;"
         d="M 0.0,0.0 L 5.0,-5.0 L -12.5,0.0 L 5.0,5.0 L 0.0,0.0 z "
         id="path1023" />
    </marker>
    <inkscape:path-effect
       effect="bspline"
       id="path-effect938"
       is_visible="true"
       lpeversion="1"
       weight="33.333333"
       steps="2"
       helper_size="0"
       apply_no_weight="true"
       apply_with_weight="true"
       only_selected="false" />
    <g
       id="g5540">
      <symbol
         overflow="visible"
         id="symbol9951">
        <path
           style="stroke:none;"
           d=""
           id="path3094" />
      </symbol>
      <symbol
         overflow="visible"
         id="symbol7479">
        <path
           style="stroke:none;"
           d="M 4.359375 -6.671875 C 4.359375 -6.703125 4.390625 -6.8125 4.390625 -6.8125 C 4.390625 -6.828125 4.390625 -6.921875 4.265625 -6.921875 C 4.171875 -6.921875 4.15625 -6.890625 4.109375 -6.71875 L 3.53125 -4.421875 C 1.953125 -4.359375 0.484375 -3.046875 0.484375 -1.6875 C 0.484375 -0.734375 1.1875 0.046875 2.40625 0.125 C 2.328125 0.421875 2.25 0.75 2.171875 1.0625 C 2.046875 1.53125 1.953125 1.90625 1.953125 1.9375 C 1.953125 2.03125 2.03125 2.046875 2.078125 2.046875 C 2.125 2.046875 2.140625 2.03125 2.171875 2 C 2.1875 1.984375 2.25 1.75 2.28125 1.609375 L 2.65625 0.125 C 4.265625 0.0625 5.71875 -1.28125 5.71875 -2.609375 C 5.71875 -3.40625 5.1875 -4.3125 3.796875 -4.421875 Z M 2.453125 -0.09375 C 1.859375 -0.125 1.140625 -0.484375 1.140625 -1.46875 C 1.140625 -2.671875 2 -4.0625 3.484375 -4.203125 Z M 3.734375 -4.203125 C 4.5 -4.15625 5.0625 -3.703125 5.0625 -2.828125 C 5.0625 -1.640625 4.203125 -0.21875 2.71875 -0.09375 Z M 3.734375 -4.203125 "
           id="path1326" />
      </symbol>
      <symbol
         overflow="visible"
         id="symbol1557">
        <path
           style="stroke:none;"
           d=""
           id="path9061" />
      </symbol>
      <symbol
         overflow="visible"
         id="symbol9313">
        <path
           style="stroke:none;"
           d="M 4.921875 -4 C 5 -4.265625 5.109375 -4.5 5.671875 -4.515625 C 5.703125 -4.515625 5.8125 -4.515625 5.8125 -4.65625 C 5.8125 -4.703125 5.765625 -4.765625 5.703125 -4.765625 C 5.484375 -4.765625 5.21875 -4.734375 4.984375 -4.734375 C 4.75 -4.734375 4.453125 -4.765625 4.25 -4.765625 C 4.21875 -4.765625 4.109375 -4.765625 4.109375 -4.609375 C 4.109375 -4.515625 4.203125 -4.515625 4.265625 -4.515625 C 4.59375 -4.5 4.703125 -4.390625 4.703125 -4.21875 C 4.703125 -4.1875 4.703125 -4.15625 4.703125 -4.125 C 4.59375 -3.671875 4.078125 -1.578125 4 -1.359375 C 3.609375 -0.46875 2.78125 -0.109375 2.21875 -0.109375 C 1.75 -0.109375 1.25 -0.34375 1.25 -1.03125 C 1.25 -1.203125 1.28125 -1.375 1.3125 -1.53125 L 2 -4.21875 C 2.0625 -4.453125 2.0625 -4.515625 2.609375 -4.515625 C 2.71875 -4.515625 2.8125 -4.515625 2.8125 -4.65625 C 2.8125 -4.6875 2.796875 -4.765625 2.703125 -4.765625 C 2.5 -4.765625 2 -4.734375 1.796875 -4.734375 C 1.671875 -4.734375 1.421875 -4.734375 1.3125 -4.734375 C 1.171875 -4.75 1 -4.765625 0.875 -4.765625 C 0.828125 -4.765625 0.71875 -4.765625 0.71875 -4.609375 C 0.71875 -4.515625 0.8125 -4.515625 0.953125 -4.515625 C 0.953125 -4.515625 1.09375 -4.515625 1.21875 -4.5 C 1.359375 -4.484375 1.375 -4.46875 1.375 -4.390625 C 1.375 -4.359375 1.296875 -4.078125 1.265625 -3.9375 L 1.109375 -3.3125 L 0.703125 -1.71875 C 0.640625 -1.4375 0.640625 -1.375 0.640625 -1.234375 C 0.640625 -0.375 1.359375 0.140625 2.1875 0.140625 C 3.15625 0.140625 4.078125 -0.640625 4.3125 -1.546875 Z M 4.921875 -4 "
           id="path3646" />
      </symbol>
    </g>
    <g
       id="g5252">
      <symbol
         overflow="visible"
         id="symbol5906">
        <path
           style="stroke:none;"
           d=""
           id="path7140" />
      </symbol>
      <symbol
         overflow="visible"
         id="symbol8621">
        <path
           style="stroke:none;"
           d="M 4.359375 -6.671875 C 4.359375 -6.703125 4.390625 -6.8125 4.390625 -6.8125 C 4.390625 -6.828125 4.390625 -6.921875 4.265625 -6.921875 C 4.171875 -6.921875 4.15625 -6.890625 4.109375 -6.71875 L 3.53125 -4.421875 C 1.953125 -4.359375 0.484375 -3.046875 0.484375 -1.6875 C 0.484375 -0.734375 1.1875 0.046875 2.40625 0.125 C 2.328125 0.421875 2.25 0.75 2.171875 1.0625 C 2.046875 1.53125 1.953125 1.90625 1.953125 1.9375 C 1.953125 2.03125 2.03125 2.046875 2.078125 2.046875 C 2.125 2.046875 2.140625 2.03125 2.171875 2 C 2.1875 1.984375 2.25 1.75 2.28125 1.609375 L 2.65625 0.125 C 4.265625 0.0625 5.71875 -1.28125 5.71875 -2.609375 C 5.71875 -3.40625 5.1875 -4.3125 3.796875 -4.421875 Z M 2.453125 -0.09375 C 1.859375 -0.125 1.140625 -0.484375 1.140625 -1.46875 C 1.140625 -2.671875 2 -4.0625 3.484375 -4.203125 Z M 3.734375 -4.203125 C 4.5 -4.15625 5.0625 -3.703125 5.0625 -2.828125 C 5.0625 -1.640625 4.203125 -0.21875 2.71875 -0.09375 Z M 3.734375 -4.203125 "
           id="path3391" />
      </symbol>
      <symbol
         overflow="visible"
         id="symbol383">
        <path
           style="stroke:none;"
           d=""
           id="path4319" />
      </symbol>
      <symbol
         overflow="visible"
         id="symbol3726">
        <path
           style="stroke:none;"
           d="M 4.921875 -4 C 5 -4.265625 5.109375 -4.5 5.671875 -4.515625 C 5.703125 -4.515625 5.8125 -4.515625 5.8125 -4.65625 C 5.8125 -4.703125 5.765625 -4.765625 5.703125 -4.765625 C 5.484375 -4.765625 5.21875 -4.734375 4.984375 -4.734375 C 4.75 -4.734375 4.453125 -4.765625 4.25 -4.765625 C 4.21875 -4.765625 4.109375 -4.765625 4.109375 -4.609375 C 4.109375 -4.515625 4.203125 -4.515625 4.265625 -4.515625 C 4.59375 -4.5 4.703125 -4.390625 4.703125 -4.21875 C 4.703125 -4.1875 4.703125 -4.15625 4.703125 -4.125 C 4.59375 -3.671875 4.078125 -1.578125 4 -1.359375 C 3.609375 -0.46875 2.78125 -0.109375 2.21875 -0.109375 C 1.75 -0.109375 1.25 -0.34375 1.25 -1.03125 C 1.25 -1.203125 1.28125 -1.375 1.3125 -1.53125 L 2 -4.21875 C 2.0625 -4.453125 2.0625 -4.515625 2.609375 -4.515625 C 2.71875 -4.515625 2.8125 -4.515625 2.8125 -4.65625 C 2.8125 -4.6875 2.796875 -4.765625 2.703125 -4.765625 C 2.5 -4.765625 2 -4.734375 1.796875 -4.734375 C 1.671875 -4.734375 1.421875 -4.734375 1.3125 -4.734375 C 1.171875 -4.75 1 -4.765625 0.875 -4.765625 C 0.828125 -4.765625 0.71875 -4.765625 0.71875 -4.609375 C 0.71875 -4.515625 0.8125 -4.515625 0.953125 -4.515625 C 0.953125 -4.515625 1.09375 -4.515625 1.21875 -4.5 C 1.359375 -4.484375 1.375 -4.46875 1.375 -4.390625 C 1.375 -4.359375 1.296875 -4.078125 1.265625 -3.9375 L 1.109375 -3.3125 L 0.703125 -1.71875 C 0.640625 -1.4375 0.640625 -1.375 0.640625 -1.234375 C 0.640625 -0.375 1.359375 0.140625 2.1875 0.140625 C 3.15625 0.140625 4.078125 -0.640625 4.3125 -1.546875 Z M 4.921875 -4 "
           id="path9407" />
      </symbol>
    </g>
    <g
       id="g9293">
      <symbol
         overflow="visible"
         id="symbol8134">
        <path
           style="stroke:none;"
           d=""
           id="path3136" />
      </symbol>
      <symbol
         overflow="visible"
         id="symbol5462">
        <path
           style="stroke:none;"
           d="M 2.625 -4.359375 C 1.390625 -4.0625 0.421875 -2.765625 0.421875 -1.5625 C 0.421875 -0.59375 1.0625 0.125 2 0.125 C 3.15625 0.125 3.984375 -1.453125 3.984375 -2.828125 C 3.984375 -3.734375 3.59375 -4.234375 3.25 -4.671875 C 2.890625 -5.125 2.296875 -5.875 2.296875 -6.3125 C 2.296875 -6.53125 2.5 -6.765625 2.84375 -6.765625 C 3.15625 -6.765625 3.34375 -6.640625 3.5625 -6.5 C 3.765625 -6.375 3.953125 -6.25 4.109375 -6.25 C 4.359375 -6.25 4.5 -6.484375 4.5 -6.65625 C 4.5 -6.875 4.34375 -6.890625 3.984375 -6.984375 C 3.46875 -7.09375 3.328125 -7.09375 3.171875 -7.09375 C 2.390625 -7.09375 2.03125 -6.65625 2.03125 -6.0625 C 2.03125 -5.515625 2.328125 -4.96875 2.625 -4.359375 Z M 2.75 -4.140625 C 3 -3.671875 3.296875 -3.140625 3.296875 -2.421875 C 3.296875 -1.765625 2.921875 -0.09375 2 -0.09375 C 1.453125 -0.09375 1.03125 -0.515625 1.03125 -1.28125 C 1.03125 -1.90625 1.40625 -3.78125 2.75 -4.140625 Z M 2.75 -4.140625 "
           id="path758" />
      </symbol>
    </g>
  </defs>
  <sodipodi:namedview
     id="base"
     pagecolor="#ffffff"
     bordercolor="#666666"
     borderopacity="1.0"
     inkscape:pageopacity="0.0"
     inkscape:pageshadow="2"
     inkscape:zoom="1.9887478"
     inkscape:cx="483.87155"
     inkscape:cy="251.57426"
     inkscape:document-units="mm"
     inkscape:current-layer="svg8"
     showgrid="false"
     showborder="true"
     width="200mm"
     showguides="true"
     inkscape:guide-bbox="true"
     inkscape:window-width="2160"
     inkscape:window-height="1375"
     inkscape:window-x="2560"
     inkscape:window-y="0"
     inkscape:window-maximized="1"
     inkscape:pagecheckerboard="0">
    <inkscape:grid
       type="xygrid"
       id="grid815"
       units="mm"
       spacingx="10"
       spacingy="10"
       empspacing="4"
       dotted="false" />
  </sodipodi:namedview>
  <metadata
     id="metadata5">
    <rdf:RDF>
      <cc:Work
         rdf:about="">
        <dc:format>image/svg+xml</dc:format>
        <dc:type
           rdf:resource="http://purl.org/dc/dcmitype/StillImage" />
        <dc:title />
      </cc:Work>
    </rdf:RDF>
  </metadata>
  <g
     inkscape:label="Layer 1"
     inkscape:groupmode="layer"
     id="layer1"
     transform="translate(0,-177)">
    <path
       style="fill:none;stroke:#000000;stroke-width:0.264583px;stroke-linecap:butt;stroke-linejoin:miter;stroke-opacity:1;marker-end:url(#Arrow2Lend)"
       d="m 117.00528,252.03605 c 0,-7.89532 0,-15.79091 0,-23.68677"
       id="path936"
       inkscape:path-effect="#path-effect938"
       inkscape:original-d="m 117.00528,252.03605 c 2.7e-4,-7.89532 2.7e-4,-15.79091 0,-23.68677" />
    <path
       style="fill:none;stroke:#000000;stroke-width:0.264583px;stroke-linecap:butt;stroke-linejoin:miter;stroke-opacity:1"
       d="m 117.00528,252.03605 c 5.26112,-11.84428 10.52229,-23.68868 15.78352,-35.53321"
       id="path1329"
       inkscape:path-effect="#path-effect1331"
       inkscape:original-d="m 117.00528,252.03605 c 5.26144,-11.84414 10.52261,-23.68854 15.78352,-35.53321" />
    <path
       style="fill:none;stroke:#000000;stroke-width:0.264583px;stroke-linecap:butt;stroke-linejoin:miter;stroke-opacity:1"
       d="m 117.16432,245.04713 c 0.34111,-0.37586 0.86392,-0.57869 1.36926,-0.53122 0.50534,0.0475 0.98124,0.34412 1.24638,0.77692 0.0697,0.11371 0.12539,0.23594 0.16556,0.36309"
       id="path1800"
       inkscape:path-effect="#path-effect1802"
       inkscape:original-d="m 117.16432,245.04713 c 0.87215,0.0822 1.74403,0.16406 2.61564,0.2457 0.87162,0.0816 0.11064,0.24232 0.16556,0.36309" />
    <text
       xml:space="preserve"
       style="font-size:3.52777px;line-height:1.25;font-family:sans-serif;stroke-width:0.264583"
       x="118.58068"
       y="241.40739"
       id="text5552"><tspan
         sodipodi:role="line"
         style="stroke-width:0.264583"
         x="0"
         y="0"
         rotate="0 0 0 0"
         id="tspan5554"><tspan
           rotate="0"
           id="tspan5556"
           style="stroke-width:0.264583" /></tspan></text>
  </g>
  <g
     inkscape:label=""
     transform="translate(24.329159,-18.659074)"
     id="g940">
    <g
       id="g4004">
      <g
         style="fill:#000000;fill-opacity:1"
         id="g2390">
        <use
           xlink:href="#symbol7479"
           x="91.925003"
           y="81.962997"
           id="use8999"
           width="100%"
           height="100%" />
      </g>
      <g
         style="fill:#000000;fill-opacity:1"
         id="g8864">
        <use
           xlink:href="#symbol9313"
           x="97.861"
           y="83.457001"
           id="use8255"
           width="100%"
           height="100%" />
      </g>
    </g>
  </g>
  <g
     inkscape:label=""
     transform="translate(-70.867398,-84.743665)"
     id="g1060">
    <g
       id="g6215"
       transform="matrix(0.31873,0,0,0.303134,64.3347,61.1904)">
      <g
         style="fill:#000000;fill-opacity:1"
         id="g403"
         transform="translate(0.33132785,-0.14674637)">
        <use
           xlink:href="#symbol8621"
           x="91.925003"
           y="81.962997"
           id="use4383"
           width="100%"
           height="100%" />
      </g>
      <g
         style="fill:#000000;fill-opacity:1"
         id="g570">
        <use
           xlink:href="#symbol3726"
           x="97.861"
           y="83.457001"
           id="use9732"
           width="100%"
           height="100%" />
      </g>
      <g
         inkscape:label=""
         transform="matrix(3.13745,0,0,3.29887,113.618,81.7326)"
         id="g1202">
        <g
           id="g1624">
          <g
             style="fill:#000000;fill-opacity:1"
             id="g5944">
            <use
               xlink:href="#symbol5462"
               x="91.925003"
               y="81.962997"
               id="use924"
               width="100%"
               height="100%" />
          </g>
        </g>
      </g>
    </g>
  </g>
</svg>
