<?xml version="1.0" encoding="UTF-8"?>
<!DOCTYPE svg PUBLIC "-//W3C//DTD SVG 1.1//EN" "http://www.w3.org/Graphics/SVG/1.1/DTD/svg11.dtd">
<svg width="160mm" height="90mm" viewBox="0 0 16000 9000" version="1.1" xmlns="http://www.w3.org/2000/svg" xmlns:xlink="http://www.w3.org/1999/xlink" stroke-width="28.222" stroke-linejoin="round" xml:space="preserve">
 <path fill="rgb(255,255,255)" stroke="none" d="M 7980,8999 L -13,8999 -13,-13 15973,-13 15973,8999 7980,8999 Z"/>
 <path fill="none" stroke="rgb(179,179,179)" stroke-linejoin="round" d="M 8571,7639 L 2044,7639 2044,367 15098,367 15098,7639 8571,7639 Z"/>
 <path fill="none" stroke="rgb(179,179,179)" stroke-linejoin="round" d="M 15098,7638 L 2044,7638"/>
 <path fill="none" stroke="rgb(179,179,179)" stroke-linejoin="round" d="M 15098,6183 L 2044,6183"/>
 <path fill="none" stroke="rgb(179,179,179)" stroke-linejoin="round" d="M 15098,4728 L 2044,4728"/>
 <path fill="none" stroke="rgb(179,179,179)" stroke-linejoin="round" d="M 15098,3275 L 2044,3275"/>
 <path fill="none" stroke="rgb(179,179,179)" stroke-linejoin="round" d="M 15098,1820 L 2044,1820"/>
 <path fill="none" stroke="rgb(179,179,179)" stroke-linejoin="round" d="M 15098,366 L 2044,366"/>
 <path fill="none" stroke="rgb(179,179,179)" stroke-linejoin="round" d="M 2044,4878 L 2044,4728"/>
 <path fill="none" stroke="rgb(179,179,179)" stroke-linejoin="round" d="M 2044,4878 L 2044,4728"/>
 <path fill="none" stroke="rgb(179,179,179)" stroke-linejoin="round" d="M 4219,4878 L 4219,4728"/>
 <path fill="none" stroke="rgb(179,179,179)" stroke-linejoin="round" d="M 4219,4878 L 4219,4728"/>
 <path fill="none" stroke="rgb(179,179,179)" stroke-linejoin="round" d="M 6395,4878 L 6395,4728"/>
 <path fill="none" stroke="rgb(179,179,179)" stroke-linejoin="round" d="M 6395,4878 L 6395,4728"/>
 <path fill="none" stroke="rgb(179,179,179)" stroke-linejoin="round" d="M 8570,4878 L 8570,4728"/>
 <path fill="none" stroke="rgb(179,179,179)" stroke-linejoin="round" d="M 8570,4878 L 8570,4728"/>
 <path fill="none" stroke="rgb(179,179,179)" stroke-linejoin="round" d="M 10746,4878 L 10746,4728"/>
 <path fill="none" stroke="rgb(179,179,179)" stroke-linejoin="round" d="M 10746,4878 L 10746,4728"/>
 <path fill="none" stroke="rgb(179,179,179)" stroke-linejoin="round" d="M 12922,4878 L 12922,4728"/>
 <path fill="none" stroke="rgb(179,179,179)" stroke-linejoin="round" d="M 12922,4878 L 12922,4728"/>
 <path fill="none" stroke="rgb(179,179,179)" stroke-linejoin="round" d="M 15098,4878 L 15098,4728"/>
 <path fill="none" stroke="rgb(179,179,179)" stroke-linejoin="round" d="M 15098,4878 L 15098,4728"/>
 <path fill="none" stroke="rgb(179,179,179)" stroke-linejoin="round" d="M 2044,4728 L 15098,4728"/>
 <path fill="none" stroke="rgb(179,179,179)" stroke-linejoin="round" d="M 1894,7638 L 2044,7638"/>
 <path fill="none" stroke="rgb(179,179,179)" stroke-linejoin="round" d="M 1894,7638 L 2044,7638"/>
 <path fill="none" stroke="rgb(179,179,179)" stroke-linejoin="round" d="M 1894,6183 L 2044,6183"/>
 <path fill="none" stroke="rgb(179,179,179)" stroke-linejoin="round" d="M 1894,6183 L 2044,6183"/>
 <path fill="none" stroke="rgb(179,179,179)" stroke-linejoin="round" d="M 1894,4728 L 2044,4728"/>
 <path fill="none" stroke="rgb(179,179,179)" stroke-linejoin="round" d="M 1894,4728 L 2044,4728"/>
 <path fill="none" stroke="rgb(179,179,179)" stroke-linejoin="round" d="M 1894,3275 L 2044,3275"/>
 <path fill="none" stroke="rgb(179,179,179)" stroke-linejoin="round" d="M 1894,3275 L 2044,3275"/>
 <path fill="none" stroke="rgb(179,179,179)" stroke-linejoin="round" d="M 1894,1820 L 2044,1820"/>
 <path fill="none" stroke="rgb(179,179,179)" stroke-linejoin="round" d="M 1894,1820 L 2044,1820"/>
 <path fill="none" stroke="rgb(179,179,179)" stroke-linejoin="round" d="M 1894,366 L 2044,366"/>
 <path fill="none" stroke="rgb(179,179,179)" stroke-linejoin="round" d="M 1894,366 L 2044,366"/>
 <path fill="none" stroke="rgb(179,179,179)" stroke-linejoin="round" d="M 2044,7638 L 2044,366"/>
 <path fill="rgb(0,69,134)" stroke="none" d="M 1923,1325 L 1923,1575 2173,1575 2173,1325 1923,1325 Z"/>
 <path fill="none" stroke="rgb(0,69,134)" stroke-linejoin="round" d="M 1923,1325 L 1923,1575 2173,1575 2173,1325 1923,1325 Z"/>
 <path fill="rgb(0,69,134)" stroke="none" d="M 1929,1847 L 1929,2097 2179,2097 2179,1847 1929,1847 Z"/>
 <path fill="none" stroke="rgb(0,69,134)" stroke-linejoin="round" d="M 1929,1847 L 1929,2097 2179,2097 2179,1847 1929,1847 Z"/>
 <path fill="rgb(0,69,134)" stroke="none" d="M 1940,2706 L 1940,2956 2190,2956 2190,2706 1940,2706 Z"/>
 <path fill="none" stroke="rgb(0,69,134)" stroke-linejoin="round" d="M 1940,2706 L 1940,2956 2190,2956 2190,2706 1940,2706 Z"/>
 <path fill="rgb(0,69,134)" stroke="none" d="M 1951,3137 L 1951,3387 2201,3387 2201,3137 1951,3137 Z"/>
 <path fill="none" stroke="rgb(0,69,134)" stroke-linejoin="round" d="M 1951,3137 L 1951,3387 2201,3387 2201,3137 1951,3137 Z"/>
 <path fill="rgb(0,69,134)" stroke="none" d="M 1962,3330 L 1962,3580 2212,3580 2212,3330 1962,3330 Z"/>
 <path fill="none" stroke="rgb(0,69,134)" stroke-linejoin="round" d="M 1962,3330 L 1962,3580 2212,3580 2212,3330 1962,3330 Z"/>
 <path fill="rgb(0,69,134)" stroke="none" d="M 1973,3467 L 1973,3717 2223,3717 2223,3467 1973,3467 Z"/>
 <path fill="none" stroke="rgb(0,69,134)" stroke-linejoin="round" d="M 1973,3467 L 1973,3717 2223,3717 2223,3467 1973,3467 Z"/>
 <path fill="rgb(0,69,134)" stroke="none" d="M 1984,3540 L 1984,3790 2234,3790 2234,3540 1984,3540 Z"/>
 <path fill="none" stroke="rgb(0,69,134)" stroke-linejoin="round" d="M 1984,3540 L 1984,3790 2234,3790 2234,3540 1984,3540 Z"/>
 <path fill="rgb(0,69,134)" stroke="none" d="M 2000,3609 L 2000,3859 2250,3859 2250,3609 2000,3609 Z"/>
 <path fill="none" stroke="rgb(0,69,134)" stroke-linejoin="round" d="M 2000,3609 L 2000,3859 2250,3859 2250,3609 2000,3609 Z"/>
 <path fill="rgb(0,69,134)" stroke="none" d="M 2027,3653 L 2027,3903 2277,3903 2277,3653 2027,3653 Z"/>
 <path fill="none" stroke="rgb(0,69,134)" stroke-linejoin="round" d="M 2027,3653 L 2027,3903 2277,3903 2277,3653 2027,3653 Z"/>
 <path fill="rgb(0,69,134)" stroke="none" d="M 2082,3697 L 2082,3947 2332,3947 2332,3697 2082,3697 Z"/>
 <path fill="none" stroke="rgb(0,69,134)" stroke-linejoin="round" d="M 2082,3697 L 2082,3947 2332,3947 2332,3697 2082,3697 Z"/>
 <path fill="rgb(0,69,134)" stroke="none" d="M 2136,3708 L 2136,3958 2386,3958 2386,3708 2136,3708 Z"/>
 <path fill="none" stroke="rgb(0,69,134)" stroke-linejoin="round" d="M 2136,3708 L 2136,3958 2386,3958 2386,3708 2136,3708 Z"/>
 <path fill="rgb(0,69,134)" stroke="none" d="M 2354,3723 L 2354,3973 2604,3973 2604,3723 2354,3723 Z"/>
 <path fill="none" stroke="rgb(0,69,134)" stroke-linejoin="round" d="M 2354,3723 L 2354,3973 2604,3973 2604,3723 2354,3723 Z"/>
 <path fill="rgb(0,69,134)" stroke="none" d="M 2734,3711 L 2734,3961 2984,3961 2984,3711 2734,3711 Z"/>
 <path fill="none" stroke="rgb(0,69,134)" stroke-linejoin="round" d="M 2734,3711 L 2734,3961 2984,3961 2984,3711 2734,3711 Z"/>
 <path fill="rgb(0,69,134)" stroke="none" d="M 3550,3627 L 3550,3877 3800,3877 3800,3627 3550,3627 Z"/>
 <path fill="none" stroke="rgb(0,69,134)" stroke-linejoin="round" d="M 3550,3627 L 3550,3877 3800,3877 3800,3627 3550,3627 Z"/>
 <path fill="rgb(0,69,134)" stroke="none" d="M 3006,3697 L 3006,3947 3256,3947 3256,3697 3006,3697 Z"/>
 <path fill="none" stroke="rgb(0,69,134)" stroke-linejoin="round" d="M 3006,3697 L 3006,3947 3256,3947 3256,3697 3006,3697 Z"/>
 <path fill="rgb(0,69,134)" stroke="none" d="M 3224,3676 L 3224,3926 3474,3926 3474,3676 3224,3676 Z"/>
 <path fill="none" stroke="rgb(0,69,134)" stroke-linejoin="round" d="M 3224,3676 L 3224,3926 3474,3926 3474,3676 3224,3676 Z"/>
 <path fill="rgb(0,69,134)" stroke="none" d="M 3681,3601 L 3681,3851 3931,3851 3931,3601 3681,3601 Z"/>
 <path fill="none" stroke="rgb(0,69,134)" stroke-linejoin="round" d="M 3681,3601 L 3681,3851 3931,3851 3931,3601 3681,3601 Z"/>
 <path fill="rgb(0,69,134)" stroke="none" d="M 4094,3478 L 4094,3728 4344,3728 4344,3478 4094,3478 Z"/>
 <path fill="none" stroke="rgb(0,69,134)" stroke-linejoin="round" d="M 4094,3478 L 4094,3728 4344,3728 4344,3478 4094,3478 Z"/>
 <path fill="rgb(0,69,134)" stroke="none" d="M 4638,3153 L 4638,3403 4888,3403 4888,3153 4638,3153 Z"/>
 <path fill="none" stroke="rgb(0,69,134)" stroke-linejoin="round" d="M 4638,3153 L 4638,3403 4888,3403 4888,3153 4638,3153 Z"/>
 <path fill="rgb(0,69,134)" stroke="none" d="M 5182,1928 L 5182,2178 5432,2178 5432,1928 5182,1928 Z"/>
 <path fill="none" stroke="rgb(0,69,134)" stroke-linejoin="round" d="M 5182,1928 L 5182,2178 5432,2178 5432,1928 5182,1928 Z"/>
 <path fill="rgb(0,69,134)" stroke="none" d="M 6270,6762 L 6270,7012 6520,7012 6520,6762 6270,6762 Z"/>
 <path fill="none" stroke="rgb(0,69,134)" stroke-linejoin="round" d="M 6270,6762 L 6270,7012 6520,7012 6520,6762 6270,6762 Z"/>
 <path fill="rgb(0,69,134)" stroke="none" d="M 7358,5080 L 7358,5330 7608,5330 7608,5080 7358,5080 Z"/>
 <path fill="none" stroke="rgb(0,69,134)" stroke-linejoin="round" d="M 7358,5080 L 7358,5330 7608,5330 7608,5080 7358,5080 Z"/>
 <path fill="rgb(0,69,134)" stroke="none" d="M 8445,4768 L 8445,5018 8695,5018 8695,4768 8445,4768 Z"/>
 <path fill="none" stroke="rgb(0,69,134)" stroke-linejoin="round" d="M 8445,4768 L 8445,5018 8695,5018 8695,4768 8445,4768 Z"/>
 <path fill="rgb(0,69,134)" stroke="none" d="M 9163,4665 L 9163,4915 9413,4915 9413,4665 9163,4665 Z"/>
 <path fill="none" stroke="rgb(0,69,134)" stroke-linejoin="round" d="M 9163,4665 L 9163,4915 9413,4915 9413,4665 9163,4665 Z"/>
 <path fill="rgb(0,69,134)" stroke="none" d="M 10077,4576 L 10077,4826 10327,4826 10327,4576 10077,4576 Z"/>
 <path fill="none" stroke="rgb(0,69,134)" stroke-linejoin="round" d="M 10077,4576 L 10077,4826 10327,4826 10327,4576 10077,4576 Z"/>
 <path fill="rgb(0,69,134)" stroke="none" d="M 12797,4276 L 12797,4525 13047,4525 13047,4276 12797,4276 Z"/>
 <path fill="none" stroke="rgb(0,69,134)" stroke-linejoin="round" d="M 12797,4276 L 12797,4525 13047,4525 13047,4276 12797,4276 Z"/>
 <text class="SVGTextShape"><tspan class="TextParagraph" font-family="Liberation Sans, sans-serif" font-size="353px" font-weight="400"><tspan class="TextPosition" x="1951" y="5296"><tspan fill="rgb(0,0,0)" stroke="none" style="white-space: pre">0</tspan></tspan></tspan></text>
 <text class="SVGTextShape"><tspan class="TextParagraph" font-family="Liberation Sans, sans-serif" font-size="353px" font-weight="400"><tspan class="TextPosition" x="3756" y="5296"><tspan fill="rgb(0,0,0)" stroke="none" style="white-space: pre">20000</tspan></tspan></tspan></text>
 <text class="SVGTextShape"><tspan class="TextParagraph" font-family="Liberation Sans, sans-serif" font-size="353px" font-weight="400"><tspan class="TextPosition" x="5932" y="5296"><tspan fill="rgb(0,0,0)" stroke="none" style="white-space: pre">40000</tspan></tspan></tspan></text>
 <text class="SVGTextShape"><tspan class="TextParagraph" font-family="Liberation Sans, sans-serif" font-size="353px" font-weight="400"><tspan class="TextPosition" x="8108" y="5296"><tspan fill="rgb(0,0,0)" stroke="none" style="white-space: pre">60000</tspan></tspan></tspan></text>
 <text class="SVGTextShape"><tspan class="TextParagraph" font-family="Liberation Sans, sans-serif" font-size="353px" font-weight="400"><tspan class="TextPosition" x="10284" y="5296"><tspan fill="rgb(0,0,0)" stroke="none" style="white-space: pre">80000</tspan></tspan></tspan></text>
 <text class="SVGTextShape"><tspan class="TextParagraph" font-family="Liberation Sans, sans-serif" font-size="353px" font-weight="400"><tspan class="TextPosition" x="12367" y="5296"><tspan fill="rgb(0,0,0)" stroke="none" style="white-space: pre">100000</tspan></tspan></tspan></text>
 <text class="SVGTextShape"><tspan class="TextParagraph" font-family="Liberation Sans, sans-serif" font-size="353px" font-weight="400"><tspan class="TextPosition" x="14543" y="5296"><tspan fill="rgb(0,0,0)" stroke="none" style="white-space: pre">120000</tspan></tspan></tspan></text>
 <text class="SVGTextShape"><tspan class="TextParagraph" font-family="Liberation Sans, sans-serif" font-size="353px" font-weight="400"><tspan class="TextPosition" x="1318" y="7759"><tspan fill="rgb(0,0,0)" stroke="none" style="white-space: pre">-10</tspan></tspan></tspan></text>
 <text class="SVGTextShape"><tspan class="TextParagraph" font-family="Liberation Sans, sans-serif" font-size="353px" font-weight="400"><tspan class="TextPosition" x="1503" y="6304"><tspan fill="rgb(0,0,0)" stroke="none" style="white-space: pre">-5</tspan></tspan></tspan></text>
 <text class="SVGTextShape"><tspan class="TextParagraph" font-family="Liberation Sans, sans-serif" font-size="353px" font-weight="400"><tspan class="TextPosition" x="1609" y="4849"><tspan fill="rgb(0,0,0)" stroke="none" style="white-space: pre">0</tspan></tspan></tspan></text>
 <text class="SVGTextShape"><tspan class="TextParagraph" font-family="Liberation Sans, sans-serif" font-size="353px" font-weight="400"><tspan class="TextPosition" x="1609" y="3395"><tspan fill="rgb(0,0,0)" stroke="none" style="white-space: pre">5</tspan></tspan></tspan></text>
 <text class="SVGTextShape"><tspan class="TextParagraph" font-family="Liberation Sans, sans-serif" font-size="353px" font-weight="400"><tspan class="TextPosition" x="1424" y="1940"><tspan fill="rgb(0,0,0)" stroke="none" style="white-space: pre">10</tspan></tspan></tspan></text>
 <text class="SVGTextShape"><tspan class="TextParagraph" font-family="Liberation Sans, sans-serif" font-size="353px" font-weight="400"><tspan class="TextPosition" x="1424" y="486"><tspan fill="rgb(0,0,0)" stroke="none" style="white-space: pre">15</tspan></tspan></tspan></text>
 <text class="SVGTextShape"><tspan class="TextParagraph" font-family="Liberation Sans, sans-serif" font-size="318px" font-weight="400"><tspan class="TextPosition" x="8168" y="8405"><tspan fill="rgb(0,0,0)" stroke="none" style="white-space: pre">f, Hz</tspan></tspan></tspan></text>
 <text class="SVGTextShape" transform="rotate(-90 824 4426)"><tspan class="TextParagraph" font-family="Liberation Sans, sans-serif" font-size="318px" font-weight="400"><tspan class="TextPosition" x="824" y="4426"><tspan fill="rgb(0,0,0)" stroke="none" style="white-space: pre">L, mH</tspan></tspan></tspan></text>
</svg>