<?xml version="1.0" encoding="UTF-8"?>
<!DOCTYPE svg PUBLIC "-//W3C//DTD SVG 1.1//EN" "http://www.w3.org/Graphics/SVG/1.1/DTD/svg11.dtd">
<svg width="149mm" height="93mm" viewBox="0 0 14900 9300" version="1.1" xmlns="http://www.w3.org/2000/svg" xmlns:xlink="http://www.w3.org/1999/xlink" stroke-width="28.222" stroke-linejoin="round" xml:space="preserve">
 <path fill="rgb(255,255,255)" stroke="none" d="M 7442,9224 L -13,9224 -13,-13 14896,-13 14896,9224 7442,9224 Z"/>
 <path fill="none" stroke="rgb(179,179,179)" stroke-linejoin="round" d="M 8022,7926 L 1873,7926 1873,339 14172,339 14172,7926 8022,7926 Z"/>
 <path fill="none" stroke="rgb(179,179,179)" stroke-linejoin="round" d="M 14172,7925 L 1873,7925"/>
 <path fill="none" stroke="rgb(179,179,179)" stroke-linejoin="round" d="M 14172,6976 L 1873,6976"/>
 <path fill="none" stroke="rgb(179,179,179)" stroke-linejoin="round" d="M 14172,6028 L 1873,6028"/>
 <path fill="none" stroke="rgb(179,179,179)" stroke-linejoin="round" d="M 14172,5080 L 1873,5080"/>
 <path fill="none" stroke="rgb(179,179,179)" stroke-linejoin="round" d="M 14172,4131 L 1873,4131"/>
 <path fill="none" stroke="rgb(179,179,179)" stroke-linejoin="round" d="M 14172,3182 L 1873,3182"/>
 <path fill="none" stroke="rgb(179,179,179)" stroke-linejoin="round" d="M 14172,2235 L 1873,2235"/>
 <path fill="none" stroke="rgb(179,179,179)" stroke-linejoin="round" d="M 14172,1286 L 1873,1286"/>
 <path fill="none" stroke="rgb(179,179,179)" stroke-linejoin="round" d="M 14172,338 L 1873,338"/>
 <path fill="none" stroke="rgb(179,179,179)" stroke-linejoin="round" d="M 1873,8075 L 1873,7925"/>
 <path fill="none" stroke="rgb(179,179,179)" stroke-linejoin="round" d="M 1873,8075 L 1873,7925"/>
 <path fill="none" stroke="rgb(179,179,179)" stroke-linejoin="round" d="M 3630,8075 L 3630,7925"/>
 <path fill="none" stroke="rgb(179,179,179)" stroke-linejoin="round" d="M 3630,8075 L 3630,7925"/>
 <path fill="none" stroke="rgb(179,179,179)" stroke-linejoin="round" d="M 5387,8075 L 5387,7925"/>
 <path fill="none" stroke="rgb(179,179,179)" stroke-linejoin="round" d="M 5387,8075 L 5387,7925"/>
 <path fill="none" stroke="rgb(179,179,179)" stroke-linejoin="round" d="M 7144,8075 L 7144,7925"/>
 <path fill="none" stroke="rgb(179,179,179)" stroke-linejoin="round" d="M 7144,8075 L 7144,7925"/>
 <path fill="none" stroke="rgb(179,179,179)" stroke-linejoin="round" d="M 8900,8075 L 8900,7925"/>
 <path fill="none" stroke="rgb(179,179,179)" stroke-linejoin="round" d="M 8900,8075 L 8900,7925"/>
 <path fill="none" stroke="rgb(179,179,179)" stroke-linejoin="round" d="M 10657,8075 L 10657,7925"/>
 <path fill="none" stroke="rgb(179,179,179)" stroke-linejoin="round" d="M 10657,8075 L 10657,7925"/>
 <path fill="none" stroke="rgb(179,179,179)" stroke-linejoin="round" d="M 12414,8075 L 12414,7925"/>
 <path fill="none" stroke="rgb(179,179,179)" stroke-linejoin="round" d="M 12414,8075 L 12414,7925"/>
 <path fill="none" stroke="rgb(179,179,179)" stroke-linejoin="round" d="M 14172,8075 L 14172,7925"/>
 <path fill="none" stroke="rgb(179,179,179)" stroke-linejoin="round" d="M 14172,8075 L 14172,7925"/>
 <path fill="none" stroke="rgb(179,179,179)" stroke-linejoin="round" d="M 1873,7925 L 14172,7925"/>
 <path fill="none" stroke="rgb(179,179,179)" stroke-linejoin="round" d="M 1723,7925 L 1873,7925"/>
 <path fill="none" stroke="rgb(179,179,179)" stroke-linejoin="round" d="M 1723,7925 L 1873,7925"/>
 <path fill="none" stroke="rgb(179,179,179)" stroke-linejoin="round" d="M 1723,6976 L 1873,6976"/>
 <path fill="none" stroke="rgb(179,179,179)" stroke-linejoin="round" d="M 1723,6976 L 1873,6976"/>
 <path fill="none" stroke="rgb(179,179,179)" stroke-linejoin="round" d="M 1723,6028 L 1873,6028"/>
 <path fill="none" stroke="rgb(179,179,179)" stroke-linejoin="round" d="M 1723,6028 L 1873,6028"/>
 <path fill="none" stroke="rgb(179,179,179)" stroke-linejoin="round" d="M 1723,5080 L 1873,5080"/>
 <path fill="none" stroke="rgb(179,179,179)" stroke-linejoin="round" d="M 1723,5080 L 1873,5080"/>
 <path fill="none" stroke="rgb(179,179,179)" stroke-linejoin="round" d="M 1723,4131 L 1873,4131"/>
 <path fill="none" stroke="rgb(179,179,179)" stroke-linejoin="round" d="M 1723,4131 L 1873,4131"/>
 <path fill="none" stroke="rgb(179,179,179)" stroke-linejoin="round" d="M 1723,3182 L 1873,3182"/>
 <path fill="none" stroke="rgb(179,179,179)" stroke-linejoin="round" d="M 1723,3182 L 1873,3182"/>
 <path fill="none" stroke="rgb(179,179,179)" stroke-linejoin="round" d="M 1723,2235 L 1873,2235"/>
 <path fill="none" stroke="rgb(179,179,179)" stroke-linejoin="round" d="M 1723,2235 L 1873,2235"/>
 <path fill="none" stroke="rgb(179,179,179)" stroke-linejoin="round" d="M 1723,1286 L 1873,1286"/>
 <path fill="none" stroke="rgb(179,179,179)" stroke-linejoin="round" d="M 1723,1286 L 1873,1286"/>
 <path fill="none" stroke="rgb(179,179,179)" stroke-linejoin="round" d="M 1723,338 L 1873,338"/>
 <path fill="none" stroke="rgb(179,179,179)" stroke-linejoin="round" d="M 1723,338 L 1873,338"/>
 <path fill="none" stroke="rgb(179,179,179)" stroke-linejoin="round" d="M 1873,7925 L 1873,338"/>
 <path fill="rgb(0,69,134)" stroke="none" d="M 2297,2749 L 2297,2999 2547,2999 2547,2749 2297,2749 Z"/>
 <path fill="none" stroke="rgb(0,69,134)" stroke-linejoin="round" d="M 2297,2749 L 2297,2999 2547,2999 2547,2749 2297,2749 Z"/>
 <path fill="rgb(0,69,134)" stroke="none" d="M 2538,2703 L 2538,2953 2788,2953 2788,2703 2538,2703 Z"/>
 <path fill="none" stroke="rgb(0,69,134)" stroke-linejoin="round" d="M 2538,2703 L 2538,2953 2788,2953 2788,2703 2538,2703 Z"/>
 <path fill="rgb(0,69,134)" stroke="none" d="M 2824,2645 L 2824,2895 3074,2895 3074,2645 2824,2645 Z"/>
 <path fill="none" stroke="rgb(0,69,134)" stroke-linejoin="round" d="M 2824,2645 L 2824,2895 3074,2895 3074,2645 2824,2645 Z"/>
 <path fill="rgb(0,69,134)" stroke="none" d="M 3153,2579 L 3153,2829 3403,2829 3403,2579 3153,2579 Z"/>
 <path fill="none" stroke="rgb(0,69,134)" stroke-linejoin="round" d="M 3153,2579 L 3153,2829 3403,2829 3403,2579 3153,2579 Z"/>
 <path fill="rgb(0,69,134)" stroke="none" d="M 3527,2505 L 3527,2755 3777,2755 3777,2505 3527,2505 Z"/>
 <path fill="none" stroke="rgb(0,69,134)" stroke-linejoin="round" d="M 3527,2505 L 3527,2755 3777,2755 3777,2505 3527,2505 Z"/>
 <path fill="rgb(0,69,134)" stroke="none" d="M 3944,2421 L 3944,2671 4194,2671 4194,2421 3944,2421 Z"/>
 <path fill="none" stroke="rgb(0,69,134)" stroke-linejoin="round" d="M 3944,2421 L 3944,2671 4194,2671 4194,2421 3944,2421 Z"/>
 <path fill="rgb(0,69,134)" stroke="none" d="M 4405,2331 L 4405,2581 4655,2581 4655,2331 4405,2331 Z"/>
 <path fill="none" stroke="rgb(0,69,134)" stroke-linejoin="round" d="M 4405,2331 L 4405,2581 4655,2581 4655,2331 4405,2331 Z"/>
 <path fill="rgb(0,69,134)" stroke="none" d="M 4910,2225 L 4910,2474 5160,2474 5160,2225 4910,2225 Z"/>
 <path fill="none" stroke="rgb(0,69,134)" stroke-linejoin="round" d="M 4910,2225 L 4910,2474 5160,2474 5160,2225 4910,2225 Z"/>
 <path fill="rgb(0,69,134)" stroke="none" d="M 5459,2124 L 5459,2373 5709,2373 5709,2124 5459,2124 Z"/>
 <path fill="none" stroke="rgb(0,69,134)" stroke-linejoin="round" d="M 5459,2124 L 5459,2373 5709,2373 5709,2124 5459,2124 Z"/>
 <path fill="rgb(0,69,134)" stroke="none" d="M 6053,2009 L 6053,2259 6303,2259 6303,2009 6053,2009 Z"/>
 <path fill="none" stroke="rgb(0,69,134)" stroke-linejoin="round" d="M 6053,2009 L 6053,2259 6303,2259 6303,2009 6053,2009 Z"/>
 <path fill="rgb(0,69,134)" stroke="none" d="M 6689,1887 L 6689,2137 6939,2137 6939,1887 6689,1887 Z"/>
 <path fill="none" stroke="rgb(0,69,134)" stroke-linejoin="round" d="M 6689,1887 L 6689,2137 6939,2137 6939,1887 6689,1887 Z"/>
 <path fill="rgb(0,69,134)" stroke="none" d="M 7370,1756 L 7370,2006 7619,2006 7619,1756 7370,1756 Z"/>
 <path fill="none" stroke="rgb(0,69,134)" stroke-linejoin="round" d="M 7370,1756 L 7370,2006 7619,2006 7619,1756 7370,1756 Z"/>
 <path fill="rgb(0,69,134)" stroke="none" d="M 8094,1613 L 8094,1863 8344,1863 8344,1613 8094,1613 Z"/>
 <path fill="none" stroke="rgb(0,69,134)" stroke-linejoin="round" d="M 8094,1613 L 8094,1863 8344,1863 8344,1613 8094,1613 Z"/>
 <path fill="rgb(0,69,134)" stroke="none" d="M 8863,1467 L 8863,1717 9113,1717 9113,1467 8863,1467 Z"/>
 <path fill="none" stroke="rgb(0,69,134)" stroke-linejoin="round" d="M 8863,1467 L 8863,1717 9113,1717 9113,1467 8863,1467 Z"/>
 <path fill="rgb(0,69,134)" stroke="none" d="M 9676,1306 L 9676,1556 9926,1556 9926,1306 9676,1306 Z"/>
 <path fill="none" stroke="rgb(0,69,134)" stroke-linejoin="round" d="M 9676,1306 L 9676,1556 9926,1556 9926,1306 9676,1306 Z"/>
 <path fill="rgb(0,69,134)" stroke="none" d="M 10532,1141 L 10532,1391 10782,1391 10782,1141 10532,1141 Z"/>
 <path fill="none" stroke="rgb(0,69,134)" stroke-linejoin="round" d="M 10532,1141 L 10532,1391 10782,1391 10782,1141 10532,1141 Z"/>
 <path fill="rgb(0,69,134)" stroke="none" d="M 11433,968 L 11433,1218 11683,1218 11683,968 11433,968 Z"/>
 <path fill="none" stroke="rgb(0,69,134)" stroke-linejoin="round" d="M 11433,968 L 11433,1218 11683,1218 11683,968 11433,968 Z"/>
 <path fill="rgb(0,69,134)" stroke="none" d="M 12377,783 L 12377,1033 12627,1033 12627,783 12377,783 Z"/>
 <path fill="none" stroke="rgb(0,69,134)" stroke-linejoin="round" d="M 12377,783 L 12377,1033 12627,1033 12627,783 12377,783 Z"/>
 <path fill="rgb(0,69,134)" stroke="none" d="M 13366,592 L 13366,842 13616,842 13616,592 13366,592 Z"/>
 <path fill="none" stroke="rgb(0,69,134)" stroke-linejoin="round" d="M 13366,592 L 13366,842 13616,842 13616,592 13366,592 Z"/>
 <path fill="none" stroke="rgb(0,69,134)" stroke-linejoin="round" d="M 1873,2975 L 14172,581"/>
 <text class="SVGTextShape"><tspan class="TextParagraph" font-family="Liberation Sans, sans-serif" font-size="353px" font-weight="400"><tspan class="TextPosition" x="1780" y="8493"><tspan fill="rgb(0,0,0)" stroke="none" style="white-space: pre">0</tspan></tspan></tspan></text>
 <text class="SVGTextShape"><tspan class="TextParagraph" font-family="Liberation Sans, sans-serif" font-size="353px" font-weight="400"><tspan class="TextPosition" x="3259" y="8493"><tspan fill="rgb(0,0,0)" stroke="none" style="white-space: pre">2000</tspan></tspan></tspan></text>
 <text class="SVGTextShape"><tspan class="TextParagraph" font-family="Liberation Sans, sans-serif" font-size="353px" font-weight="400"><tspan class="TextPosition" x="5016" y="8493"><tspan fill="rgb(0,0,0)" stroke="none" style="white-space: pre">4000</tspan></tspan></tspan></text>
 <text class="SVGTextShape"><tspan class="TextParagraph" font-family="Liberation Sans, sans-serif" font-size="353px" font-weight="400"><tspan class="TextPosition" x="6773" y="8493"><tspan fill="rgb(0,0,0)" stroke="none" style="white-space: pre">6000</tspan></tspan></tspan></text>
 <text class="SVGTextShape"><tspan class="TextParagraph" font-family="Liberation Sans, sans-serif" font-size="353px" font-weight="400"><tspan class="TextPosition" x="8530" y="8493"><tspan fill="rgb(0,0,0)" stroke="none" style="white-space: pre">8000</tspan></tspan></tspan></text>
 <text class="SVGTextShape"><tspan class="TextParagraph" font-family="Liberation Sans, sans-serif" font-size="353px" font-weight="400"><tspan class="TextPosition" x="10195" y="8493"><tspan fill="rgb(0,0,0)" stroke="none" style="white-space: pre">10000</tspan></tspan></tspan></text>
 <text class="SVGTextShape"><tspan class="TextParagraph" font-family="Liberation Sans, sans-serif" font-size="353px" font-weight="400"><tspan class="TextPosition" x="11952" y="8493"><tspan fill="rgb(0,0,0)" stroke="none" style="white-space: pre">12000</tspan></tspan></tspan></text>
 <text class="SVGTextShape"><tspan class="TextParagraph" font-family="Liberation Sans, sans-serif" font-size="353px" font-weight="400"><tspan class="TextPosition" x="13710" y="8493"><tspan fill="rgb(0,0,0)" stroke="none" style="white-space: pre">14000</tspan></tspan></tspan></text>
 <text class="SVGTextShape"><tspan class="TextParagraph" font-family="Liberation Sans, sans-serif" font-size="353px" font-weight="400"><tspan class="TextPosition" x="1438" y="8046"><tspan fill="rgb(0,0,0)" stroke="none" style="white-space: pre">0</tspan></tspan></tspan></text>
 <text class="SVGTextShape"><tspan class="TextParagraph" font-family="Liberation Sans, sans-serif" font-size="353px" font-weight="400"><tspan class="TextPosition" x="882" y="7097"><tspan fill="rgb(0,0,0)" stroke="none" style="white-space: pre">1000</tspan></tspan></tspan></text>
 <text class="SVGTextShape"><tspan class="TextParagraph" font-family="Liberation Sans, sans-serif" font-size="353px" font-weight="400"><tspan class="TextPosition" x="882" y="6148"><tspan fill="rgb(0,0,0)" stroke="none" style="white-space: pre">2000</tspan></tspan></tspan></text>
 <text class="SVGTextShape"><tspan class="TextParagraph" font-family="Liberation Sans, sans-serif" font-size="353px" font-weight="400"><tspan class="TextPosition" x="882" y="5200"><tspan fill="rgb(0,0,0)" stroke="none" style="white-space: pre">3000</tspan></tspan></tspan></text>
 <text class="SVGTextShape"><tspan class="TextParagraph" font-family="Liberation Sans, sans-serif" font-size="353px" font-weight="400"><tspan class="TextPosition" x="882" y="4252"><tspan fill="rgb(0,0,0)" stroke="none" style="white-space: pre">4000</tspan></tspan></tspan></text>
 <text class="SVGTextShape"><tspan class="TextParagraph" font-family="Liberation Sans, sans-serif" font-size="353px" font-weight="400"><tspan class="TextPosition" x="882" y="3303"><tspan fill="rgb(0,0,0)" stroke="none" style="white-space: pre">5000</tspan></tspan></tspan></text>
 <text class="SVGTextShape"><tspan class="TextParagraph" font-family="Liberation Sans, sans-serif" font-size="353px" font-weight="400"><tspan class="TextPosition" x="882" y="2355"><tspan fill="rgb(0,0,0)" stroke="none" style="white-space: pre">6000</tspan></tspan></tspan></text>
 <text class="SVGTextShape"><tspan class="TextParagraph" font-family="Liberation Sans, sans-serif" font-size="353px" font-weight="400"><tspan class="TextPosition" x="882" y="1406"><tspan fill="rgb(0,0,0)" stroke="none" style="white-space: pre">7000</tspan></tspan></tspan></text>
 <text class="SVGTextShape"><tspan class="TextParagraph" font-family="Liberation Sans, sans-serif" font-size="353px" font-weight="400"><tspan class="TextPosition" x="882" y="458"><tspan fill="rgb(0,0,0)" stroke="none" style="white-space: pre">8000</tspan></tspan></tspan></text>
 <text class="SVGTextShape"><tspan class="TextParagraph" font-family="Liberation Sans, sans-serif" font-size="353px" font-weight="400"><tspan class="TextPosition" x="6590" y="3637"><tspan fill="rgb(0,0,0)" stroke="none" style="white-space: pre">f(x) = 0.18 x + 5218.23</tspan></tspan></tspan></text>
 <text class="SVGTextShape"><tspan class="TextParagraph" font-family="Liberation Sans, sans-serif" font-size="318px" font-weight="400"><tspan class="TextPosition" x="6978" y="9051"><tspan fill="rgb(0,0,0)" stroke="none" style="white-space: pre">nu^2, Гц^2</tspan></tspan></tspan></text>
 <text class="SVGTextShape" transform="rotate(-90 409 4779)"><tspan class="TextParagraph" font-family="Liberation Sans, sans-serif" font-size="318px" font-weight="400"><tspan class="TextPosition" x="409" y="4779"><tspan fill="rgb(0,0,0)" stroke="none" style="white-space: pre">1/xi^2</tspan></tspan></tspan></text>
</svg>