<?xml version="1.0" encoding="UTF-8"?>
<!DOCTYPE svg PUBLIC "-//W3C//DTD SVG 1.1//EN" "http://www.w3.org/Graphics/SVG/1.1/DTD/svg11.dtd">
<svg width="211mm" height="126mm" viewBox="0 0 21100 12600" version="1.1" xmlns="http://www.w3.org/2000/svg" xmlns:xlink="http://www.w3.org/1999/xlink" stroke-width="28.222" stroke-linejoin="round" xml:space="preserve">
 <path fill="rgb(255,255,255)" stroke="none" d="M 10515,12585 L -13,12585 -13,-13 21043,-13 21043,12585 10515,12585 Z"/>
 <path fill="none" stroke="rgb(179,179,179)" stroke-linejoin="round" d="M 11116,10994 L 1900,10994 1900,1271 20333,1271 20333,10994 11116,10994 Z"/>
 <path fill="none" stroke="rgb(179,179,179)" stroke-linejoin="round" d="M 20333,10993 L 1900,10993"/>
 <path fill="none" stroke="rgb(179,179,179)" stroke-linejoin="round" d="M 20333,9603 L 1900,9603"/>
 <path fill="none" stroke="rgb(179,179,179)" stroke-linejoin="round" d="M 20333,8214 L 1900,8214"/>
 <path fill="none" stroke="rgb(179,179,179)" stroke-linejoin="round" d="M 20333,6825 L 1900,6825"/>
 <path fill="none" stroke="rgb(179,179,179)" stroke-linejoin="round" d="M 20333,5437 L 1900,5437"/>
 <path fill="none" stroke="rgb(179,179,179)" stroke-linejoin="round" d="M 20333,4048 L 1900,4048"/>
 <path fill="none" stroke="rgb(179,179,179)" stroke-linejoin="round" d="M 20333,2659 L 1900,2659"/>
 <path fill="none" stroke="rgb(179,179,179)" stroke-linejoin="round" d="M 20333,1269 L 1900,1269"/>
 <path fill="none" stroke="rgb(179,179,179)" stroke-linejoin="round" d="M 1900,11143 L 1900,10993"/>
 <path fill="none" stroke="rgb(179,179,179)" stroke-linejoin="round" d="M 1900,11143 L 1900,10993"/>
 <path fill="none" stroke="rgb(179,179,179)" stroke-linejoin="round" d="M 4533,11143 L 4533,10993"/>
 <path fill="none" stroke="rgb(179,179,179)" stroke-linejoin="round" d="M 4533,11143 L 4533,10993"/>
 <path fill="none" stroke="rgb(179,179,179)" stroke-linejoin="round" d="M 7166,11143 L 7166,10993"/>
 <path fill="none" stroke="rgb(179,179,179)" stroke-linejoin="round" d="M 7166,11143 L 7166,10993"/>
 <path fill="none" stroke="rgb(179,179,179)" stroke-linejoin="round" d="M 9800,11143 L 9800,10993"/>
 <path fill="none" stroke="rgb(179,179,179)" stroke-linejoin="round" d="M 9800,11143 L 9800,10993"/>
 <path fill="none" stroke="rgb(179,179,179)" stroke-linejoin="round" d="M 12432,11143 L 12432,10993"/>
 <path fill="none" stroke="rgb(179,179,179)" stroke-linejoin="round" d="M 12432,11143 L 12432,10993"/>
 <path fill="none" stroke="rgb(179,179,179)" stroke-linejoin="round" d="M 15066,11143 L 15066,10993"/>
 <path fill="none" stroke="rgb(179,179,179)" stroke-linejoin="round" d="M 15066,11143 L 15066,10993"/>
 <path fill="none" stroke="rgb(179,179,179)" stroke-linejoin="round" d="M 17699,11143 L 17699,10993"/>
 <path fill="none" stroke="rgb(179,179,179)" stroke-linejoin="round" d="M 17699,11143 L 17699,10993"/>
 <path fill="none" stroke="rgb(179,179,179)" stroke-linejoin="round" d="M 20333,11143 L 20333,10993"/>
 <path fill="none" stroke="rgb(179,179,179)" stroke-linejoin="round" d="M 20333,11143 L 20333,10993"/>
 <path fill="none" stroke="rgb(179,179,179)" stroke-linejoin="round" d="M 1900,10993 L 20333,10993"/>
 <path fill="none" stroke="rgb(179,179,179)" stroke-linejoin="round" d="M 1750,10993 L 1900,10993"/>
 <path fill="none" stroke="rgb(179,179,179)" stroke-linejoin="round" d="M 1750,10993 L 1900,10993"/>
 <path fill="none" stroke="rgb(179,179,179)" stroke-linejoin="round" d="M 1750,9603 L 1900,9603"/>
 <path fill="none" stroke="rgb(179,179,179)" stroke-linejoin="round" d="M 1750,9603 L 1900,9603"/>
 <path fill="none" stroke="rgb(179,179,179)" stroke-linejoin="round" d="M 1750,8214 L 1900,8214"/>
 <path fill="none" stroke="rgb(179,179,179)" stroke-linejoin="round" d="M 1750,8214 L 1900,8214"/>
 <path fill="none" stroke="rgb(179,179,179)" stroke-linejoin="round" d="M 1750,6825 L 1900,6825"/>
 <path fill="none" stroke="rgb(179,179,179)" stroke-linejoin="round" d="M 1750,6825 L 1900,6825"/>
 <path fill="none" stroke="rgb(179,179,179)" stroke-linejoin="round" d="M 1750,5437 L 1900,5437"/>
 <path fill="none" stroke="rgb(179,179,179)" stroke-linejoin="round" d="M 1750,5437 L 1900,5437"/>
 <path fill="none" stroke="rgb(179,179,179)" stroke-linejoin="round" d="M 1750,4048 L 1900,4048"/>
 <path fill="none" stroke="rgb(179,179,179)" stroke-linejoin="round" d="M 1750,4048 L 1900,4048"/>
 <path fill="none" stroke="rgb(179,179,179)" stroke-linejoin="round" d="M 1750,2659 L 1900,2659"/>
 <path fill="none" stroke="rgb(179,179,179)" stroke-linejoin="round" d="M 1750,2659 L 1900,2659"/>
 <path fill="none" stroke="rgb(179,179,179)" stroke-linejoin="round" d="M 1750,1269 L 1900,1269"/>
 <path fill="none" stroke="rgb(179,179,179)" stroke-linejoin="round" d="M 1750,1269 L 1900,1269"/>
 <path fill="none" stroke="rgb(179,179,179)" stroke-linejoin="round" d="M 1900,10993 L 1900,1269"/>
 <path fill="rgb(0,69,134)" stroke="none" d="M 2565,8788 L 2565,9038 2815,9038 2815,8788 2565,8788 Z"/>
 <path fill="none" stroke="rgb(0,69,134)" stroke-linejoin="round" d="M 2565,8788 L 2565,9038 2815,9038 2815,8788 2565,8788 Z"/>
 <path fill="rgb(0,69,134)" stroke="none" d="M 3091,8627 L 3091,8877 3341,8877 3341,8627 3091,8627 Z"/>
 <path fill="none" stroke="rgb(0,69,134)" stroke-linejoin="round" d="M 3091,8627 L 3091,8877 3341,8877 3341,8627 3091,8627 Z"/>
 <path fill="rgb(0,69,134)" stroke="none" d="M 3618,8569 L 3618,8819 3868,8819 3868,8569 3618,8569 Z"/>
 <path fill="none" stroke="rgb(0,69,134)" stroke-linejoin="round" d="M 3618,8569 L 3618,8819 3868,8819 3868,8569 3618,8569 Z"/>
 <path fill="rgb(0,69,134)" stroke="none" d="M 4145,8440 L 4145,8690 4395,8690 4395,8440 4145,8440 Z"/>
 <path fill="none" stroke="rgb(0,69,134)" stroke-linejoin="round" d="M 4145,8440 L 4145,8690 4395,8690 4395,8440 4145,8440 Z"/>
 <path fill="rgb(0,69,134)" stroke="none" d="M 4671,8021 L 4671,8271 4921,8271 4921,8021 4671,8021 Z"/>
 <path fill="none" stroke="rgb(0,69,134)" stroke-linejoin="round" d="M 4671,8021 L 4671,8271 4921,8271 4921,8021 4671,8021 Z"/>
 <path fill="rgb(0,69,134)" stroke="none" d="M 5198,8227 L 5198,8477 5448,8477 5448,8227 5198,8227 Z"/>
 <path fill="none" stroke="rgb(0,69,134)" stroke-linejoin="round" d="M 5198,8227 L 5198,8477 5448,8477 5448,8227 5198,8227 Z"/>
 <path fill="rgb(0,69,134)" stroke="none" d="M 5988,7759 L 5988,8009 6238,8009 6238,7759 5988,7759 Z"/>
 <path fill="none" stroke="rgb(0,69,134)" stroke-linejoin="round" d="M 5988,7759 L 5988,8009 6238,8009 6238,7759 5988,7759 Z"/>
 <path fill="rgb(0,69,134)" stroke="none" d="M 6515,7644 L 6515,7894 6765,7894 6765,7644 6515,7644 Z"/>
 <path fill="none" stroke="rgb(0,69,134)" stroke-linejoin="round" d="M 6515,7644 L 6515,7894 6765,7894 6765,7644 6515,7644 Z"/>
 <path fill="rgb(0,69,134)" stroke="none" d="M 7041,7509 L 7041,7759 7291,7759 7291,7509 7041,7509 Z"/>
 <path fill="none" stroke="rgb(0,69,134)" stroke-linejoin="round" d="M 7041,7509 L 7041,7759 7291,7759 7291,7509 7041,7509 Z"/>
 <path fill="rgb(0,69,134)" stroke="none" d="M 7568,7247 L 7568,7497 7818,7497 7818,7247 7568,7247 Z"/>
 <path fill="none" stroke="rgb(0,69,134)" stroke-linejoin="round" d="M 7568,7247 L 7568,7497 7818,7497 7818,7247 7568,7247 Z"/>
 <path fill="rgb(0,69,134)" stroke="none" d="M 8095,7044 L 8095,7294 8345,7294 8345,7044 8095,7044 Z"/>
 <path fill="none" stroke="rgb(0,69,134)" stroke-linejoin="round" d="M 8095,7044 L 8095,7294 8345,7294 8345,7044 8095,7044 Z"/>
 <path fill="rgb(0,69,134)" stroke="none" d="M 8621,6793 L 8621,7043 8871,7043 8871,6793 8621,6793 Z"/>
 <path fill="none" stroke="rgb(0,69,134)" stroke-linejoin="round" d="M 8621,6793 L 8621,7043 8871,7043 8871,6793 8621,6793 Z"/>
 <path fill="rgb(0,69,134)" stroke="none" d="M 11781,5780 L 11781,6030 12031,6030 12031,5780 11781,5780 Z"/>
 <path fill="none" stroke="rgb(0,69,134)" stroke-linejoin="round" d="M 11781,5780 L 11781,6030 12031,6030 12031,5780 11781,5780 Z"/>
 <path fill="rgb(0,69,134)" stroke="none" d="M 14941,4348 L 14941,4598 15191,4598 15191,4348 14941,4348 Z"/>
 <path fill="none" stroke="rgb(0,69,134)" stroke-linejoin="round" d="M 14941,4348 L 14941,4598 15191,4598 15191,4348 14941,4348 Z"/>
 <path fill="rgb(0,69,134)" stroke="none" d="M 18101,2318 L 18101,2568 18351,2568 18351,2318 18101,2318 Z"/>
 <path fill="none" stroke="rgb(0,69,134)" stroke-linejoin="round" d="M 18101,2318 L 18101,2568 18351,2568 18351,2318 18101,2318 Z"/>
 <path fill="none" stroke="rgb(0,0,0)" stroke-linejoin="round" d="M 2690,8983 L 2690,8913 2690,8842"/>
 <path fill="none" stroke="rgb(0,0,0)" stroke-linejoin="round" d="M 2790,8983 L 2590,8983"/>
 <path fill="none" stroke="rgb(0,0,0)" stroke-linejoin="round" d="M 2590,8842 L 2790,8842"/>
 <path fill="none" stroke="rgb(0,0,0)" stroke-linejoin="round" d="M 3216,8792 L 3216,8752 3216,8712"/>
 <path fill="none" stroke="rgb(0,0,0)" stroke-linejoin="round" d="M 3316,8792 L 3116,8792"/>
 <path fill="none" stroke="rgb(0,0,0)" stroke-linejoin="round" d="M 3116,8712 L 3316,8712"/>
 <path fill="none" stroke="rgb(0,0,0)" stroke-linejoin="round" d="M 3743,8738 L 3743,8694 3743,8650"/>
 <path fill="none" stroke="rgb(0,0,0)" stroke-linejoin="round" d="M 3843,8738 L 3643,8738"/>
 <path fill="none" stroke="rgb(0,0,0)" stroke-linejoin="round" d="M 3643,8650 L 3843,8650"/>
 <path fill="none" stroke="rgb(0,0,0)" stroke-linejoin="round" d="M 4270,8614 L 4270,8565 4270,8517"/>
 <path fill="none" stroke="rgb(0,0,0)" stroke-linejoin="round" d="M 4370,8614 L 4170,8614"/>
 <path fill="none" stroke="rgb(0,0,0)" stroke-linejoin="round" d="M 4170,8517 L 4370,8517"/>
 <path fill="none" stroke="rgb(0,0,0)" stroke-linejoin="round" d="M 4796,8203 L 4796,8146 4796,8090"/>
 <path fill="none" stroke="rgb(0,0,0)" stroke-linejoin="round" d="M 4896,8203 L 4696,8203"/>
 <path fill="none" stroke="rgb(0,0,0)" stroke-linejoin="round" d="M 4696,8090 L 4896,8090"/>
 <path fill="none" stroke="rgb(0,0,0)" stroke-linejoin="round" d="M 5323,8409 L 5323,8352 5323,8294"/>
 <path fill="none" stroke="rgb(0,0,0)" stroke-linejoin="round" d="M 5423,8409 L 5223,8409"/>
 <path fill="none" stroke="rgb(0,0,0)" stroke-linejoin="round" d="M 5223,8294 L 5423,8294"/>
 <path fill="none" stroke="rgb(0,0,0)" stroke-linejoin="round" d="M 6113,7952 L 6113,7884 6113,7815"/>
 <path fill="none" stroke="rgb(0,0,0)" stroke-linejoin="round" d="M 6213,7952 L 6013,7952"/>
 <path fill="none" stroke="rgb(0,0,0)" stroke-linejoin="round" d="M 6013,7815 L 6213,7815"/>
 <path fill="none" stroke="rgb(0,0,0)" stroke-linejoin="round" d="M 6640,7842 L 6640,7769 6640,7695"/>
 <path fill="none" stroke="rgb(0,0,0)" stroke-linejoin="round" d="M 6740,7842 L 6540,7842"/>
 <path fill="none" stroke="rgb(0,0,0)" stroke-linejoin="round" d="M 6540,7695 L 6740,7695"/>
 <path fill="none" stroke="rgb(0,0,0)" stroke-linejoin="round" d="M 7166,7714 L 7166,7634 7166,7555"/>
 <path fill="none" stroke="rgb(0,0,0)" stroke-linejoin="round" d="M 7266,7714 L 7066,7714"/>
 <path fill="none" stroke="rgb(0,0,0)" stroke-linejoin="round" d="M 7066,7555 L 7266,7555"/>
 <path fill="none" stroke="rgb(0,0,0)" stroke-linejoin="round" d="M 7693,7457 L 7693,7372 7693,7286"/>
 <path fill="none" stroke="rgb(0,0,0)" stroke-linejoin="round" d="M 7793,7457 L 7593,7457"/>
 <path fill="none" stroke="rgb(0,0,0)" stroke-linejoin="round" d="M 7593,7286 L 7793,7286"/>
 <path fill="none" stroke="rgb(0,0,0)" stroke-linejoin="round" d="M 8220,7262 L 8220,7169 8220,7075"/>
 <path fill="none" stroke="rgb(0,0,0)" stroke-linejoin="round" d="M 8320,7262 L 8120,7262"/>
 <path fill="none" stroke="rgb(0,0,0)" stroke-linejoin="round" d="M 8120,7075 L 8320,7075"/>
 <path fill="none" stroke="rgb(0,0,0)" stroke-linejoin="round" d="M 8746,7020 L 8746,6918 8746,6815"/>
 <path fill="none" stroke="rgb(0,0,0)" stroke-linejoin="round" d="M 8846,7020 L 8646,7020"/>
 <path fill="none" stroke="rgb(0,0,0)" stroke-linejoin="round" d="M 8646,6815 L 8846,6815"/>
 <path fill="none" stroke="rgb(0,0,0)" stroke-linejoin="round" d="M 11906,5958 L 11906,5905 11906,5853"/>
 <path fill="none" stroke="rgb(0,0,0)" stroke-linejoin="round" d="M 12006,5958 L 11806,5958"/>
 <path fill="none" stroke="rgb(0,0,0)" stroke-linejoin="round" d="M 11806,5853 L 12006,5853"/>
 <path fill="none" stroke="rgb(0,0,0)" stroke-linejoin="round" d="M 15066,4536 L 15066,4473 15066,4409"/>
 <path fill="none" stroke="rgb(0,0,0)" stroke-linejoin="round" d="M 15166,4536 L 14966,4536"/>
 <path fill="none" stroke="rgb(0,0,0)" stroke-linejoin="round" d="M 14966,4409 L 15166,4409"/>
 <path fill="none" stroke="rgb(0,0,0)" stroke-linejoin="round" d="M 18226,2530 L 18226,2443 18226,2356"/>
 <path fill="none" stroke="rgb(0,0,0)" stroke-linejoin="round" d="M 18326,2530 L 18126,2530"/>
 <path fill="none" stroke="rgb(0,0,0)" stroke-linejoin="round" d="M 18126,2356 L 18326,2356"/>
 <path fill="none" stroke="rgb(0,69,134)" stroke-linejoin="round" d="M 2690,9217 L 18226,3029"/>
 <text class="SVGTextShape"><tspan class="TextParagraph" font-family="Liberation Sans, sans-serif" font-size="353px" font-weight="400"><tspan class="TextPosition" x="1622" y="11561"><tspan fill="rgb(0,0,0)" stroke="none" style="white-space: pre">100</tspan></tspan></tspan></text>
 <text class="SVGTextShape"><tspan class="TextParagraph" font-family="Liberation Sans, sans-serif" font-size="353px" font-weight="400"><tspan class="TextPosition" x="4255" y="11561"><tspan fill="rgb(0,0,0)" stroke="none" style="white-space: pre">150</tspan></tspan></tspan></text>
 <text class="SVGTextShape"><tspan class="TextParagraph" font-family="Liberation Sans, sans-serif" font-size="353px" font-weight="400"><tspan class="TextPosition" x="6888" y="11561"><tspan fill="rgb(0,0,0)" stroke="none" style="white-space: pre">200</tspan></tspan></tspan></text>
 <text class="SVGTextShape"><tspan class="TextParagraph" font-family="Liberation Sans, sans-serif" font-size="353px" font-weight="400"><tspan class="TextPosition" x="9522" y="11561"><tspan fill="rgb(0,0,0)" stroke="none" style="white-space: pre">250</tspan></tspan></tspan></text>
 <text class="SVGTextShape"><tspan class="TextParagraph" font-family="Liberation Sans, sans-serif" font-size="353px" font-weight="400"><tspan class="TextPosition" x="12155" y="11561"><tspan fill="rgb(0,0,0)" stroke="none" style="white-space: pre">300</tspan></tspan></tspan></text>
 <text class="SVGTextShape"><tspan class="TextParagraph" font-family="Liberation Sans, sans-serif" font-size="353px" font-weight="400"><tspan class="TextPosition" x="14789" y="11561"><tspan fill="rgb(0,0,0)" stroke="none" style="white-space: pre">350</tspan></tspan></tspan></text>
 <text class="SVGTextShape"><tspan class="TextParagraph" font-family="Liberation Sans, sans-serif" font-size="353px" font-weight="400"><tspan class="TextPosition" x="17422" y="11561"><tspan fill="rgb(0,0,0)" stroke="none" style="white-space: pre">400</tspan></tspan></tspan></text>
 <text class="SVGTextShape"><tspan class="TextParagraph" font-family="Liberation Sans, sans-serif" font-size="353px" font-weight="400"><tspan class="TextPosition" x="20056" y="11561"><tspan fill="rgb(0,0,0)" stroke="none" style="white-space: pre">450</tspan></tspan></tspan></text>
 <text class="SVGTextShape"><tspan class="TextParagraph" font-family="Liberation Sans, sans-serif" font-size="353px" font-weight="400"><tspan class="TextPosition" x="1465" y="11114"><tspan fill="rgb(0,0,0)" stroke="none" style="white-space: pre">0</tspan></tspan></tspan></text>
 <text class="SVGTextShape"><tspan class="TextParagraph" font-family="Liberation Sans, sans-serif" font-size="353px" font-weight="400"><tspan class="TextPosition" x="1174" y="9724"><tspan fill="rgb(0,0,0)" stroke="none" style="white-space: pre">0.5</tspan></tspan></tspan></text>
 <text class="SVGTextShape"><tspan class="TextParagraph" font-family="Liberation Sans, sans-serif" font-size="353px" font-weight="400"><tspan class="TextPosition" x="1465" y="8335"><tspan fill="rgb(0,0,0)" stroke="none" style="white-space: pre">1</tspan></tspan></tspan></text>
 <text class="SVGTextShape"><tspan class="TextParagraph" font-family="Liberation Sans, sans-serif" font-size="353px" font-weight="400"><tspan class="TextPosition" x="1174" y="6946"><tspan fill="rgb(0,0,0)" stroke="none" style="white-space: pre">1.5</tspan></tspan></tspan></text>
 <text class="SVGTextShape"><tspan class="TextParagraph" font-family="Liberation Sans, sans-serif" font-size="353px" font-weight="400"><tspan class="TextPosition" x="1465" y="5557"><tspan fill="rgb(0,0,0)" stroke="none" style="white-space: pre">2</tspan></tspan></tspan></text>
 <text class="SVGTextShape"><tspan class="TextParagraph" font-family="Liberation Sans, sans-serif" font-size="353px" font-weight="400"><tspan class="TextPosition" x="1174" y="4168"><tspan fill="rgb(0,0,0)" stroke="none" style="white-space: pre">2.5</tspan></tspan></tspan></text>
 <text class="SVGTextShape"><tspan class="TextParagraph" font-family="Liberation Sans, sans-serif" font-size="353px" font-weight="400"><tspan class="TextPosition" x="1465" y="2779"><tspan fill="rgb(0,0,0)" stroke="none" style="white-space: pre">3</tspan></tspan></tspan></text>
 <text class="SVGTextShape"><tspan class="TextParagraph" font-family="Liberation Sans, sans-serif" font-size="353px" font-weight="400"><tspan class="TextPosition" x="1174" y="1389"><tspan fill="rgb(0,0,0)" stroke="none" style="white-space: pre">3.5</tspan></tspan></tspan></text>
 <text class="SVGTextShape"><tspan class="TextParagraph" font-family="Liberation Sans, sans-serif" font-size="353px" font-weight="400"><tspan class="TextPosition" x="4068" y="4842"><tspan fill="rgb(0,0,0)" stroke="none" style="white-space: pre">f(x) = 0.0076 x − 0.2292</tspan></tspan></tspan></text>
 <text class="SVGTextShape"><tspan class="TextParagraph" font-family="Liberation Sans, sans-serif" font-size="459px" font-weight="400"><tspan class="TextPosition" x="9880" y="909"><tspan fill="rgb(0,0,0)" stroke="none" style="white-space: pre">tg(psi)</tspan></tspan></tspan></text>
 <text class="SVGTextShape"><tspan class="TextParagraph" font-family="Liberation Sans, sans-serif" font-size="318px" font-weight="400"><tspan class="TextPosition" x="10430" y="12279"><tspan fill="rgb(0,0,0)" stroke="none" style="white-space: pre">nu, Hz</tspan></tspan></tspan></text>
 <text class="SVGTextShape" transform="rotate(-90 578 6805)"><tspan class="TextParagraph" font-family="Liberation Sans, sans-serif" font-size="318px" font-weight="400"><tspan class="TextPosition" x="578" y="6805"><tspan fill="rgb(0,0,0)" stroke="none" style="white-space: pre">tg(psi)</tspan></tspan></tspan></text>
</svg>