<?xml version="1.0" encoding="UTF-8"?>
<!DOCTYPE svg PUBLIC "-//W3C//DTD SVG 1.1//EN" "http://www.w3.org/Graphics/SVG/1.1/DTD/svg11.dtd">
<svg width="192mm" height="118mm" viewBox="0 0 19200 11800" version="1.1" xmlns="http://www.w3.org/2000/svg" xmlns:xlink="http://www.w3.org/1999/xlink" stroke-width="28.222" stroke-linejoin="round" xml:space="preserve">
 <path fill="rgb(255,255,255)" stroke="none" d="M 9573,11765 L -13,11765 -13,-13 19159,-13 19159,11765 9573,11765 Z"/>
 <path fill="none" stroke="rgb(179,179,179)" stroke-linejoin="round" d="M 10322,9902 L 2293,9902 2293,1571 18351,1571 18351,9902 10322,9902 Z"/>
 <path fill="none" stroke="rgb(179,179,179)" stroke-linejoin="round" d="M 18351,9901 L 2293,9901"/>
 <path fill="none" stroke="rgb(179,179,179)" stroke-linejoin="round" d="M 18351,9067 L 2293,9067"/>
 <path fill="none" stroke="rgb(179,179,179)" stroke-linejoin="round" d="M 18351,8234 L 2293,8234"/>
 <path fill="none" stroke="rgb(179,179,179)" stroke-linejoin="round" d="M 18351,7401 L 2293,7401"/>
 <path fill="none" stroke="rgb(179,179,179)" stroke-linejoin="round" d="M 18351,6568 L 2293,6568"/>
 <path fill="none" stroke="rgb(179,179,179)" stroke-linejoin="round" d="M 18351,5736 L 2293,5736"/>
 <path fill="none" stroke="rgb(179,179,179)" stroke-linejoin="round" d="M 18351,4902 L 2293,4902"/>
 <path fill="none" stroke="rgb(179,179,179)" stroke-linejoin="round" d="M 18351,4069 L 2293,4069"/>
 <path fill="none" stroke="rgb(179,179,179)" stroke-linejoin="round" d="M 18351,3236 L 2293,3236"/>
 <path fill="none" stroke="rgb(179,179,179)" stroke-linejoin="round" d="M 18351,2403 L 2293,2403"/>
 <path fill="none" stroke="rgb(179,179,179)" stroke-linejoin="round" d="M 18351,1570 L 2293,1570"/>
 <path fill="none" stroke="rgb(179,179,179)" stroke-linejoin="round" d="M 2293,10051 L 2293,9901"/>
 <path fill="none" stroke="rgb(179,179,179)" stroke-linejoin="round" d="M 2293,10051 L 2293,9901"/>
 <path fill="none" stroke="rgb(179,179,179)" stroke-linejoin="round" d="M 4587,10051 L 4587,9901"/>
 <path fill="none" stroke="rgb(179,179,179)" stroke-linejoin="round" d="M 4587,10051 L 4587,9901"/>
 <path fill="none" stroke="rgb(179,179,179)" stroke-linejoin="round" d="M 6881,10051 L 6881,9901"/>
 <path fill="none" stroke="rgb(179,179,179)" stroke-linejoin="round" d="M 6881,10051 L 6881,9901"/>
 <path fill="none" stroke="rgb(179,179,179)" stroke-linejoin="round" d="M 9175,10051 L 9175,9901"/>
 <path fill="none" stroke="rgb(179,179,179)" stroke-linejoin="round" d="M 9175,10051 L 9175,9901"/>
 <path fill="none" stroke="rgb(179,179,179)" stroke-linejoin="round" d="M 11468,10051 L 11468,9901"/>
 <path fill="none" stroke="rgb(179,179,179)" stroke-linejoin="round" d="M 11468,10051 L 11468,9901"/>
 <path fill="none" stroke="rgb(179,179,179)" stroke-linejoin="round" d="M 13762,10051 L 13762,9901"/>
 <path fill="none" stroke="rgb(179,179,179)" stroke-linejoin="round" d="M 13762,10051 L 13762,9901"/>
 <path fill="none" stroke="rgb(179,179,179)" stroke-linejoin="round" d="M 16056,10051 L 16056,9901"/>
 <path fill="none" stroke="rgb(179,179,179)" stroke-linejoin="round" d="M 16056,10051 L 16056,9901"/>
 <path fill="none" stroke="rgb(179,179,179)" stroke-linejoin="round" d="M 18351,10051 L 18351,9901"/>
 <path fill="none" stroke="rgb(179,179,179)" stroke-linejoin="round" d="M 18351,10051 L 18351,9901"/>
 <path fill="none" stroke="rgb(179,179,179)" stroke-linejoin="round" d="M 2293,9901 L 18351,9901"/>
 <path fill="none" stroke="rgb(179,179,179)" stroke-linejoin="round" d="M 2143,9901 L 2293,9901"/>
 <path fill="none" stroke="rgb(179,179,179)" stroke-linejoin="round" d="M 2143,9901 L 2293,9901"/>
 <path fill="none" stroke="rgb(179,179,179)" stroke-linejoin="round" d="M 2143,9067 L 2293,9067"/>
 <path fill="none" stroke="rgb(179,179,179)" stroke-linejoin="round" d="M 2143,9067 L 2293,9067"/>
 <path fill="none" stroke="rgb(179,179,179)" stroke-linejoin="round" d="M 2143,8234 L 2293,8234"/>
 <path fill="none" stroke="rgb(179,179,179)" stroke-linejoin="round" d="M 2143,8234 L 2293,8234"/>
 <path fill="none" stroke="rgb(179,179,179)" stroke-linejoin="round" d="M 2143,7401 L 2293,7401"/>
 <path fill="none" stroke="rgb(179,179,179)" stroke-linejoin="round" d="M 2143,7401 L 2293,7401"/>
 <path fill="none" stroke="rgb(179,179,179)" stroke-linejoin="round" d="M 2143,6568 L 2293,6568"/>
 <path fill="none" stroke="rgb(179,179,179)" stroke-linejoin="round" d="M 2143,6568 L 2293,6568"/>
 <path fill="none" stroke="rgb(179,179,179)" stroke-linejoin="round" d="M 2143,5736 L 2293,5736"/>
 <path fill="none" stroke="rgb(179,179,179)" stroke-linejoin="round" d="M 2143,5736 L 2293,5736"/>
 <path fill="none" stroke="rgb(179,179,179)" stroke-linejoin="round" d="M 2143,4902 L 2293,4902"/>
 <path fill="none" stroke="rgb(179,179,179)" stroke-linejoin="round" d="M 2143,4902 L 2293,4902"/>
 <path fill="none" stroke="rgb(179,179,179)" stroke-linejoin="round" d="M 2143,4069 L 2293,4069"/>
 <path fill="none" stroke="rgb(179,179,179)" stroke-linejoin="round" d="M 2143,4069 L 2293,4069"/>
 <path fill="none" stroke="rgb(179,179,179)" stroke-linejoin="round" d="M 2143,3236 L 2293,3236"/>
 <path fill="none" stroke="rgb(179,179,179)" stroke-linejoin="round" d="M 2143,3236 L 2293,3236"/>
 <path fill="none" stroke="rgb(179,179,179)" stroke-linejoin="round" d="M 2143,2403 L 2293,2403"/>
 <path fill="none" stroke="rgb(179,179,179)" stroke-linejoin="round" d="M 2143,2403 L 2293,2403"/>
 <path fill="none" stroke="rgb(179,179,179)" stroke-linejoin="round" d="M 2143,1570 L 2293,1570"/>
 <path fill="none" stroke="rgb(179,179,179)" stroke-linejoin="round" d="M 2143,1570 L 2293,1570"/>
 <path fill="none" stroke="rgb(179,179,179)" stroke-linejoin="round" d="M 2293,9901 L 2293,1570"/>
 <path fill="none" stroke="rgb(0,69,134)" stroke-width="80" stroke-linejoin="round" d="M 16653,2319 L 14359,3752 12615,5086 11285,6001 10137,6784 8959,7584 8028,8217 7307,8717 6638,9176 6179,9501 6082,9567 5991,9634 5949,9657 5894,9701 5821,9746 5734,9807 5688,9841 5669,9901 5637,9901 5564,9901 5376,9901 3669,9901 3417,9901 4247,9901 5284,9901 5435,9901 5578,9901 6560,9901 6560,9267 6743,9151 6817,9234 6954,8984 7087,8892 7606,8537 8133,8179 8684,7801 9578,7191 10720,6413 11743,5709 13028,4844 14290,3986 17492,2344"/>
 <path fill="rgb(0,69,134)" stroke="none" d="M 16528,2194 L 16528,2444 16778,2444 16778,2194 16528,2194 Z"/>
 <path fill="none" stroke="rgb(0,69,134)" stroke-linejoin="round" d="M 16528,2194 L 16528,2444 16778,2444 16778,2194 16528,2194 Z"/>
 <path fill="rgb(0,69,134)" stroke="none" d="M 14234,3627 L 14234,3877 14484,3877 14484,3627 14234,3627 Z"/>
 <path fill="none" stroke="rgb(0,69,134)" stroke-linejoin="round" d="M 14234,3627 L 14234,3877 14484,3877 14484,3627 14234,3627 Z"/>
 <path fill="rgb(0,69,134)" stroke="none" d="M 12490,4961 L 12490,5211 12740,5211 12740,4961 12490,4961 Z"/>
 <path fill="none" stroke="rgb(0,69,134)" stroke-linejoin="round" d="M 12490,4961 L 12490,5211 12740,5211 12740,4961 12490,4961 Z"/>
 <path fill="rgb(0,69,134)" stroke="none" d="M 11160,5876 L 11160,6126 11410,6126 11410,5876 11160,5876 Z"/>
 <path fill="none" stroke="rgb(0,69,134)" stroke-linejoin="round" d="M 11160,5876 L 11160,6126 11410,6126 11410,5876 11160,5876 Z"/>
 <path fill="rgb(0,69,134)" stroke="none" d="M 10012,6659 L 10012,6909 10262,6909 10262,6659 10012,6659 Z"/>
 <path fill="none" stroke="rgb(0,69,134)" stroke-linejoin="round" d="M 10012,6659 L 10012,6909 10262,6909 10262,6659 10012,6659 Z"/>
 <path fill="rgb(0,69,134)" stroke="none" d="M 8834,7459 L 8834,7709 9084,7709 9084,7459 8834,7459 Z"/>
 <path fill="none" stroke="rgb(0,69,134)" stroke-linejoin="round" d="M 8834,7459 L 8834,7709 9084,7709 9084,7459 8834,7459 Z"/>
 <path fill="rgb(0,69,134)" stroke="none" d="M 7903,8092 L 7903,8342 8153,8342 8153,8092 7903,8092 Z"/>
 <path fill="none" stroke="rgb(0,69,134)" stroke-linejoin="round" d="M 7903,8092 L 7903,8342 8153,8342 8153,8092 7903,8092 Z"/>
 <path fill="rgb(0,69,134)" stroke="none" d="M 7182,8592 L 7182,8842 7432,8842 7432,8592 7182,8592 Z"/>
 <path fill="none" stroke="rgb(0,69,134)" stroke-linejoin="round" d="M 7182,8592 L 7182,8842 7432,8842 7432,8592 7182,8592 Z"/>
 <path fill="rgb(0,69,134)" stroke="none" d="M 6513,9051 L 6513,9301 6763,9301 6763,9051 6513,9051 Z"/>
 <path fill="none" stroke="rgb(0,69,134)" stroke-linejoin="round" d="M 6513,9051 L 6513,9301 6763,9301 6763,9051 6513,9051 Z"/>
 <path fill="rgb(0,69,134)" stroke="none" d="M 6054,9376 L 6054,9626 6304,9626 6304,9376 6054,9376 Z"/>
 <path fill="none" stroke="rgb(0,69,134)" stroke-linejoin="round" d="M 6054,9376 L 6054,9626 6304,9626 6304,9376 6054,9376 Z"/>
 <path fill="rgb(0,69,134)" stroke="none" d="M 5957,9442 L 5957,9692 6207,9692 6207,9442 5957,9442 Z"/>
 <path fill="none" stroke="rgb(0,69,134)" stroke-linejoin="round" d="M 5957,9442 L 5957,9692 6207,9692 6207,9442 5957,9442 Z"/>
 <path fill="rgb(0,69,134)" stroke="none" d="M 5866,9509 L 5866,9759 6116,9759 6116,9509 5866,9509 Z"/>
 <path fill="none" stroke="rgb(0,69,134)" stroke-linejoin="round" d="M 5866,9509 L 5866,9759 6116,9759 6116,9509 5866,9509 Z"/>
 <path fill="rgb(0,69,134)" stroke="none" d="M 5824,9532 L 5824,9782 6074,9782 6074,9532 5824,9532 Z"/>
 <path fill="none" stroke="rgb(0,69,134)" stroke-linejoin="round" d="M 5824,9532 L 5824,9782 6074,9782 6074,9532 5824,9532 Z"/>
 <path fill="rgb(0,69,134)" stroke="none" d="M 5769,9576 L 5769,9826 6019,9826 6019,9576 5769,9576 Z"/>
 <path fill="none" stroke="rgb(0,69,134)" stroke-linejoin="round" d="M 5769,9576 L 5769,9826 6019,9826 6019,9576 5769,9576 Z"/>
 <path fill="rgb(0,69,134)" stroke="none" d="M 5696,9621 L 5696,9871 5946,9871 5946,9621 5696,9621 Z"/>
 <path fill="none" stroke="rgb(0,69,134)" stroke-linejoin="round" d="M 5696,9621 L 5696,9871 5946,9871 5946,9621 5696,9621 Z"/>
 <path fill="rgb(0,69,134)" stroke="none" d="M 5609,9682 L 5609,9932 5859,9932 5859,9682 5609,9682 Z"/>
 <path fill="none" stroke="rgb(0,69,134)" stroke-linejoin="round" d="M 5609,9682 L 5609,9932 5859,9932 5859,9682 5609,9682 Z"/>
 <path fill="rgb(0,69,134)" stroke="none" d="M 5563,9716 L 5563,9966 5813,9966 5813,9716 5563,9716 Z"/>
 <path fill="none" stroke="rgb(0,69,134)" stroke-linejoin="round" d="M 5563,9716 L 5563,9966 5813,9966 5813,9716 5563,9716 Z"/>
 <path fill="rgb(0,69,134)" stroke="none" d="M 5544,9776 L 5544,10026 5794,10026 5794,9776 5544,9776 Z"/>
 <path fill="none" stroke="rgb(0,69,134)" stroke-linejoin="round" d="M 5544,9776 L 5544,10026 5794,10026 5794,9776 5544,9776 Z"/>
 <path fill="rgb(0,69,134)" stroke="none" d="M 5512,9776 L 5512,10026 5762,10026 5762,9776 5512,9776 Z"/>
 <path fill="none" stroke="rgb(0,69,134)" stroke-linejoin="round" d="M 5512,9776 L 5512,10026 5762,10026 5762,9776 5512,9776 Z"/>
 <path fill="rgb(0,69,134)" stroke="none" d="M 5439,9776 L 5439,10026 5689,10026 5689,9776 5439,9776 Z"/>
 <path fill="none" stroke="rgb(0,69,134)" stroke-linejoin="round" d="M 5439,9776 L 5439,10026 5689,10026 5689,9776 5439,9776 Z"/>
 <path fill="rgb(0,69,134)" stroke="none" d="M 5251,9776 L 5251,10026 5501,10026 5501,9776 5251,9776 Z"/>
 <path fill="none" stroke="rgb(0,69,134)" stroke-linejoin="round" d="M 5251,9776 L 5251,10026 5501,10026 5501,9776 5251,9776 Z"/>
 <path fill="rgb(0,69,134)" stroke="none" d="M 3544,9776 L 3544,10026 3794,10026 3794,9776 3544,9776 Z"/>
 <path fill="none" stroke="rgb(0,69,134)" stroke-linejoin="round" d="M 3544,9776 L 3544,10026 3794,10026 3794,9776 3544,9776 Z"/>
 <path fill="rgb(0,69,134)" stroke="none" d="M 3292,9776 L 3292,10026 3542,10026 3542,9776 3292,9776 Z"/>
 <path fill="none" stroke="rgb(0,69,134)" stroke-linejoin="round" d="M 3292,9776 L 3292,10026 3542,10026 3542,9776 3292,9776 Z"/>
 <path fill="rgb(0,69,134)" stroke="none" d="M 4122,9776 L 4122,10026 4372,10026 4372,9776 4122,9776 Z"/>
 <path fill="none" stroke="rgb(0,69,134)" stroke-linejoin="round" d="M 4122,9776 L 4122,10026 4372,10026 4372,9776 4122,9776 Z"/>
 <path fill="rgb(0,69,134)" stroke="none" d="M 5159,9776 L 5159,10026 5409,10026 5409,9776 5159,9776 Z"/>
 <path fill="none" stroke="rgb(0,69,134)" stroke-linejoin="round" d="M 5159,9776 L 5159,10026 5409,10026 5409,9776 5159,9776 Z"/>
 <path fill="rgb(0,69,134)" stroke="none" d="M 5310,9776 L 5310,10026 5560,10026 5560,9776 5310,9776 Z"/>
 <path fill="none" stroke="rgb(0,69,134)" stroke-linejoin="round" d="M 5310,9776 L 5310,10026 5560,10026 5560,9776 5310,9776 Z"/>
 <path fill="rgb(0,69,134)" stroke="none" d="M 5453,9776 L 5453,10026 5703,10026 5703,9776 5453,9776 Z"/>
 <path fill="none" stroke="rgb(0,69,134)" stroke-linejoin="round" d="M 5453,9776 L 5453,10026 5703,10026 5703,9776 5453,9776 Z"/>
 <path fill="rgb(0,69,134)" stroke="none" d="M 6435,9776 L 6435,10026 6685,10026 6685,9776 6435,9776 Z"/>
 <path fill="none" stroke="rgb(0,69,134)" stroke-linejoin="round" d="M 6435,9776 L 6435,10026 6685,10026 6685,9776 6435,9776 Z"/>
 <path fill="rgb(0,69,134)" stroke="none" d="M 6435,9142 L 6435,9392 6685,9392 6685,9142 6435,9142 Z"/>
 <path fill="none" stroke="rgb(0,69,134)" stroke-linejoin="round" d="M 6435,9142 L 6435,9392 6685,9392 6685,9142 6435,9142 Z"/>
 <path fill="rgb(0,69,134)" stroke="none" d="M 6618,9026 L 6618,9276 6868,9276 6868,9026 6618,9026 Z"/>
 <path fill="none" stroke="rgb(0,69,134)" stroke-linejoin="round" d="M 6618,9026 L 6618,9276 6868,9276 6868,9026 6618,9026 Z"/>
 <path fill="rgb(0,69,134)" stroke="none" d="M 6692,9109 L 6692,9359 6942,9359 6942,9109 6692,9109 Z"/>
 <path fill="none" stroke="rgb(0,69,134)" stroke-linejoin="round" d="M 6692,9109 L 6692,9359 6942,9359 6942,9109 6692,9109 Z"/>
 <path fill="rgb(0,69,134)" stroke="none" d="M 6829,8859 L 6829,9109 7079,9109 7079,8859 6829,8859 Z"/>
 <path fill="none" stroke="rgb(0,69,134)" stroke-linejoin="round" d="M 6829,8859 L 6829,9109 7079,9109 7079,8859 6829,8859 Z"/>
 <path fill="rgb(0,69,134)" stroke="none" d="M 6962,8767 L 6962,9017 7212,9017 7212,8767 6962,8767 Z"/>
 <path fill="none" stroke="rgb(0,69,134)" stroke-linejoin="round" d="M 6962,8767 L 6962,9017 7212,9017 7212,8767 6962,8767 Z"/>
 <path fill="rgb(0,69,134)" stroke="none" d="M 7481,8412 L 7481,8662 7731,8662 7731,8412 7481,8412 Z"/>
 <path fill="none" stroke="rgb(0,69,134)" stroke-linejoin="round" d="M 7481,8412 L 7481,8662 7731,8662 7731,8412 7481,8412 Z"/>
 <path fill="rgb(0,69,134)" stroke="none" d="M 8008,8054 L 8008,8304 8258,8304 8258,8054 8008,8054 Z"/>
 <path fill="none" stroke="rgb(0,69,134)" stroke-linejoin="round" d="M 8008,8054 L 8008,8304 8258,8304 8258,8054 8008,8054 Z"/>
 <path fill="rgb(0,69,134)" stroke="none" d="M 8559,7676 L 8559,7926 8809,7926 8809,7676 8559,7676 Z"/>
 <path fill="none" stroke="rgb(0,69,134)" stroke-linejoin="round" d="M 8559,7676 L 8559,7926 8809,7926 8809,7676 8559,7676 Z"/>
 <path fill="rgb(0,69,134)" stroke="none" d="M 9454,7066 L 9454,7316 9703,7316 9703,7066 9454,7066 Z"/>
 <path fill="none" stroke="rgb(0,69,134)" stroke-linejoin="round" d="M 9454,7066 L 9454,7316 9703,7316 9703,7066 9454,7066 Z"/>
 <path fill="rgb(0,69,134)" stroke="none" d="M 10595,6288 L 10595,6538 10845,6538 10845,6288 10595,6288 Z"/>
 <path fill="none" stroke="rgb(0,69,134)" stroke-linejoin="round" d="M 10595,6288 L 10595,6538 10845,6538 10845,6288 10595,6288 Z"/>
 <path fill="rgb(0,69,134)" stroke="none" d="M 11618,5584 L 11618,5834 11868,5834 11868,5584 11618,5584 Z"/>
 <path fill="none" stroke="rgb(0,69,134)" stroke-linejoin="round" d="M 11618,5584 L 11618,5834 11868,5834 11868,5584 11618,5584 Z"/>
 <path fill="rgb(0,69,134)" stroke="none" d="M 12903,4719 L 12903,4969 13153,4969 13153,4719 12903,4719 Z"/>
 <path fill="none" stroke="rgb(0,69,134)" stroke-linejoin="round" d="M 12903,4719 L 12903,4969 13153,4969 13153,4719 12903,4719 Z"/>
 <path fill="rgb(0,69,134)" stroke="none" d="M 14165,3861 L 14165,4111 14415,4111 14415,3861 14165,3861 Z"/>
 <path fill="none" stroke="rgb(0,69,134)" stroke-linejoin="round" d="M 14165,3861 L 14165,4111 14415,4111 14415,3861 14165,3861 Z"/>
 <path fill="rgb(0,69,134)" stroke="none" d="M 17367,2219 L 17367,2469 17617,2469 17617,2219 17367,2219 Z"/>
 <path fill="none" stroke="rgb(0,69,134)" stroke-linejoin="round" d="M 17367,2219 L 17367,2469 17617,2469 17617,2219 17367,2219 Z"/>
 <text class="SVGTextShape"><tspan class="TextParagraph" font-family="Liberation Sans, sans-serif" font-size="353px" font-weight="400"><tspan class="TextPosition" x="2055" y="10469"><tspan fill="rgb(0,0,0)" stroke="none" style="white-space: pre">0.0</tspan></tspan></tspan></text>
 <text class="SVGTextShape"><tspan class="TextParagraph" font-family="Liberation Sans, sans-serif" font-size="353px" font-weight="400"><tspan class="TextPosition" x="4256" y="10469"><tspan fill="rgb(0,0,0)" stroke="none" style="white-space: pre">50.0</tspan></tspan></tspan></text>
 <text class="SVGTextShape"><tspan class="TextParagraph" font-family="Liberation Sans, sans-serif" font-size="353px" font-weight="400"><tspan class="TextPosition" x="6457" y="10469"><tspan fill="rgb(0,0,0)" stroke="none" style="white-space: pre">100.0</tspan></tspan></tspan></text>
 <text class="SVGTextShape"><tspan class="TextParagraph" font-family="Liberation Sans, sans-serif" font-size="353px" font-weight="400"><tspan class="TextPosition" x="8751" y="10469"><tspan fill="rgb(0,0,0)" stroke="none" style="white-space: pre">150.0</tspan></tspan></tspan></text>
 <text class="SVGTextShape"><tspan class="TextParagraph" font-family="Liberation Sans, sans-serif" font-size="353px" font-weight="400"><tspan class="TextPosition" x="11045" y="10469"><tspan fill="rgb(0,0,0)" stroke="none" style="white-space: pre">200.0</tspan></tspan></tspan></text>
 <text class="SVGTextShape"><tspan class="TextParagraph" font-family="Liberation Sans, sans-serif" font-size="353px" font-weight="400"><tspan class="TextPosition" x="13339" y="10469"><tspan fill="rgb(0,0,0)" stroke="none" style="white-space: pre">250.0</tspan></tspan></tspan></text>
 <text class="SVGTextShape"><tspan class="TextParagraph" font-family="Liberation Sans, sans-serif" font-size="353px" font-weight="400"><tspan class="TextPosition" x="15633" y="10469"><tspan fill="rgb(0,0,0)" stroke="none" style="white-space: pre">300.0</tspan></tspan></tspan></text>
 <text class="SVGTextShape"><tspan class="TextParagraph" font-family="Liberation Sans, sans-serif" font-size="353px" font-weight="400"><tspan class="TextPosition" x="17928" y="10469"><tspan fill="rgb(0,0,0)" stroke="none" style="white-space: pre">350.0</tspan></tspan></tspan></text>
 <text class="SVGTextShape"><tspan class="TextParagraph" font-family="Liberation Sans, sans-serif" font-size="353px" font-weight="400"><tspan class="TextPosition" x="1567" y="10022"><tspan fill="rgb(0,0,0)" stroke="none" style="white-space: pre">0.0</tspan></tspan></tspan></text>
 <text class="SVGTextShape"><tspan class="TextParagraph" font-family="Liberation Sans, sans-serif" font-size="353px" font-weight="400"><tspan class="TextPosition" x="1567" y="9188"><tspan fill="rgb(0,0,0)" stroke="none" style="white-space: pre">5.0</tspan></tspan></tspan></text>
 <text class="SVGTextShape"><tspan class="TextParagraph" font-family="Liberation Sans, sans-serif" font-size="353px" font-weight="400"><tspan class="TextPosition" x="1382" y="8355"><tspan fill="rgb(0,0,0)" stroke="none" style="white-space: pre">10.0</tspan></tspan></tspan></text>
 <text class="SVGTextShape"><tspan class="TextParagraph" font-family="Liberation Sans, sans-serif" font-size="353px" font-weight="400"><tspan class="TextPosition" x="1382" y="7522"><tspan fill="rgb(0,0,0)" stroke="none" style="white-space: pre">15.0</tspan></tspan></tspan></text>
 <text class="SVGTextShape"><tspan class="TextParagraph" font-family="Liberation Sans, sans-serif" font-size="353px" font-weight="400"><tspan class="TextPosition" x="1382" y="6689"><tspan fill="rgb(0,0,0)" stroke="none" style="white-space: pre">20.0</tspan></tspan></tspan></text>
 <text class="SVGTextShape"><tspan class="TextParagraph" font-family="Liberation Sans, sans-serif" font-size="353px" font-weight="400"><tspan class="TextPosition" x="1382" y="5856"><tspan fill="rgb(0,0,0)" stroke="none" style="white-space: pre">25.0</tspan></tspan></tspan></text>
 <text class="SVGTextShape"><tspan class="TextParagraph" font-family="Liberation Sans, sans-serif" font-size="353px" font-weight="400"><tspan class="TextPosition" x="1382" y="5022"><tspan fill="rgb(0,0,0)" stroke="none" style="white-space: pre">30.0</tspan></tspan></tspan></text>
 <text class="SVGTextShape"><tspan class="TextParagraph" font-family="Liberation Sans, sans-serif" font-size="353px" font-weight="400"><tspan class="TextPosition" x="1382" y="4189"><tspan fill="rgb(0,0,0)" stroke="none" style="white-space: pre">35.0</tspan></tspan></tspan></text>
 <text class="SVGTextShape"><tspan class="TextParagraph" font-family="Liberation Sans, sans-serif" font-size="353px" font-weight="400"><tspan class="TextPosition" x="1382" y="3356"><tspan fill="rgb(0,0,0)" stroke="none" style="white-space: pre">40.0</tspan></tspan></tspan></text>
 <text class="SVGTextShape"><tspan class="TextParagraph" font-family="Liberation Sans, sans-serif" font-size="353px" font-weight="400"><tspan class="TextPosition" x="1382" y="2523"><tspan fill="rgb(0,0,0)" stroke="none" style="white-space: pre">45.0</tspan></tspan></tspan></text>
 <text class="SVGTextShape"><tspan class="TextParagraph" font-family="Liberation Sans, sans-serif" font-size="353px" font-weight="400"><tspan class="TextPosition" x="1382" y="1690"><tspan fill="rgb(0,0,0)" stroke="none" style="white-space: pre">50.0</tspan></tspan></tspan></text>
 <text class="SVGTextShape"><tspan class="TextParagraph" font-family="Liberation Sans, sans-serif" font-size="459px" font-weight="400"><tspan class="TextPosition" x="9189" y="893"><tspan fill="rgb(0,0,0)" stroke="none" style="white-space: pre">I(U)</tspan></tspan></tspan></text>
 <text class="SVGTextShape"><tspan class="TextParagraph" font-family="Liberation Sans, sans-serif" font-size="318px" font-weight="400"><tspan class="TextPosition" x="9774" y="11171"><tspan fill="rgb(0,0,0)" stroke="none" style="white-space: pre">U, B</tspan></tspan></tspan></text>
 <text class="SVGTextShape" transform="rotate(-90 824 6185)"><tspan class="TextParagraph" font-family="Liberation Sans, sans-serif" font-size="318px" font-weight="400"><tspan class="TextPosition" x="824" y="6185"><tspan fill="rgb(0,0,0)" stroke="none" style="white-space: pre">I, A</tspan></tspan></tspan></text>
</svg>