<?xml version="1.0" encoding="UTF-8"?>
<!DOCTYPE svg PUBLIC "-//W3C//DTD SVG 1.1//EN" "http://www.w3.org/Graphics/SVG/1.1/DTD/svg11.dtd">
<svg width="177mm" height="109mm" viewBox="0 0 17700 10900" version="1.1" xmlns="http://www.w3.org/2000/svg" xmlns:xlink="http://www.w3.org/1999/xlink" stroke-width="28.222" stroke-linejoin="round" xml:space="preserve">
 <path fill="rgb(255,255,255)" stroke="none" d="M 8813,10830 L -13,10830 -13,-13 17639,-13 17639,10830 8813,10830 Z"/>
 <path fill="none" stroke="rgb(179,179,179)" stroke-linejoin="round" d="M 9401,9702 L 1561,9702 1561,1444 17241,1444 17241,9702 9401,9702 Z"/>
 <path fill="none" stroke="rgb(179,179,179)" stroke-linejoin="round" d="M 17240,9701 L 1560,9701"/>
 <path fill="none" stroke="rgb(179,179,179)" stroke-linejoin="round" d="M 17240,8668 L 1560,8668"/>
 <path fill="none" stroke="rgb(179,179,179)" stroke-linejoin="round" d="M 17240,7637 L 1560,7637"/>
 <path fill="none" stroke="rgb(179,179,179)" stroke-linejoin="round" d="M 17240,6604 L 1560,6604"/>
 <path fill="none" stroke="rgb(179,179,179)" stroke-linejoin="round" d="M 17240,5572 L 1560,5572"/>
 <path fill="none" stroke="rgb(179,179,179)" stroke-linejoin="round" d="M 17240,4539 L 1560,4539"/>
 <path fill="none" stroke="rgb(179,179,179)" stroke-linejoin="round" d="M 17240,3507 L 1560,3507"/>
 <path fill="none" stroke="rgb(179,179,179)" stroke-linejoin="round" d="M 17240,2475 L 1560,2475"/>
 <path fill="none" stroke="rgb(179,179,179)" stroke-linejoin="round" d="M 17240,1443 L 1560,1443"/>
 <path fill="none" stroke="rgb(179,179,179)" stroke-linejoin="round" d="M 1560,9851 L 1560,9701"/>
 <path fill="none" stroke="rgb(179,179,179)" stroke-linejoin="round" d="M 1560,9851 L 1560,9701"/>
 <path fill="none" stroke="rgb(179,179,179)" stroke-linejoin="round" d="M 4174,9851 L 4174,9701"/>
 <path fill="none" stroke="rgb(179,179,179)" stroke-linejoin="round" d="M 4174,9851 L 4174,9701"/>
 <path fill="none" stroke="rgb(179,179,179)" stroke-linejoin="round" d="M 6787,9851 L 6787,9701"/>
 <path fill="none" stroke="rgb(179,179,179)" stroke-linejoin="round" d="M 6787,9851 L 6787,9701"/>
 <path fill="none" stroke="rgb(179,179,179)" stroke-linejoin="round" d="M 9400,9851 L 9400,9701"/>
 <path fill="none" stroke="rgb(179,179,179)" stroke-linejoin="round" d="M 9400,9851 L 9400,9701"/>
 <path fill="none" stroke="rgb(179,179,179)" stroke-linejoin="round" d="M 12013,9851 L 12013,9701"/>
 <path fill="none" stroke="rgb(179,179,179)" stroke-linejoin="round" d="M 12013,9851 L 12013,9701"/>
 <path fill="none" stroke="rgb(179,179,179)" stroke-linejoin="round" d="M 14627,9851 L 14627,9701"/>
 <path fill="none" stroke="rgb(179,179,179)" stroke-linejoin="round" d="M 14627,9851 L 14627,9701"/>
 <path fill="none" stroke="rgb(179,179,179)" stroke-linejoin="round" d="M 17240,9851 L 17240,9701"/>
 <path fill="none" stroke="rgb(179,179,179)" stroke-linejoin="round" d="M 17240,9851 L 17240,9701"/>
 <path fill="none" stroke="rgb(179,179,179)" stroke-linejoin="round" d="M 1560,9701 L 17240,9701"/>
 <path fill="none" stroke="rgb(179,179,179)" stroke-linejoin="round" d="M 1410,9701 L 1560,9701"/>
 <path fill="none" stroke="rgb(179,179,179)" stroke-linejoin="round" d="M 1410,9701 L 1560,9701"/>
 <path fill="none" stroke="rgb(179,179,179)" stroke-linejoin="round" d="M 1410,8668 L 1560,8668"/>
 <path fill="none" stroke="rgb(179,179,179)" stroke-linejoin="round" d="M 1410,8668 L 1560,8668"/>
 <path fill="none" stroke="rgb(179,179,179)" stroke-linejoin="round" d="M 1410,7637 L 1560,7637"/>
 <path fill="none" stroke="rgb(179,179,179)" stroke-linejoin="round" d="M 1410,7637 L 1560,7637"/>
 <path fill="none" stroke="rgb(179,179,179)" stroke-linejoin="round" d="M 1410,6604 L 1560,6604"/>
 <path fill="none" stroke="rgb(179,179,179)" stroke-linejoin="round" d="M 1410,6604 L 1560,6604"/>
 <path fill="none" stroke="rgb(179,179,179)" stroke-linejoin="round" d="M 1410,5572 L 1560,5572"/>
 <path fill="none" stroke="rgb(179,179,179)" stroke-linejoin="round" d="M 1410,5572 L 1560,5572"/>
 <path fill="none" stroke="rgb(179,179,179)" stroke-linejoin="round" d="M 1410,4539 L 1560,4539"/>
 <path fill="none" stroke="rgb(179,179,179)" stroke-linejoin="round" d="M 1410,4539 L 1560,4539"/>
 <path fill="none" stroke="rgb(179,179,179)" stroke-linejoin="round" d="M 1410,3507 L 1560,3507"/>
 <path fill="none" stroke="rgb(179,179,179)" stroke-linejoin="round" d="M 1410,3507 L 1560,3507"/>
 <path fill="none" stroke="rgb(179,179,179)" stroke-linejoin="round" d="M 1410,2475 L 1560,2475"/>
 <path fill="none" stroke="rgb(179,179,179)" stroke-linejoin="round" d="M 1410,2475 L 1560,2475"/>
 <path fill="none" stroke="rgb(179,179,179)" stroke-linejoin="round" d="M 1410,1443 L 1560,1443"/>
 <path fill="none" stroke="rgb(179,179,179)" stroke-linejoin="round" d="M 1410,1443 L 1560,1443"/>
 <path fill="none" stroke="rgb(179,179,179)" stroke-linejoin="round" d="M 1560,9701 L 1560,1443"/>
 <path fill="none" stroke="rgb(255,66,14)" stroke-width="80" stroke-linejoin="round" d="M 14444,2372 L 10628,5210 8016,7224 7467,7637 6944,8050 6709,8193 6395,8462 5977,8740 5481,9122 5219,9329 5115,9701 4932,9701 4514,9701"/>
 <path fill="rgb(255,66,14)" stroke="none" d="M 14319,2372 L 14444,2497 14569,2372 14444,2247 14319,2372 Z"/>
 <path fill="none" stroke="rgb(255,66,14)" stroke-linejoin="round" d="M 14319,2372 L 14444,2497 14569,2372 14444,2247 14319,2372 Z"/>
 <path fill="rgb(255,66,14)" stroke="none" d="M 10503,5210 L 10628,5335 10753,5210 10628,5085 10503,5210 Z"/>
 <path fill="none" stroke="rgb(255,66,14)" stroke-linejoin="round" d="M 10503,5210 L 10628,5335 10753,5210 10628,5085 10503,5210 Z"/>
 <path fill="rgb(255,66,14)" stroke="none" d="M 7891,7224 L 8016,7349 8141,7224 8016,7099 7891,7224 Z"/>
 <path fill="none" stroke="rgb(255,66,14)" stroke-linejoin="round" d="M 7891,7224 L 8016,7349 8141,7224 8016,7099 7891,7224 Z"/>
 <path fill="rgb(255,66,14)" stroke="none" d="M 7342,7637 L 7467,7762 7592,7637 7467,7512 7342,7637 Z"/>
 <path fill="none" stroke="rgb(255,66,14)" stroke-linejoin="round" d="M 7342,7637 L 7467,7762 7592,7637 7467,7512 7342,7637 Z"/>
 <path fill="rgb(255,66,14)" stroke="none" d="M 6819,8050 L 6944,8174 7069,8050 6944,7925 6819,8050 Z"/>
 <path fill="none" stroke="rgb(255,66,14)" stroke-linejoin="round" d="M 6819,8050 L 6944,8174 7069,8050 6944,7925 6819,8050 Z"/>
 <path fill="rgb(255,66,14)" stroke="none" d="M 6584,8193 L 6709,8318 6834,8193 6709,8069 6584,8193 Z"/>
 <path fill="none" stroke="rgb(255,66,14)" stroke-linejoin="round" d="M 6584,8193 L 6709,8318 6834,8193 6709,8069 6584,8193 Z"/>
 <path fill="rgb(255,66,14)" stroke="none" d="M 6270,8462 L 6395,8587 6520,8462 6395,8337 6270,8462 Z"/>
 <path fill="none" stroke="rgb(255,66,14)" stroke-linejoin="round" d="M 6270,8462 L 6395,8587 6520,8462 6395,8337 6270,8462 Z"/>
 <path fill="rgb(255,66,14)" stroke="none" d="M 5852,8740 L 5977,8865 6102,8740 5977,8615 5852,8740 Z"/>
 <path fill="none" stroke="rgb(255,66,14)" stroke-linejoin="round" d="M 5852,8740 L 5977,8865 6102,8740 5977,8615 5852,8740 Z"/>
 <path fill="rgb(255,66,14)" stroke="none" d="M 5356,9122 L 5481,9247 5606,9122 5481,8997 5356,9122 Z"/>
 <path fill="none" stroke="rgb(255,66,14)" stroke-linejoin="round" d="M 5356,9122 L 5481,9247 5606,9122 5481,8997 5356,9122 Z"/>
 <path fill="rgb(255,66,14)" stroke="none" d="M 5094,9329 L 5219,9454 5344,9329 5219,9204 5094,9329 Z"/>
 <path fill="none" stroke="rgb(255,66,14)" stroke-linejoin="round" d="M 5094,9329 L 5219,9454 5344,9329 5219,9204 5094,9329 Z"/>
 <path fill="rgb(255,66,14)" stroke="none" d="M 4990,9701 L 5115,9826 5240,9701 5115,9576 4990,9701 Z"/>
 <path fill="none" stroke="rgb(255,66,14)" stroke-linejoin="round" d="M 4990,9701 L 5115,9826 5240,9701 5115,9576 4990,9701 Z"/>
 <path fill="rgb(255,66,14)" stroke="none" d="M 4807,9701 L 4932,9826 5057,9701 4932,9576 4807,9701 Z"/>
 <path fill="none" stroke="rgb(255,66,14)" stroke-linejoin="round" d="M 4807,9701 L 4932,9826 5057,9701 4932,9576 4807,9701 Z"/>
 <path fill="rgb(255,66,14)" stroke="none" d="M 4389,9701 L 4514,9826 4639,9701 4514,9576 4389,9701 Z"/>
 <path fill="none" stroke="rgb(255,66,14)" stroke-linejoin="round" d="M 4389,9701 L 4514,9826 4639,9701 4514,9576 4389,9701 Z"/>
 <path fill="none" stroke="rgb(0,69,134)" stroke-width="80" stroke-linejoin="round" d="M 2920,9701 L 3782,9701 4592,9701 10184,9701 10184,5778 11229,5055 11648,5572 12432,4023 13190,3455"/>
 <path fill="rgb(0,69,134)" stroke="none" d="M 2795,9576 L 2795,9826 3045,9826 3045,9576 2795,9576 Z"/>
 <path fill="none" stroke="rgb(0,69,134)" stroke-linejoin="round" d="M 2795,9576 L 2795,9826 3045,9826 3045,9576 2795,9576 Z"/>
 <path fill="rgb(0,69,134)" stroke="none" d="M 3657,9576 L 3657,9826 3907,9826 3907,9576 3657,9576 Z"/>
 <path fill="none" stroke="rgb(0,69,134)" stroke-linejoin="round" d="M 3657,9576 L 3657,9826 3907,9826 3907,9576 3657,9576 Z"/>
 <path fill="rgb(0,69,134)" stroke="none" d="M 4467,9576 L 4467,9826 4717,9826 4717,9576 4467,9576 Z"/>
 <path fill="none" stroke="rgb(0,69,134)" stroke-linejoin="round" d="M 4467,9576 L 4467,9826 4717,9826 4717,9576 4467,9576 Z"/>
 <path fill="rgb(0,69,134)" stroke="none" d="M 10059,9576 L 10059,9826 10309,9826 10309,9576 10059,9576 Z"/>
 <path fill="none" stroke="rgb(0,69,134)" stroke-linejoin="round" d="M 10059,9576 L 10059,9826 10309,9826 10309,9576 10059,9576 Z"/>
 <path fill="rgb(0,69,134)" stroke="none" d="M 10059,5653 L 10059,5903 10309,5903 10309,5653 10059,5653 Z"/>
 <path fill="none" stroke="rgb(0,69,134)" stroke-linejoin="round" d="M 10059,5653 L 10059,5903 10309,5903 10309,5653 10059,5653 Z"/>
 <path fill="rgb(0,69,134)" stroke="none" d="M 11104,4930 L 11104,5180 11354,5180 11354,4930 11104,4930 Z"/>
 <path fill="none" stroke="rgb(0,69,134)" stroke-linejoin="round" d="M 11104,4930 L 11104,5180 11354,5180 11354,4930 11104,4930 Z"/>
 <path fill="rgb(0,69,134)" stroke="none" d="M 11523,5447 L 11523,5697 11773,5697 11773,5447 11523,5447 Z"/>
 <path fill="none" stroke="rgb(0,69,134)" stroke-linejoin="round" d="M 11523,5447 L 11523,5697 11773,5697 11773,5447 11523,5447 Z"/>
 <path fill="rgb(0,69,134)" stroke="none" d="M 12307,3898 L 12307,4148 12557,4148 12557,3898 12307,3898 Z"/>
 <path fill="none" stroke="rgb(0,69,134)" stroke-linejoin="round" d="M 12307,3898 L 12307,4148 12557,4148 12557,3898 12307,3898 Z"/>
 <path fill="rgb(0,69,134)" stroke="none" d="M 13065,3330 L 13065,3580 13315,3580 13315,3330 13065,3330 Z"/>
 <path fill="none" stroke="rgb(0,69,134)" stroke-linejoin="round" d="M 13065,3330 L 13065,3580 13315,3580 13315,3330 13065,3330 Z"/>
 <path fill="none" stroke="rgb(255,66,14)" stroke-linejoin="round" d="M 4773,9701 L 15626,1443"/>
 <text class="SVGTextShape"><tspan class="TextParagraph" font-family="Liberation Sans, sans-serif" font-size="353px" font-weight="400"><tspan class="TextPosition" x="1375" y="10269"><tspan fill="rgb(0,0,0)" stroke="none" style="white-space: pre">60</tspan></tspan></tspan></text>
 <text class="SVGTextShape"><tspan class="TextParagraph" font-family="Liberation Sans, sans-serif" font-size="353px" font-weight="400"><tspan class="TextPosition" x="3989" y="10269"><tspan fill="rgb(0,0,0)" stroke="none" style="white-space: pre">70</tspan></tspan></tspan></text>
 <text class="SVGTextShape"><tspan class="TextParagraph" font-family="Liberation Sans, sans-serif" font-size="353px" font-weight="400"><tspan class="TextPosition" x="6602" y="10269"><tspan fill="rgb(0,0,0)" stroke="none" style="white-space: pre">80</tspan></tspan></tspan></text>
 <text class="SVGTextShape"><tspan class="TextParagraph" font-family="Liberation Sans, sans-serif" font-size="353px" font-weight="400"><tspan class="TextPosition" x="9216" y="10269"><tspan fill="rgb(0,0,0)" stroke="none" style="white-space: pre">90</tspan></tspan></tspan></text>
 <text class="SVGTextShape"><tspan class="TextParagraph" font-family="Liberation Sans, sans-serif" font-size="353px" font-weight="400"><tspan class="TextPosition" x="11736" y="10269"><tspan fill="rgb(0,0,0)" stroke="none" style="white-space: pre">100</tspan></tspan></tspan></text>
 <text class="SVGTextShape"><tspan class="TextParagraph" font-family="Liberation Sans, sans-serif" font-size="353px" font-weight="400"><tspan class="TextPosition" x="14350" y="10269"><tspan fill="rgb(0,0,0)" stroke="none" style="white-space: pre">110</tspan></tspan></tspan></text>
 <text class="SVGTextShape"><tspan class="TextParagraph" font-family="Liberation Sans, sans-serif" font-size="353px" font-weight="400"><tspan class="TextPosition" x="16963" y="10269"><tspan fill="rgb(0,0,0)" stroke="none" style="white-space: pre">120</tspan></tspan></tspan></text>
 <text class="SVGTextShape"><tspan class="TextParagraph" font-family="Liberation Sans, sans-serif" font-size="353px" font-weight="400"><tspan class="TextPosition" x="649" y="9822"><tspan fill="rgb(0,0,0)" stroke="none" style="white-space: pre">0.00</tspan></tspan></tspan></text>
 <text class="SVGTextShape"><tspan class="TextParagraph" font-family="Liberation Sans, sans-serif" font-size="353px" font-weight="400"><tspan class="TextPosition" x="649" y="8789"><tspan fill="rgb(0,0,0)" stroke="none" style="white-space: pre">1.00</tspan></tspan></tspan></text>
 <text class="SVGTextShape"><tspan class="TextParagraph" font-family="Liberation Sans, sans-serif" font-size="353px" font-weight="400"><tspan class="TextPosition" x="649" y="7757"><tspan fill="rgb(0,0,0)" stroke="none" style="white-space: pre">2.00</tspan></tspan></tspan></text>
 <text class="SVGTextShape"><tspan class="TextParagraph" font-family="Liberation Sans, sans-serif" font-size="353px" font-weight="400"><tspan class="TextPosition" x="649" y="6724"><tspan fill="rgb(0,0,0)" stroke="none" style="white-space: pre">3.00</tspan></tspan></tspan></text>
 <text class="SVGTextShape"><tspan class="TextParagraph" font-family="Liberation Sans, sans-serif" font-size="353px" font-weight="400"><tspan class="TextPosition" x="649" y="5692"><tspan fill="rgb(0,0,0)" stroke="none" style="white-space: pre">4.00</tspan></tspan></tspan></text>
 <text class="SVGTextShape"><tspan class="TextParagraph" font-family="Liberation Sans, sans-serif" font-size="353px" font-weight="400"><tspan class="TextPosition" x="649" y="4660"><tspan fill="rgb(0,0,0)" stroke="none" style="white-space: pre">5.00</tspan></tspan></tspan></text>
 <text class="SVGTextShape"><tspan class="TextParagraph" font-family="Liberation Sans, sans-serif" font-size="353px" font-weight="400"><tspan class="TextPosition" x="649" y="3628"><tspan fill="rgb(0,0,0)" stroke="none" style="white-space: pre">6.00</tspan></tspan></tspan></text>
 <text class="SVGTextShape"><tspan class="TextParagraph" font-family="Liberation Sans, sans-serif" font-size="353px" font-weight="400"><tspan class="TextPosition" x="649" y="2595"><tspan fill="rgb(0,0,0)" stroke="none" style="white-space: pre">7.00</tspan></tspan></tspan></text>
 <text class="SVGTextShape"><tspan class="TextParagraph" font-family="Liberation Sans, sans-serif" font-size="353px" font-weight="400"><tspan class="TextPosition" x="649" y="1563"><tspan fill="rgb(0,0,0)" stroke="none" style="white-space: pre">8.00</tspan></tspan></tspan></text>
 <text class="SVGTextShape"><tspan class="TextParagraph" font-family="Liberation Sans, sans-serif" font-size="459px" font-weight="400"><tspan class="TextPosition" x="8429" y="874"><tspan fill="rgb(0,0,0)" stroke="none" style="white-space: pre">I(U)</tspan></tspan></tspan></text>
 <path fill="rgb(217,217,217)" stroke="none" d="M 4199,3927 L 2410,3927 2410,2461 5988,2461 5988,3927 4199,3927 Z"/>
 <path fill="none" stroke="rgb(0,0,0)" stroke-linejoin="round" d="M 4199,3927 L 2410,3927 2410,2461 5988,2461 5988,3927 4199,3927 Z"/>
 <path fill="none" stroke="rgb(0,69,134)" stroke-width="80" stroke-linejoin="round" d="M 2650,2881 L 3450,2881"/>
 <path fill="rgb(0,69,134)" stroke="none" d="M 2944,2776 L 2944,2987 3155,2987 3155,2776 2944,2776 Z"/>
 <path fill="none" stroke="rgb(0,69,134)" stroke-linejoin="round" d="M 2944,2776 L 2944,2987 3155,2987 3155,2776 2944,2776 Z"/>
 <path fill="none" stroke="rgb(255,66,14)" stroke-width="80" stroke-linejoin="round" d="M 2650,3502 L 3450,3502"/>
 <path fill="rgb(255,66,14)" stroke="none" d="M 2944,3502 L 3050,3608 3155,3502 3050,3397 2944,3502 Z"/>
 <path fill="none" stroke="rgb(255,66,14)" stroke-linejoin="round" d="M 2944,3502 L 3050,3608 3155,3502 3050,3397 2944,3502 Z"/>
 <text class="SVGTextShape"><tspan class="TextParagraph" font-family="Liberation Sans, sans-serif" font-size="353px" font-weight="400"><tspan class="TextPosition" x="3550" y="3001"><tspan fill="rgb(0,0,0)" stroke="none" style="white-space: pre">увеличение</tspan></tspan></tspan></text>
 <text class="SVGTextShape"><tspan class="TextParagraph" font-family="Liberation Sans, sans-serif" font-size="353px" font-weight="400"><tspan class="TextPosition" x="3550" y="3622"><tspan fill="rgb(0,0,0)" stroke="none" style="white-space: pre">уменьшение</tspan></tspan></tspan></text>
 <text class="SVGTextShape"><tspan class="TextParagraph" font-family="Liberation Sans, sans-serif" font-size="318px" font-weight="400"><tspan class="TextPosition" x="8779" y="10657"><tspan fill="rgb(0,0,0)" stroke="none" style="white-space: pre">U, B</tspan></tspan></tspan></text>
 <text class="SVGTextShape" transform="rotate(-90 373 6021)"><tspan class="TextParagraph" font-family="Liberation Sans, sans-serif" font-size="318px" font-weight="400"><tspan class="TextPosition" x="373" y="6021"><tspan fill="rgb(0,0,0)" stroke="none" style="white-space: pre">I, A</tspan></tspan></tspan></text>
</svg>