<?xml version="1.0" encoding="UTF-8"?>
<!DOCTYPE svg PUBLIC "-//W3C//DTD SVG 1.1//EN" "http://www.w3.org/Graphics/SVG/1.1/DTD/svg11.dtd">
<svg width="163mm" height="94mm" viewBox="0 0 16300 9400" version="1.1" xmlns="http://www.w3.org/2000/svg" xmlns:xlink="http://www.w3.org/1999/xlink" stroke-width="28.222" stroke-linejoin="round" xml:space="preserve">
 <path fill="rgb(255,255,255)" stroke="none" d="M 8133,9338 L -13,9338 -13,-13 16278,-13 16278,9338 8133,9338 Z"/>
 <path fill="none" stroke="rgb(179,179,179)" stroke-linejoin="round" d="M 8445,8039 L 1347,8039 1347,360 15543,360 15543,8039 8445,8039 Z"/>
 <path fill="none" stroke="rgb(179,179,179)" stroke-linejoin="round" d="M 15542,8038 L 1347,8038"/>
 <path fill="none" stroke="rgb(179,179,179)" stroke-linejoin="round" d="M 15542,6940 L 1347,6940"/>
 <path fill="none" stroke="rgb(179,179,179)" stroke-linejoin="round" d="M 15542,5843 L 1347,5843"/>
 <path fill="none" stroke="rgb(179,179,179)" stroke-linejoin="round" d="M 15542,4746 L 1347,4746"/>
 <path fill="none" stroke="rgb(179,179,179)" stroke-linejoin="round" d="M 15542,3650 L 1347,3650"/>
 <path fill="none" stroke="rgb(179,179,179)" stroke-linejoin="round" d="M 15542,2553 L 1347,2553"/>
 <path fill="none" stroke="rgb(179,179,179)" stroke-linejoin="round" d="M 15542,1456 L 1347,1456"/>
 <path fill="none" stroke="rgb(179,179,179)" stroke-linejoin="round" d="M 15542,358 L 1347,358"/>
 <path fill="none" stroke="rgb(179,179,179)" stroke-linejoin="round" d="M 1347,8188 L 1347,8038"/>
 <path fill="none" stroke="rgb(179,179,179)" stroke-linejoin="round" d="M 1347,8188 L 1347,8038"/>
 <path fill="none" stroke="rgb(179,179,179)" stroke-linejoin="round" d="M 3713,8188 L 3713,8038"/>
 <path fill="none" stroke="rgb(179,179,179)" stroke-linejoin="round" d="M 3713,8188 L 3713,8038"/>
 <path fill="none" stroke="rgb(179,179,179)" stroke-linejoin="round" d="M 6079,8188 L 6079,8038"/>
 <path fill="none" stroke="rgb(179,179,179)" stroke-linejoin="round" d="M 6079,8188 L 6079,8038"/>
 <path fill="none" stroke="rgb(179,179,179)" stroke-linejoin="round" d="M 8444,8188 L 8444,8038"/>
 <path fill="none" stroke="rgb(179,179,179)" stroke-linejoin="round" d="M 8444,8188 L 8444,8038"/>
 <path fill="none" stroke="rgb(179,179,179)" stroke-linejoin="round" d="M 10810,8188 L 10810,8038"/>
 <path fill="none" stroke="rgb(179,179,179)" stroke-linejoin="round" d="M 10810,8188 L 10810,8038"/>
 <path fill="none" stroke="rgb(179,179,179)" stroke-linejoin="round" d="M 13176,8188 L 13176,8038"/>
 <path fill="none" stroke="rgb(179,179,179)" stroke-linejoin="round" d="M 13176,8188 L 13176,8038"/>
 <path fill="none" stroke="rgb(179,179,179)" stroke-linejoin="round" d="M 15542,8188 L 15542,8038"/>
 <path fill="none" stroke="rgb(179,179,179)" stroke-linejoin="round" d="M 15542,8188 L 15542,8038"/>
 <path fill="none" stroke="rgb(179,179,179)" stroke-linejoin="round" d="M 1347,8038 L 15542,8038"/>
 <path fill="none" stroke="rgb(179,179,179)" stroke-linejoin="round" d="M 1197,8038 L 1347,8038"/>
 <path fill="none" stroke="rgb(179,179,179)" stroke-linejoin="round" d="M 1197,8038 L 1347,8038"/>
 <path fill="none" stroke="rgb(179,179,179)" stroke-linejoin="round" d="M 1197,6940 L 1347,6940"/>
 <path fill="none" stroke="rgb(179,179,179)" stroke-linejoin="round" d="M 1197,6940 L 1347,6940"/>
 <path fill="none" stroke="rgb(179,179,179)" stroke-linejoin="round" d="M 1197,5843 L 1347,5843"/>
 <path fill="none" stroke="rgb(179,179,179)" stroke-linejoin="round" d="M 1197,5843 L 1347,5843"/>
 <path fill="none" stroke="rgb(179,179,179)" stroke-linejoin="round" d="M 1197,4746 L 1347,4746"/>
 <path fill="none" stroke="rgb(179,179,179)" stroke-linejoin="round" d="M 1197,4746 L 1347,4746"/>
 <path fill="none" stroke="rgb(179,179,179)" stroke-linejoin="round" d="M 1197,3650 L 1347,3650"/>
 <path fill="none" stroke="rgb(179,179,179)" stroke-linejoin="round" d="M 1197,3650 L 1347,3650"/>
 <path fill="none" stroke="rgb(179,179,179)" stroke-linejoin="round" d="M 1197,2553 L 1347,2553"/>
 <path fill="none" stroke="rgb(179,179,179)" stroke-linejoin="round" d="M 1197,2553 L 1347,2553"/>
 <path fill="none" stroke="rgb(179,179,179)" stroke-linejoin="round" d="M 1197,1456 L 1347,1456"/>
 <path fill="none" stroke="rgb(179,179,179)" stroke-linejoin="round" d="M 1197,1456 L 1347,1456"/>
 <path fill="none" stroke="rgb(179,179,179)" stroke-linejoin="round" d="M 1197,358 L 1347,358"/>
 <path fill="none" stroke="rgb(179,179,179)" stroke-linejoin="round" d="M 1197,358 L 1347,358"/>
 <path fill="none" stroke="rgb(179,179,179)" stroke-linejoin="round" d="M 1347,8038 L 1347,358"/>
 <path fill="rgb(255,66,14)" stroke="none" d="M 13051,4583 L 13176,4707 13301,4583 13176,4458 13051,4583 Z"/>
 <path fill="none" stroke="rgb(255,66,14)" stroke-linejoin="round" d="M 13051,4583 L 13176,4707 13301,4583 13176,4458 13051,4583 Z"/>
 <path fill="rgb(255,66,14)" stroke="none" d="M 11868,4927 L 11993,5052 12118,4927 11993,4802 11868,4927 Z"/>
 <path fill="none" stroke="rgb(255,66,14)" stroke-linejoin="round" d="M 11868,4927 L 11993,5052 12118,4927 11993,4802 11868,4927 Z"/>
 <path fill="rgb(255,66,14)" stroke="none" d="M 10685,5273 L 10810,5398 10935,5273 10810,5148 10685,5273 Z"/>
 <path fill="none" stroke="rgb(255,66,14)" stroke-linejoin="round" d="M 10685,5273 L 10810,5398 10935,5273 10810,5148 10685,5273 Z"/>
 <path fill="rgb(255,66,14)" stroke="none" d="M 9502,5618 L 9627,5743 9752,5618 9627,5493 9502,5618 Z"/>
 <path fill="none" stroke="rgb(255,66,14)" stroke-linejoin="round" d="M 9502,5618 L 9627,5743 9752,5618 9627,5493 9502,5618 Z"/>
 <path fill="rgb(255,66,14)" stroke="none" d="M 8319,5964 L 8444,6089 8569,5964 8444,5839 8319,5964 Z"/>
 <path fill="none" stroke="rgb(255,66,14)" stroke-linejoin="round" d="M 8319,5964 L 8444,6089 8569,5964 8444,5839 8319,5964 Z"/>
 <path fill="rgb(255,66,14)" stroke="none" d="M 7137,6310 L 7262,6435 7387,6310 7262,6185 7137,6310 Z"/>
 <path fill="none" stroke="rgb(255,66,14)" stroke-linejoin="round" d="M 7137,6310 L 7262,6435 7387,6310 7262,6185 7137,6310 Z"/>
 <path fill="rgb(255,66,14)" stroke="none" d="M 5954,6655 L 6079,6780 6204,6655 6079,6530 5954,6655 Z"/>
 <path fill="none" stroke="rgb(255,66,14)" stroke-linejoin="round" d="M 5954,6655 L 6079,6780 6204,6655 6079,6530 5954,6655 Z"/>
 <path fill="rgb(255,66,14)" stroke="none" d="M 4771,7001 L 4896,7126 5021,7001 4896,6876 4771,7001 Z"/>
 <path fill="none" stroke="rgb(255,66,14)" stroke-linejoin="round" d="M 4771,7001 L 4896,7126 5021,7001 4896,6876 4771,7001 Z"/>
 <path fill="rgb(255,66,14)" stroke="none" d="M 3588,7346 L 3713,7471 3838,7346 3713,7221 3588,7346 Z"/>
 <path fill="none" stroke="rgb(255,66,14)" stroke-linejoin="round" d="M 3588,7346 L 3713,7471 3838,7346 3713,7221 3588,7346 Z"/>
 <path fill="rgb(255,66,14)" stroke="none" d="M 2405,7692 L 2530,7817 2655,7692 2530,7567 2405,7692 Z"/>
 <path fill="none" stroke="rgb(255,66,14)" stroke-linejoin="round" d="M 2405,7692 L 2530,7817 2655,7692 2530,7567 2405,7692 Z"/>
 <path fill="rgb(0,69,134)" stroke="none" d="M 13051,1111 L 13051,1361 13301,1361 13301,1111 13051,1111 Z"/>
 <path fill="none" stroke="rgb(0,69,134)" stroke-linejoin="round" d="M 13051,1111 L 13051,1361 13301,1361 13301,1111 13051,1111 Z"/>
 <path fill="rgb(0,69,134)" stroke="none" d="M 11868,2099 L 11868,2349 12118,2349 12118,2099 11868,2099 Z"/>
 <path fill="none" stroke="rgb(0,69,134)" stroke-linejoin="round" d="M 11868,2099 L 11868,2349 12118,2349 12118,2099 11868,2099 Z"/>
 <path fill="rgb(0,69,134)" stroke="none" d="M 10685,2428 L 10685,2678 10935,2678 10935,2428 10685,2428 Z"/>
 <path fill="none" stroke="rgb(0,69,134)" stroke-linejoin="round" d="M 10685,2428 L 10685,2678 10935,2678 10935,2428 10685,2428 Z"/>
 <path fill="rgb(0,69,134)" stroke="none" d="M 9502,3306 L 9502,3556 9752,3556 9752,3306 9502,3306 Z"/>
 <path fill="none" stroke="rgb(0,69,134)" stroke-linejoin="round" d="M 9502,3306 L 9502,3556 9752,3556 9752,3306 9502,3306 Z"/>
 <path fill="rgb(0,69,134)" stroke="none" d="M 8319,3854 L 8319,4104 8569,4104 8569,3854 8319,3854 Z"/>
 <path fill="none" stroke="rgb(0,69,134)" stroke-linejoin="round" d="M 8319,3854 L 8319,4104 8569,4104 8569,3854 8319,3854 Z"/>
 <path fill="rgb(0,69,134)" stroke="none" d="M 7137,4534 L 7137,4783 7387,4783 7387,4534 7137,4534 Z"/>
 <path fill="none" stroke="rgb(0,69,134)" stroke-linejoin="round" d="M 7137,4534 L 7137,4783 7387,4783 7387,4534 7137,4534 Z"/>
 <path fill="rgb(0,69,134)" stroke="none" d="M 5954,5148 L 5954,5398 6204,5398 6204,5148 5954,5148 Z"/>
 <path fill="none" stroke="rgb(0,69,134)" stroke-linejoin="round" d="M 5954,5148 L 5954,5398 6204,5398 6204,5148 5954,5148 Z"/>
 <path fill="rgb(0,69,134)" stroke="none" d="M 4771,5850 L 4771,6100 5021,6100 5021,5850 4771,5850 Z"/>
 <path fill="none" stroke="rgb(0,69,134)" stroke-linejoin="round" d="M 4771,5850 L 4771,6100 5021,6100 5021,5850 4771,5850 Z"/>
 <path fill="rgb(0,69,134)" stroke="none" d="M 3588,6486 L 3588,6736 3838,6736 3838,6486 3588,6486 Z"/>
 <path fill="none" stroke="rgb(0,69,134)" stroke-linejoin="round" d="M 3588,6486 L 3588,6736 3838,6736 3838,6486 3588,6486 Z"/>
 <path fill="rgb(0,69,134)" stroke="none" d="M 2405,7166 L 2405,7416 2655,7416 2655,7166 2405,7166 Z"/>
 <path fill="none" stroke="rgb(0,69,134)" stroke-linejoin="round" d="M 2405,7166 L 2405,7416 2655,7416 2655,7166 2405,7166 Z"/>
 <path fill="none" stroke="rgb(255,66,14)" stroke-linejoin="round" d="M 1347,8038 L 15542,3891"/>
 <path fill="none" stroke="rgb(0,69,134)" stroke-linejoin="round" d="M 1347,7941 L 14983,358"/>
 <text class="SVGTextShape"><tspan class="TextParagraph" font-family="Liberation Sans, sans-serif" font-size="353px" font-weight="400"><tspan class="TextPosition" x="1254" y="8606"><tspan fill="rgb(0,0,0)" stroke="none" style="white-space: pre">0</tspan></tspan></tspan></text>
 <text class="SVGTextShape"><tspan class="TextParagraph" font-family="Liberation Sans, sans-serif" font-size="353px" font-weight="400"><tspan class="TextPosition" x="3528" y="8606"><tspan fill="rgb(0,0,0)" stroke="none" style="white-space: pre">10</tspan></tspan></tspan></text>
 <text class="SVGTextShape"><tspan class="TextParagraph" font-family="Liberation Sans, sans-serif" font-size="353px" font-weight="400"><tspan class="TextPosition" x="5894" y="8606"><tspan fill="rgb(0,0,0)" stroke="none" style="white-space: pre">20</tspan></tspan></tspan></text>
 <text class="SVGTextShape"><tspan class="TextParagraph" font-family="Liberation Sans, sans-serif" font-size="353px" font-weight="400"><tspan class="TextPosition" x="8260" y="8606"><tspan fill="rgb(0,0,0)" stroke="none" style="white-space: pre">30</tspan></tspan></tspan></text>
 <text class="SVGTextShape"><tspan class="TextParagraph" font-family="Liberation Sans, sans-serif" font-size="353px" font-weight="400"><tspan class="TextPosition" x="10626" y="8606"><tspan fill="rgb(0,0,0)" stroke="none" style="white-space: pre">40</tspan></tspan></tspan></text>
 <text class="SVGTextShape"><tspan class="TextParagraph" font-family="Liberation Sans, sans-serif" font-size="353px" font-weight="400"><tspan class="TextPosition" x="12992" y="8606"><tspan fill="rgb(0,0,0)" stroke="none" style="white-space: pre">50</tspan></tspan></tspan></text>
 <text class="SVGTextShape"><tspan class="TextParagraph" font-family="Liberation Sans, sans-serif" font-size="353px" font-weight="400"><tspan class="TextPosition" x="15358" y="8606"><tspan fill="rgb(0,0,0)" stroke="none" style="white-space: pre">60</tspan></tspan></tspan></text>
 <text class="SVGTextShape"><tspan class="TextParagraph" font-family="Liberation Sans, sans-serif" font-size="353px" font-weight="400"><tspan class="TextPosition" x="912" y="8159"><tspan fill="rgb(0,0,0)" stroke="none" style="white-space: pre">0</tspan></tspan></tspan></text>
 <text class="SVGTextShape"><tspan class="TextParagraph" font-family="Liberation Sans, sans-serif" font-size="353px" font-weight="400"><tspan class="TextPosition" x="912" y="7061"><tspan fill="rgb(0,0,0)" stroke="none" style="white-space: pre">5</tspan></tspan></tspan></text>
 <text class="SVGTextShape"><tspan class="TextParagraph" font-family="Liberation Sans, sans-serif" font-size="353px" font-weight="400"><tspan class="TextPosition" x="727" y="5964"><tspan fill="rgb(0,0,0)" stroke="none" style="white-space: pre">10</tspan></tspan></tspan></text>
 <text class="SVGTextShape"><tspan class="TextParagraph" font-family="Liberation Sans, sans-serif" font-size="353px" font-weight="400"><tspan class="TextPosition" x="727" y="4867"><tspan fill="rgb(0,0,0)" stroke="none" style="white-space: pre">15</tspan></tspan></tspan></text>
 <text class="SVGTextShape"><tspan class="TextParagraph" font-family="Liberation Sans, sans-serif" font-size="353px" font-weight="400"><tspan class="TextPosition" x="727" y="3770"><tspan fill="rgb(0,0,0)" stroke="none" style="white-space: pre">20</tspan></tspan></tspan></text>
 <text class="SVGTextShape"><tspan class="TextParagraph" font-family="Liberation Sans, sans-serif" font-size="353px" font-weight="400"><tspan class="TextPosition" x="727" y="2673"><tspan fill="rgb(0,0,0)" stroke="none" style="white-space: pre">25</tspan></tspan></tspan></text>
 <text class="SVGTextShape"><tspan class="TextParagraph" font-family="Liberation Sans, sans-serif" font-size="353px" font-weight="400"><tspan class="TextPosition" x="727" y="1576"><tspan fill="rgb(0,0,0)" stroke="none" style="white-space: pre">30</tspan></tspan></tspan></text>
 <text class="SVGTextShape"><tspan class="TextParagraph" font-family="Liberation Sans, sans-serif" font-size="353px" font-weight="400"><tspan class="TextPosition" x="727" y="478"><tspan fill="rgb(0,0,0)" stroke="none" style="white-space: pre">35</tspan></tspan></tspan></text>
 <text class="SVGTextShape"><tspan class="TextParagraph" font-family="Liberation Sans, sans-serif" font-size="353px" font-weight="400"><tspan class="TextPosition" x="2026" y="1862"><tspan fill="rgb(0,0,0)" stroke="none" style="white-space: pre">Ттеор = 0.3 x</tspan></tspan></tspan></text>
 <text class="SVGTextShape"><tspan class="TextParagraph" font-family="Liberation Sans, sans-serif" font-size="353px" font-weight="400"><tspan class="TextPosition" x="2024" y="1195"><tspan fill="rgb(0,0,0)" stroke="none" style="white-space: pre">Tэксп = 0.6 x + 0.4</tspan></tspan></tspan></text>
 <text class="SVGTextShape"><tspan class="TextParagraph" font-family="Liberation Sans, sans-serif" font-size="459px" font-weight="400"><tspan class="TextPosition" x="7683" y="845"><tspan fill="rgb(0,0,0)" stroke="none" style="white-space: pre">T(C)</tspan></tspan></tspan></text>
 <path fill="rgb(0,69,134)" stroke="none" d="M 2208,2869 L 2208,3080 2419,3080 2419,2869 2208,2869 Z"/>
 <path fill="none" stroke="rgb(0,69,134)" stroke-linejoin="round" d="M 2208,2869 L 2208,3080 2419,3080 2419,2869 2208,2869 Z"/>
 <path fill="none" stroke="rgb(0,69,134)" stroke-linejoin="round" d="M 1914,3372 L 2714,3372"/>
 <path fill="rgb(255,66,14)" stroke="none" d="M 2208,3770 L 2314,3876 2419,3770 2314,3665 2208,3770 Z"/>
 <path fill="none" stroke="rgb(255,66,14)" stroke-linejoin="round" d="M 2208,3770 L 2314,3876 2419,3770 2314,3665 2208,3770 Z"/>
 <path fill="none" stroke="rgb(255,66,14)" stroke-linejoin="round" d="M 1914,4168 L 2714,4168"/>
 <text class="SVGTextShape"><tspan class="TextParagraph" font-family="Liberation Sans, sans-serif" font-size="353px" font-weight="400"><tspan class="TextPosition" x="2814" y="3094"><tspan fill="rgb(0,0,0)" stroke="none" style="white-space: pre">эксп</tspan></tspan></tspan></text>
 <text class="SVGTextShape"><tspan class="TextParagraph" font-family="Liberation Sans, sans-serif" font-size="353px" font-weight="400"><tspan class="TextPosition" x="2814" y="3492"><tspan fill="rgb(0,0,0)" stroke="none" style="white-space: pre">Linear (эксп)</tspan></tspan></tspan></text>
 <text class="SVGTextShape"><tspan class="TextParagraph" font-family="Liberation Sans, sans-serif" font-size="353px" font-weight="400"><tspan class="TextPosition" x="2814" y="3890"><tspan fill="rgb(0,0,0)" stroke="none" style="white-space: pre">теор</tspan></tspan></tspan></text>
 <text class="SVGTextShape"><tspan class="TextParagraph" font-family="Liberation Sans, sans-serif" font-size="353px" font-weight="400"><tspan class="TextPosition" x="2814" y="4288"><tspan fill="rgb(0,0,0)" stroke="none" style="white-space: pre">Linear (теор)</tspan></tspan></tspan></text>
 <text class="SVGTextShape"><tspan class="TextParagraph" font-family="Liberation Sans, sans-serif" font-size="318px" font-weight="400"><tspan class="TextPosition" x="7618" y="9163"><tspan fill="rgb(0,0,0)" stroke="none" style="white-space: pre">C, нФ</tspan></tspan></tspan></text>
 <text class="SVGTextShape" transform="rotate(-90 373 4779)"><tspan class="TextParagraph" font-family="Liberation Sans, sans-serif" font-size="318px" font-weight="400"><tspan class="TextPosition" x="373" y="4779"><tspan fill="rgb(0,0,0)" stroke="none" style="white-space: pre">T, мс</tspan></tspan></tspan></text>
</svg>