<?xml version="1.0" encoding="UTF-8"?>
<!DOCTYPE svg PUBLIC "-//W3C//DTD SVG 1.1//EN" "http://www.w3.org/Graphics/SVG/1.1/DTD/svg11.dtd">
<svg width="155mm" height="88mm" viewBox="0 0 15500 8800" version="1.1" xmlns="http://www.w3.org/2000/svg" xmlns:xlink="http://www.w3.org/1999/xlink" stroke-width="28.222" stroke-linejoin="round" xml:space="preserve">
 <path fill="rgb(255,255,255)" stroke="none" d="M 7724,8791 L -13,8791 -13,-13 15461,-13 15461,8791 7724,8791 Z"/>
 <path fill="none" stroke="rgb(179,179,179)" stroke-linejoin="round" d="M 8212,7459 L 1550,7459 1550,506 14875,506 14875,7459 8212,7459 Z"/>
 <path fill="none" stroke="rgb(179,179,179)" stroke-linejoin="round" d="M 14874,7458 L 1550,7458"/>
 <path fill="none" stroke="rgb(179,179,179)" stroke-linejoin="round" d="M 14874,6589 L 1550,6589"/>
 <path fill="none" stroke="rgb(179,179,179)" stroke-linejoin="round" d="M 14874,5720 L 1550,5720"/>
 <path fill="none" stroke="rgb(179,179,179)" stroke-linejoin="round" d="M 14874,4850 L 1550,4850"/>
 <path fill="none" stroke="rgb(179,179,179)" stroke-linejoin="round" d="M 14874,3981 L 1550,3981"/>
 <path fill="none" stroke="rgb(179,179,179)" stroke-linejoin="round" d="M 14874,3112 L 1550,3112"/>
 <path fill="none" stroke="rgb(179,179,179)" stroke-linejoin="round" d="M 14874,2242 L 1550,2242"/>
 <path fill="none" stroke="rgb(179,179,179)" stroke-linejoin="round" d="M 14874,1374 L 1550,1374"/>
 <path fill="none" stroke="rgb(179,179,179)" stroke-linejoin="round" d="M 14874,505 L 1550,505"/>
 <path fill="none" stroke="rgb(179,179,179)" stroke-linejoin="round" d="M 1550,7608 L 1550,7458"/>
 <path fill="none" stroke="rgb(179,179,179)" stroke-linejoin="round" d="M 1550,7608 L 1550,7458"/>
 <path fill="none" stroke="rgb(179,179,179)" stroke-linejoin="round" d="M 2882,7608 L 2882,7458"/>
 <path fill="none" stroke="rgb(179,179,179)" stroke-linejoin="round" d="M 2882,7608 L 2882,7458"/>
 <path fill="none" stroke="rgb(179,179,179)" stroke-linejoin="round" d="M 4215,7608 L 4215,7458"/>
 <path fill="none" stroke="rgb(179,179,179)" stroke-linejoin="round" d="M 4215,7608 L 4215,7458"/>
 <path fill="none" stroke="rgb(179,179,179)" stroke-linejoin="round" d="M 5547,7608 L 5547,7458"/>
 <path fill="none" stroke="rgb(179,179,179)" stroke-linejoin="round" d="M 5547,7608 L 5547,7458"/>
 <path fill="none" stroke="rgb(179,179,179)" stroke-linejoin="round" d="M 6880,7608 L 6880,7458"/>
 <path fill="none" stroke="rgb(179,179,179)" stroke-linejoin="round" d="M 6880,7608 L 6880,7458"/>
 <path fill="none" stroke="rgb(179,179,179)" stroke-linejoin="round" d="M 8212,7608 L 8212,7458"/>
 <path fill="none" stroke="rgb(179,179,179)" stroke-linejoin="round" d="M 8212,7608 L 8212,7458"/>
 <path fill="none" stroke="rgb(179,179,179)" stroke-linejoin="round" d="M 9544,7608 L 9544,7458"/>
 <path fill="none" stroke="rgb(179,179,179)" stroke-linejoin="round" d="M 9544,7608 L 9544,7458"/>
 <path fill="none" stroke="rgb(179,179,179)" stroke-linejoin="round" d="M 10877,7608 L 10877,7458"/>
 <path fill="none" stroke="rgb(179,179,179)" stroke-linejoin="round" d="M 10877,7608 L 10877,7458"/>
 <path fill="none" stroke="rgb(179,179,179)" stroke-linejoin="round" d="M 12209,7608 L 12209,7458"/>
 <path fill="none" stroke="rgb(179,179,179)" stroke-linejoin="round" d="M 12209,7608 L 12209,7458"/>
 <path fill="none" stroke="rgb(179,179,179)" stroke-linejoin="round" d="M 13542,7608 L 13542,7458"/>
 <path fill="none" stroke="rgb(179,179,179)" stroke-linejoin="round" d="M 13542,7608 L 13542,7458"/>
 <path fill="none" stroke="rgb(179,179,179)" stroke-linejoin="round" d="M 14874,7608 L 14874,7458"/>
 <path fill="none" stroke="rgb(179,179,179)" stroke-linejoin="round" d="M 14874,7608 L 14874,7458"/>
 <path fill="none" stroke="rgb(179,179,179)" stroke-linejoin="round" d="M 1550,7458 L 14874,7458"/>
 <path fill="none" stroke="rgb(179,179,179)" stroke-linejoin="round" d="M 1400,7458 L 1550,7458"/>
 <path fill="none" stroke="rgb(179,179,179)" stroke-linejoin="round" d="M 1400,7458 L 1550,7458"/>
 <path fill="none" stroke="rgb(179,179,179)" stroke-linejoin="round" d="M 1400,6589 L 1550,6589"/>
 <path fill="none" stroke="rgb(179,179,179)" stroke-linejoin="round" d="M 1400,6589 L 1550,6589"/>
 <path fill="none" stroke="rgb(179,179,179)" stroke-linejoin="round" d="M 1400,5720 L 1550,5720"/>
 <path fill="none" stroke="rgb(179,179,179)" stroke-linejoin="round" d="M 1400,5720 L 1550,5720"/>
 <path fill="none" stroke="rgb(179,179,179)" stroke-linejoin="round" d="M 1400,4850 L 1550,4850"/>
 <path fill="none" stroke="rgb(179,179,179)" stroke-linejoin="round" d="M 1400,4850 L 1550,4850"/>
 <path fill="none" stroke="rgb(179,179,179)" stroke-linejoin="round" d="M 1400,3981 L 1550,3981"/>
 <path fill="none" stroke="rgb(179,179,179)" stroke-linejoin="round" d="M 1400,3981 L 1550,3981"/>
 <path fill="none" stroke="rgb(179,179,179)" stroke-linejoin="round" d="M 1400,3112 L 1550,3112"/>
 <path fill="none" stroke="rgb(179,179,179)" stroke-linejoin="round" d="M 1400,3112 L 1550,3112"/>
 <path fill="none" stroke="rgb(179,179,179)" stroke-linejoin="round" d="M 1400,2242 L 1550,2242"/>
 <path fill="none" stroke="rgb(179,179,179)" stroke-linejoin="round" d="M 1400,2242 L 1550,2242"/>
 <path fill="none" stroke="rgb(179,179,179)" stroke-linejoin="round" d="M 1400,1374 L 1550,1374"/>
 <path fill="none" stroke="rgb(179,179,179)" stroke-linejoin="round" d="M 1400,1374 L 1550,1374"/>
 <path fill="none" stroke="rgb(179,179,179)" stroke-linejoin="round" d="M 1400,505 L 1550,505"/>
 <path fill="none" stroke="rgb(179,179,179)" stroke-linejoin="round" d="M 1400,505 L 1550,505"/>
 <path fill="none" stroke="rgb(179,179,179)" stroke-linejoin="round" d="M 1550,7458 L 1550,505"/>
 <path fill="rgb(255,66,14)" stroke="none" d="M 13417,4416 L 13542,4541 13667,4416 13542,4291 13417,4416 Z"/>
 <path fill="none" stroke="rgb(255,66,14)" stroke-linejoin="round" d="M 13417,4416 L 13542,4541 13667,4416 13542,4291 13417,4416 Z"/>
 <path fill="rgb(255,66,14)" stroke="none" d="M 10752,5024 L 10877,5149 11002,5024 10877,4899 10752,5024 Z"/>
 <path fill="none" stroke="rgb(255,66,14)" stroke-linejoin="round" d="M 10752,5024 L 10877,5149 11002,5024 10877,4899 10752,5024 Z"/>
 <path fill="rgb(255,66,14)" stroke="none" d="M 9419,5329 L 9544,5454 9669,5329 9544,5204 9419,5329 Z"/>
 <path fill="none" stroke="rgb(255,66,14)" stroke-linejoin="round" d="M 9419,5329 L 9544,5454 9669,5329 9544,5204 9419,5329 Z"/>
 <path fill="rgb(255,66,14)" stroke="none" d="M 8087,5633 L 8212,5758 8337,5633 8212,5508 8087,5633 Z"/>
 <path fill="none" stroke="rgb(255,66,14)" stroke-linejoin="round" d="M 8087,5633 L 8212,5758 8337,5633 8212,5508 8087,5633 Z"/>
 <path fill="rgb(255,66,14)" stroke="none" d="M 6755,5937 L 6880,6062 7005,5937 6880,5812 6755,5937 Z"/>
 <path fill="none" stroke="rgb(255,66,14)" stroke-linejoin="round" d="M 6755,5937 L 6880,6062 7005,5937 6880,5812 6755,5937 Z"/>
 <path fill="rgb(255,66,14)" stroke="none" d="M 5422,6241 L 5547,6366 5672,6241 5547,6116 5422,6241 Z"/>
 <path fill="none" stroke="rgb(255,66,14)" stroke-linejoin="round" d="M 5422,6241 L 5547,6366 5672,6241 5547,6116 5422,6241 Z"/>
 <path fill="rgb(255,66,14)" stroke="none" d="M 4090,6546 L 4215,6670 4340,6546 4215,6421 4090,6546 Z"/>
 <path fill="none" stroke="rgb(255,66,14)" stroke-linejoin="round" d="M 4090,6546 L 4215,6670 4340,6546 4215,6421 4090,6546 Z"/>
 <path fill="rgb(255,66,14)" stroke="none" d="M 2757,6849 L 2882,6974 3007,6849 2882,6724 2757,6849 Z"/>
 <path fill="none" stroke="rgb(255,66,14)" stroke-linejoin="round" d="M 2757,6849 L 2882,6974 3007,6849 2882,6724 2757,6849 Z"/>
 <path fill="rgb(0,69,134)" stroke="none" d="M 13417,1423 L 13417,1673 13667,1673 13667,1423 13417,1423 Z"/>
 <path fill="none" stroke="rgb(0,69,134)" stroke-linejoin="round" d="M 13417,1423 L 13417,1673 13667,1673 13667,1423 13417,1423 Z"/>
 <path fill="rgb(0,69,134)" stroke="none" d="M 10752,2639 L 10752,2889 11002,2889 11002,2639 10752,2639 Z"/>
 <path fill="none" stroke="rgb(0,69,134)" stroke-linejoin="round" d="M 10752,2639 L 10752,2889 11002,2889 11002,2639 10752,2639 Z"/>
 <path fill="rgb(0,69,134)" stroke="none" d="M 9419,3334 L 9419,3584 9669,3584 9669,3334 9419,3334 Z"/>
 <path fill="none" stroke="rgb(0,69,134)" stroke-linejoin="round" d="M 9419,3334 L 9419,3584 9669,3584 9669,3334 9419,3334 Z"/>
 <path fill="rgb(0,69,134)" stroke="none" d="M 8087,3899 L 8087,4149 8337,4149 8337,3899 8087,3899 Z"/>
 <path fill="none" stroke="rgb(0,69,134)" stroke-linejoin="round" d="M 8087,3899 L 8087,4149 8337,4149 8337,3899 8087,3899 Z"/>
 <path fill="rgb(0,69,134)" stroke="none" d="M 6755,4465 L 6755,4715 7005,4715 7005,4465 6755,4465 Z"/>
 <path fill="none" stroke="rgb(0,69,134)" stroke-linejoin="round" d="M 6755,4465 L 6755,4715 7005,4715 7005,4465 6755,4465 Z"/>
 <path fill="rgb(0,69,134)" stroke="none" d="M 5422,5073 L 5422,5323 5672,5323 5672,5073 5422,5073 Z"/>
 <path fill="none" stroke="rgb(0,69,134)" stroke-linejoin="round" d="M 5422,5073 L 5422,5323 5672,5323 5672,5073 5422,5073 Z"/>
 <path fill="rgb(0,69,134)" stroke="none" d="M 4090,5595 L 4090,5845 4340,5845 4340,5595 4090,5595 Z"/>
 <path fill="none" stroke="rgb(0,69,134)" stroke-linejoin="round" d="M 4090,5595 L 4090,5845 4340,5845 4340,5595 4090,5595 Z"/>
 <path fill="rgb(0,69,134)" stroke="none" d="M 2757,6160 L 2757,6410 3007,6410 3007,6160 2757,6160 Z"/>
 <path fill="none" stroke="rgb(0,69,134)" stroke-linejoin="round" d="M 2757,6160 L 2757,6410 3007,6410 3007,6160 2757,6160 Z"/>
 <path fill="none" stroke="rgb(255,66,14)" stroke-linejoin="round" d="M 1550,7153 L 14874,4111"/>
 <path fill="none" stroke="rgb(0,69,134)" stroke-linejoin="round" d="M 1550,6934 L 14874,1018"/>
 <text class="SVGTextShape"><tspan class="TextParagraph" font-family="Liberation Sans, sans-serif" font-size="353px" font-weight="400"><tspan class="TextPosition" x="1457" y="8026"><tspan fill="rgb(0,0,0)" stroke="none" style="white-space: pre">1</tspan></tspan></tspan></text>
 <text class="SVGTextShape"><tspan class="TextParagraph" font-family="Liberation Sans, sans-serif" font-size="353px" font-weight="400"><tspan class="TextPosition" x="2789" y="8026"><tspan fill="rgb(0,0,0)" stroke="none" style="white-space: pre">2</tspan></tspan></tspan></text>
 <text class="SVGTextShape"><tspan class="TextParagraph" font-family="Liberation Sans, sans-serif" font-size="353px" font-weight="400"><tspan class="TextPosition" x="4122" y="8026"><tspan fill="rgb(0,0,0)" stroke="none" style="white-space: pre">3</tspan></tspan></tspan></text>
 <text class="SVGTextShape"><tspan class="TextParagraph" font-family="Liberation Sans, sans-serif" font-size="353px" font-weight="400"><tspan class="TextPosition" x="5454" y="8026"><tspan fill="rgb(0,0,0)" stroke="none" style="white-space: pre">4</tspan></tspan></tspan></text>
 <text class="SVGTextShape"><tspan class="TextParagraph" font-family="Liberation Sans, sans-serif" font-size="353px" font-weight="400"><tspan class="TextPosition" x="6787" y="8026"><tspan fill="rgb(0,0,0)" stroke="none" style="white-space: pre">5</tspan></tspan></tspan></text>
 <text class="SVGTextShape"><tspan class="TextParagraph" font-family="Liberation Sans, sans-serif" font-size="353px" font-weight="400"><tspan class="TextPosition" x="8120" y="8026"><tspan fill="rgb(0,0,0)" stroke="none" style="white-space: pre">6</tspan></tspan></tspan></text>
 <text class="SVGTextShape"><tspan class="TextParagraph" font-family="Liberation Sans, sans-serif" font-size="353px" font-weight="400"><tspan class="TextPosition" x="9452" y="8026"><tspan fill="rgb(0,0,0)" stroke="none" style="white-space: pre">7</tspan></tspan></tspan></text>
 <text class="SVGTextShape"><tspan class="TextParagraph" font-family="Liberation Sans, sans-serif" font-size="353px" font-weight="400"><tspan class="TextPosition" x="10785" y="8026"><tspan fill="rgb(0,0,0)" stroke="none" style="white-space: pre">8</tspan></tspan></tspan></text>
 <text class="SVGTextShape"><tspan class="TextParagraph" font-family="Liberation Sans, sans-serif" font-size="353px" font-weight="400"><tspan class="TextPosition" x="12117" y="8026"><tspan fill="rgb(0,0,0)" stroke="none" style="white-space: pre">9</tspan></tspan></tspan></text>
 <text class="SVGTextShape"><tspan class="TextParagraph" font-family="Liberation Sans, sans-serif" font-size="353px" font-weight="400"><tspan class="TextPosition" x="13358" y="8026"><tspan fill="rgb(0,0,0)" stroke="none" style="white-space: pre">10</tspan></tspan></tspan></text>
 <text class="SVGTextShape"><tspan class="TextParagraph" font-family="Liberation Sans, sans-serif" font-size="353px" font-weight="400"><tspan class="TextPosition" x="14690" y="8026"><tspan fill="rgb(0,0,0)" stroke="none" style="white-space: pre">11</tspan></tspan></tspan></text>
 <text class="SVGTextShape"><tspan class="TextParagraph" font-family="Liberation Sans, sans-serif" font-size="353px" font-weight="400"><tspan class="TextPosition" x="1115" y="7579"><tspan fill="rgb(0,0,0)" stroke="none" style="white-space: pre">0</tspan></tspan></tspan></text>
 <text class="SVGTextShape"><tspan class="TextParagraph" font-family="Liberation Sans, sans-serif" font-size="353px" font-weight="400"><tspan class="TextPosition" x="930" y="6709"><tspan fill="rgb(0,0,0)" stroke="none" style="white-space: pre">10</tspan></tspan></tspan></text>
 <text class="SVGTextShape"><tspan class="TextParagraph" font-family="Liberation Sans, sans-serif" font-size="353px" font-weight="400"><tspan class="TextPosition" x="930" y="5840"><tspan fill="rgb(0,0,0)" stroke="none" style="white-space: pre">20</tspan></tspan></tspan></text>
 <text class="SVGTextShape"><tspan class="TextParagraph" font-family="Liberation Sans, sans-serif" font-size="353px" font-weight="400"><tspan class="TextPosition" x="930" y="4970"><tspan fill="rgb(0,0,0)" stroke="none" style="white-space: pre">30</tspan></tspan></tspan></text>
 <text class="SVGTextShape"><tspan class="TextParagraph" font-family="Liberation Sans, sans-serif" font-size="353px" font-weight="400"><tspan class="TextPosition" x="930" y="4102"><tspan fill="rgb(0,0,0)" stroke="none" style="white-space: pre">40</tspan></tspan></tspan></text>
 <text class="SVGTextShape"><tspan class="TextParagraph" font-family="Liberation Sans, sans-serif" font-size="353px" font-weight="400"><tspan class="TextPosition" x="930" y="3233"><tspan fill="rgb(0,0,0)" stroke="none" style="white-space: pre">50</tspan></tspan></tspan></text>
 <text class="SVGTextShape"><tspan class="TextParagraph" font-family="Liberation Sans, sans-serif" font-size="353px" font-weight="400"><tspan class="TextPosition" x="930" y="2363"><tspan fill="rgb(0,0,0)" stroke="none" style="white-space: pre">60</tspan></tspan></tspan></text>
 <text class="SVGTextShape"><tspan class="TextParagraph" font-family="Liberation Sans, sans-serif" font-size="353px" font-weight="400"><tspan class="TextPosition" x="930" y="1494"><tspan fill="rgb(0,0,0)" stroke="none" style="white-space: pre">70</tspan></tspan></tspan></text>
 <text class="SVGTextShape"><tspan class="TextParagraph" font-family="Liberation Sans, sans-serif" font-size="353px" font-weight="400"><tspan class="TextPosition" x="930" y="625"><tspan fill="rgb(0,0,0)" stroke="none" style="white-space: pre">80</tspan></tspan></tspan></text>
 <text class="SVGTextShape"><tspan class="TextParagraph" font-family="Liberation Sans, sans-serif" font-size="353px" font-weight="400"><tspan class="TextPosition" x="2091" y="1692"><tspan fill="rgb(0,0,0)" stroke="none" style="white-space: pre">y_теор = 3.5 x</tspan></tspan></tspan></text>
 <text class="SVGTextShape"><tspan class="TextParagraph" font-family="Liberation Sans, sans-serif" font-size="353px" font-weight="400"><tspan class="TextPosition" x="2108" y="1191"><tspan fill="rgb(0,0,0)" stroke="none" style="white-space: pre">y_эксп = 6.8 x − 0.8</tspan></tspan></tspan></text>
 <text class="SVGTextShape"><tspan class="TextParagraph" font-family="Liberation Sans, sans-serif" font-size="459px" font-weight="400"><tspan class="TextPosition" x="7886" y="855"><tspan fill="rgb(0,0,0)" stroke="none" style="white-space: pre">T(R)</tspan></tspan></tspan></text>
 <path fill="rgb(0,69,134)" stroke="none" d="M 2294,2708 L 2294,2919 2505,2919 2505,2708 2294,2708 Z"/>
 <path fill="none" stroke="rgb(0,69,134)" stroke-linejoin="round" d="M 2294,2708 L 2294,2919 2505,2919 2505,2708 2294,2708 Z"/>
 <path fill="none" stroke="rgb(0,69,134)" stroke-linejoin="round" d="M 3995,2813 L 4795,2813"/>
 <path fill="rgb(255,66,14)" stroke="none" d="M 2294,3713 L 2400,3819 2505,3713 2400,3608 2294,3713 Z"/>
 <path fill="none" stroke="rgb(255,66,14)" stroke-linejoin="round" d="M 2294,3713 L 2400,3819 2505,3713 2400,3608 2294,3713 Z"/>
 <path fill="none" stroke="rgb(255,66,14)" stroke-linejoin="round" d="M 3995,3713 L 4795,3713"/>
 <text class="SVGTextShape"><tspan class="TextParagraph" font-family="Liberation Sans, sans-serif" font-size="353px" font-weight="400"><tspan class="TextPosition" x="2900" y="2933"><tspan fill="rgb(0,0,0)" stroke="none" style="white-space: pre">эксп</tspan></tspan></tspan></text>
 <text class="SVGTextShape"><tspan class="TextParagraph" font-family="Liberation Sans, sans-serif" font-size="353px" font-weight="400"><tspan class="TextPosition" x="4895" y="2933"><tspan fill="rgb(0,0,0)" stroke="none" style="white-space: pre">Linear (эксп)</tspan></tspan></tspan></text>
 <text class="SVGTextShape"><tspan class="TextParagraph" font-family="Liberation Sans, sans-serif" font-size="353px" font-weight="400"><tspan class="TextPosition" x="2900" y="3833"><tspan fill="rgb(0,0,0)" stroke="none" style="white-space: pre">теор</tspan></tspan></tspan></text>
 <text class="SVGTextShape"><tspan class="TextParagraph" font-family="Liberation Sans, sans-serif" font-size="353px" font-weight="400"><tspan class="TextPosition" x="4895" y="3833"><tspan fill="rgb(0,0,0)" stroke="none" style="white-space: pre">Linear (теор)</tspan></tspan></tspan></text>
 <text class="SVGTextShape"><tspan class="TextParagraph" font-family="Liberation Sans, sans-serif" font-size="318px" font-weight="400"><tspan class="TextPosition" x="7175" y="8618"><tspan fill="rgb(0,0,0)" stroke="none" style="white-space: pre">R, 10^5 Ом</tspan></tspan></tspan></text>
 <text class="SVGTextShape" transform="rotate(-90 446 4562)"><tspan class="TextParagraph" font-family="Liberation Sans, sans-serif" font-size="318px" font-weight="400"><tspan class="TextPosition" x="446" y="4562"><tspan fill="rgb(0,0,0)" stroke="none" style="white-space: pre">T, мс</tspan></tspan></tspan></text>
</svg>